<svg id="Lag_1" data-name="Lag 1" xmlns="http://www.w3.org/2000/svg" width="40mm" height="20mm" viewBox="0 0 113.38583 56.69291"><defs><style>.cls-1{fill:#2a1000;}</style></defs><title>madsolo</title><path class="cls-1" d="M24.69545,22.74347H22.87123l-.36816,2.48047H20.8058l1.85742-11.2041h2.27246l1.85645,11.2041H25.06361Zm-.22363-1.63281-.68848-4.69043-.68848,4.69043Z"/><path class="cls-1" d="M28.10267,14.01984H32.84v1.60058H29.799v3.28125h2.40137v1.60059H29.799v4.72168H28.10267Z"/><path class="cls-1" d="M46.54408,12.62042V25.22394h-1.9082V16.58136l-1.78223,8.64258h-1.333l-1.78222-8.64258v8.64258h-1.873V12.62042h2.70117l1.65625,8.04883,1.585-8.04883Z"/><path class="cls-1" d="M52.39271,22.43292H50.34l-.41406,2.791H48.01771L50.1056,12.62042h2.55665l2.08886,12.60352H52.80678Zm-.252-1.83593-.77441-5.27539L50.59193,20.597Z"/><path class="cls-1" d="M56.22475,12.62042H59.214a2.81238,2.81238,0,0,1,2.98926,3.00684V22.2171A2.81238,2.81238,0,0,1,59.214,25.22394H56.22475Zm2.89941,10.80274a1.06971,1.06971,0,0,0,1.16992-1.16992V15.59113a1.06971,1.06971,0,0,0-1.16992-1.16992h-.99024v9.00195Z"/><path class="cls-1" d="M63.67689,22.307v-.4502l1.83692-.19726v.46777c0,.918.46777,1.47656,1.22363,1.47656a1.1302,1.1302,0,0,0,1.22461-1.206c0-.793-.32422-1.36914-1.74609-2.71973-1.89063-1.78223-2.43067-2.7539-2.43067-4.14062a2.90535,2.90535,0,1,1,5.79688.01757v.32422l-1.83594.19825V15.7171c0-.97168-.37793-1.47656-1.04492-1.47656-.666,0-1.044.41406-1.044,1.207,0,.792.39649,1.36817,1.7461,2.71875,1.83691,1.83594,2.43066,2.75489,2.43066,4.14063a3.07867,3.07867,0,1,1-6.15723,0Z"/><path class="cls-1" d="M71.29017,22.36164V15.48371a3.06109,3.06109,0,0,1,6.12208,0v6.87793a3.06109,3.06109,0,0,1-6.12208,0Zm4.21387,0V15.48371a1.15566,1.15566,0,1,0-2.30469,0v6.87793a1.15559,1.15559,0,1,0,2.30469,0Z"/><path class="cls-1" d="M79.33607,12.62042h1.90918V23.42316H84.6476v1.80078H79.33607Z"/><path class="cls-1" d="M85.9601,22.36164V15.48371a3.06109,3.06109,0,0,1,6.12207,0v6.87793a3.06109,3.06109,0,0,1-6.12207,0Zm4.21386,0V15.48371a1.15566,1.15566,0,1,0-2.30468,0v6.87793a1.15559,1.15559,0,1,0,2.30468,0Z"/><path class="cls-1" d="M15.66908,36.60578a10.67132,10.67132,0,0,1,2.27344-6.16211l1.05664.46386a12.01531,12.01531,0,0,0-1.63281,5.69825A12.01531,12.01531,0,0,0,18.99916,42.304l-1.05664.46484A10.67643,10.67643,0,0,1,15.66908,36.60578Z"/><path class="cls-1" d="M27.9767,31.01984v11.2041H26.28041V34.54132l-1.585,7.68262H23.51088l-1.585-7.68262v7.68262H20.26185V31.01984h2.4004l1.47265,7.1543,1.40918-7.1543Z"/><path class="cls-1" d="M33.174,39.74347H31.34975l-.36817,2.48047H29.28432l1.85742-11.2041H33.4142l1.85644,11.2041H33.54213Zm-.22363-1.63281-.68848-4.69043-.68847,4.69043Z"/><path class="cls-1" d="M36.58119,31.01984h2.65723a2.49941,2.49941,0,0,1,2.65625,2.67285v5.8584a2.49941,2.49941,0,0,1-2.65625,2.67285H36.58119Zm2.57715,9.60351a.951.951,0,0,0,1.04-1.04V33.66046a.951.951,0,0,0-1.04-1.04h-.88086v8.00293Z"/><path class="cls-1" d="M43.20424,39.63117v-.40039l1.63281-.17579v.416c0,.81641.416,1.3125,1.08887,1.3125a1.00429,1.00429,0,0,0,1.08789-1.07227c0-.7041-.28809-1.21679-1.55274-2.417-1.68066-1.585-2.16015-2.44922-2.16015-3.68164a2.58281,2.58281,0,1,1,5.15332.01563v.28906l-1.63184.17578v-.32031c0-.86426-.33691-1.3125-.92871-1.3125-.59277,0-.92871.36816-.92871,1.07226s.35254,1.2168,1.55273,2.417c1.63282,1.63281,2.16114,2.44921,2.16114,3.68164a2.73735,2.73735,0,1,1-5.47461,0Z"/><path class="cls-1" d="M53.31654,31.01984h1.87207l2.16114,7.52246V31.01984h1.665v11.2041h-1.793L54.9806,35.053v7.1709H53.31654Z"/><path class="cls-1" d="M66.50209,31.01984l-2.27246,6.51465v4.68945H62.53236V37.53449L60.2599,31.01984h1.8086l1.3125,4.27344,1.34472-4.27344Z"/><path class="cls-1" d="M73.23842,38.639v.91211a2.50017,2.50017,0,0,1-2.65723,2.67285h-2.833V31.01984h2.68848a2.49967,2.49967,0,0,1,2.65723,2.67285v.5918A2.28572,2.28572,0,0,1,71.95717,36.43,2.25911,2.25911,0,0,1,73.23842,38.639Zm-3.794-6.01856v3.041h.752a1.04891,1.04891,0,0,0,1.20118-1.2002v-.80078a.95175.95175,0,0,0-1.041-1.04Zm2.09668,5.8418A1.04859,1.04859,0,0,0,70.341,37.262h-.89649v3.36132h1.05664a.951.951,0,0,0,1.04-1.04Z"/><path class="cls-1" d="M78.58217,42.22394l-1.23242-4.626h-.88086v4.626H74.7726V31.01984h2.65722a2.49941,2.49941,0,0,1,2.65625,2.67285v1.23242a2.546,2.546,0,0,1-1.168,2.28906l1.42481,5.00977Zm-2.11328-6.22656h.88086a.951.951,0,0,0,1.04-1.04V33.66046a.951.951,0,0,0-1.04-1.04h-.88086Z"/><path class="cls-1" d="M81.588,39.679V33.56476a2.72124,2.72124,0,0,1,5.44238,0V39.679a2.72124,2.72124,0,0,1-5.44238,0Zm3.74609,0V33.56476a1.02732,1.02732,0,1,0-2.04883,0V39.679a1.02732,1.02732,0,1,0,2.04883,0Z"/><path class="cls-1" d="M88.74037,31.01984h4.81738v1.60058H90.43666v3.1211H92.9181V37.3421H90.43666v3.28125h3.12109v1.60059H88.74037Z"/><path class="cls-1" d="M94.38783,42.304a12.01531,12.01531,0,0,0,1.63281-5.69824,12.01531,12.01531,0,0,0-1.63281-5.69825l1.05664-.46386a10.66972,10.66972,0,0,1,2.27246,6.16211,10.67483,10.67483,0,0,1-2.27246,6.16308Z"/></svg>
