<?xml version="1.0" encoding="utf-8"?>
<!-- Generator: Adobe Illustrator 23.0.4, SVG Export Plug-In . SVG Version: 6.00 Build 0)  -->
<svg version="1.1" id="Lag_1" xmlns="http://www.w3.org/2000/svg" xmlns:xlink="http://www.w3.org/1999/xlink" x="0px" y="0px"
	 viewBox="0 0 279.7 118.1" style="enable-background:new 0 0 279.7 118.1;" xml:space="preserve">
<style type="text/css">
	.st0{fill:#2A1000;stroke:#2A1000;stroke-miterlimit:10;}
	.st1{fill:#FFFFFF;stroke:#2A1000;stroke-miterlimit:10;}
	.st2{fill:#FF006D;}
	.st3{opacity:0.39;fill:#80008B;}
	.st4{opacity:0.39;fill:url(#SVGID_1_);}
	.st5{opacity:0.39;fill:url(#SVGID_2_);}
	.st6{opacity:0.45;fill:url(#SVGID_3_);}
	.st7{opacity:0.45;fill:url(#SVGID_4_);}
	.st8{opacity:0.45;fill:url(#SVGID_5_);}
	.st9{opacity:0.45;fill:url(#SVGID_6_);}
	.st10{opacity:0.45;fill:url(#SVGID_7_);}
	.st11{opacity:0.45;fill:url(#SVGID_8_);}
	.st12{opacity:0.45;fill:url(#SVGID_9_);}
	.st13{opacity:0.45;fill:url(#SVGID_10_);}
	.st14{opacity:0.45;fill:url(#SVGID_11_);}
	.st15{opacity:0.45;fill:url(#SVGID_12_);}
	.st16{opacity:0.45;fill:url(#SVGID_13_);}
	.st17{opacity:0.45;fill:url(#SVGID_14_);}
	.st18{opacity:0.45;fill:url(#SVGID_15_);}
	.st19{opacity:0.45;fill:url(#SVGID_16_);}
	.st20{opacity:0.45;fill:url(#SVGID_17_);}
	.st21{opacity:0.45;fill:url(#SVGID_18_);}
	.st22{opacity:0.45;fill:url(#SVGID_19_);}
	.st23{opacity:0.45;fill:url(#SVGID_20_);}
	.st24{opacity:0.45;fill:url(#SVGID_21_);}
	.st25{opacity:0.45;fill:url(#SVGID_22_);}
	.st26{opacity:0.45;fill:#FFFFFF;}
	.st27{opacity:0.45;fill:url(#SVGID_23_);}
	.st28{opacity:0.45;fill:url(#SVGID_24_);}
	.st29{opacity:0.45;fill:url(#SVGID_25_);}
	.st30{opacity:0.45;fill:url(#SVGID_26_);}
	.st31{opacity:0.45;fill:url(#SVGID_27_);}
	.st32{opacity:0.45;fill:url(#SVGID_28_);}
	.st33{opacity:0.45;fill:url(#SVGID_29_);}
	.st34{opacity:0.45;fill:url(#SVGID_30_);}
	.st35{opacity:0.45;fill:url(#SVGID_31_);}
	.st36{opacity:0.45;fill:url(#SVGID_32_);}
	.st37{opacity:0.45;fill:url(#SVGID_33_);}
	.st38{opacity:0.45;fill:url(#SVGID_34_);}
	.st39{opacity:0.45;fill:url(#SVGID_35_);}
	.st40{opacity:0.45;fill:url(#SVGID_36_);}
	.st41{opacity:0.45;fill:url(#SVGID_37_);}
	.st42{opacity:0.45;fill:url(#SVGID_38_);}
	.st43{opacity:0.39;fill:url(#SVGID_39_);}
	.st44{opacity:0.25;fill:#80008B;}
	.st45{opacity:0.45;fill:url(#SVGID_40_);}
	.st46{fill:url(#SVGID_41_);}
	.st47{opacity:0.39;fill:#FFFFFF;}
	.st48{opacity:0.45;fill:url(#SVGID_42_);}
	.st49{opacity:0.45;fill:url(#SVGID_43_);}
	.st50{opacity:0.45;fill:url(#SVGID_44_);}
	.st51{opacity:0.45;fill:url(#SVGID_45_);}
	.st52{opacity:0.45;fill:url(#SVGID_46_);}
	.st53{opacity:0.39;fill:url(#SVGID_47_);}
	.st54{opacity:0.39;fill:url(#SVGID_48_);}
	.st55{opacity:0.39;fill:url(#SVGID_49_);}
	.st56{opacity:0.39;fill:url(#SVGID_50_);}
	.st57{opacity:0.45;fill:url(#SVGID_51_);}
	.st58{opacity:0.39;fill:url(#SVGID_52_);}
	.st59{opacity:0.45;fill:url(#SVGID_53_);}
	.st60{opacity:0.45;fill:url(#SVGID_54_);}
	.st61{opacity:0.45;fill:url(#SVGID_55_);}
	.st62{opacity:0.39;fill:url(#SVGID_56_);}
	.st63{opacity:0.39;fill:url(#SVGID_57_);}
	.st64{opacity:0.39;fill:url(#SVGID_58_);}
	.st65{opacity:0.45;fill:url(#SVGID_59_);}
	.st66{opacity:0.39;fill:url(#SVGID_60_);}
	.st67{opacity:0.45;fill:url(#SVGID_61_);}
	.st68{opacity:0.39;fill:url(#SVGID_62_);}
	.st69{opacity:0.45;fill:url(#SVGID_63_);}
	.st70{opacity:0.39;fill:url(#SVGID_64_);}
	.st71{opacity:0.32;filter:url(#AI_GaussianBlur_7);}
	.st72{fill:url(#SVGID_65_);}
	.st73{fill:url(#SVGID_66_);}
	.st74{fill:url(#SVGID_67_);}
	.st75{fill:url(#SVGID_68_);}
	.st76{fill:url(#SVGID_69_);}
	.st77{fill:url(#SVGID_70_);}
	.st78{fill:url(#SVGID_71_);}
	.st79{fill:url(#SVGID_72_);}
	.st80{fill:url(#SVGID_73_);}
	.st81{opacity:0.4;}
	.st82{fill:#585858;}
	.st83{opacity:0.39;fill:#363636;}
	.st84{opacity:0.39;fill:url(#SVGID_74_);}
	.st85{opacity:0.39;fill:url(#SVGID_75_);}
	.st86{opacity:0.39;fill:url(#SVGID_76_);}
	.st87{opacity:0.39;fill:url(#SVGID_77_);}
	.st88{opacity:0.39;fill:url(#SVGID_78_);}
	.st89{opacity:0.39;fill:url(#SVGID_79_);}
	.st90{opacity:0.45;fill:url(#SVGID_80_);}
	.st91{opacity:0.45;fill:url(#SVGID_81_);}
	.st92{opacity:0.45;fill:url(#SVGID_82_);}
	.st93{opacity:0.45;fill:url(#SVGID_83_);}
	.st94{opacity:0.45;fill:url(#SVGID_84_);}
	.st95{opacity:0.45;fill:url(#SVGID_85_);}
	.st96{opacity:0.45;fill:url(#SVGID_86_);}
	.st97{opacity:0.45;fill:url(#SVGID_87_);}
	.st98{opacity:0.45;fill:url(#SVGID_88_);}
	.st99{opacity:0.45;fill:url(#SVGID_89_);}
	.st100{opacity:0.45;fill:url(#SVGID_90_);}
	.st101{opacity:0.45;fill:url(#SVGID_91_);}
	.st102{opacity:0.45;fill:url(#SVGID_92_);}
	.st103{opacity:0.45;fill:url(#SVGID_93_);}
	.st104{opacity:0.45;fill:url(#SVGID_94_);}
	.st105{opacity:0.45;fill:url(#SVGID_95_);}
	.st106{opacity:0.45;fill:url(#SVGID_96_);}
	.st107{opacity:0.45;fill:url(#SVGID_97_);}
	.st108{opacity:0.45;fill:url(#SVGID_98_);}
	.st109{opacity:0.39;fill:url(#SVGID_99_);}
	.st110{opacity:0.45;fill:url(#SVGID_100_);}
	.st111{opacity:0.35;fill:#FFFFFF;}
	.st112{opacity:0.45;fill:url(#SVGID_101_);}
	.st113{opacity:0.3;fill:#FFFFFF;}
	.st114{opacity:0.45;fill:url(#SVGID_102_);}
	.st115{opacity:0.45;fill:url(#SVGID_103_);}
	.st116{opacity:0.45;fill:url(#SVGID_104_);}
	.st117{opacity:0.36;fill:#FFFFFF;}
	.st118{opacity:0.45;fill:url(#SVGID_105_);}
	.st119{opacity:0.39;fill:url(#SVGID_106_);}
	.st120{opacity:0.45;fill:url(#SVGID_107_);}
	.st121{opacity:0.45;fill:url(#SVGID_108_);}
	.st122{opacity:0.45;fill:url(#SVGID_109_);}
	.st123{opacity:0.39;fill:url(#SVGID_110_);}
	.st124{opacity:0.39;fill:url(#SVGID_111_);}
	.st125{opacity:0.39;fill:url(#SVGID_112_);}
	.st126{opacity:0.39;fill:url(#SVGID_113_);}
	.st127{opacity:0.45;fill:url(#SVGID_114_);}
	.st128{opacity:0.39;fill:url(#SVGID_115_);}
	.st129{opacity:0.31;fill:#FFFFFF;}
	.st130{opacity:0.45;fill:url(#SVGID_116_);}
	.st131{opacity:0.37;fill:url(#SVGID_117_);}
	.st132{opacity:0.45;fill:url(#SVGID_118_);}
	.st133{opacity:0.39;fill:url(#SVGID_119_);}
</style>
<filter  id="AI_GaussianBlur_7" name="AI_GaussianBlur_7">
	<feGaussianBlur  stdDeviation="7"></feGaussianBlur>
</filter>
<title>port</title>
<path class="st0" d="M37.9,31h10c6.1,0,10,4,10,10v4.9c0,6.1-3.9,10-10,10h-3.6v17h-6.4V31z M47.5,49.9c2,0.2,3.7-1.2,3.9-3.2
	c0-0.2,0-0.5,0-0.7v-5.2c0.2-2-1.2-3.7-3.2-3.9c-0.2,0-0.5,0-0.7,0h-3.3v13H47.5z"/>
<path class="st0" d="M62.6,63.4V40.5c0-6.1,4.1-10.1,10.2-10.1S83,34.5,83,40.5v22.9c0,6.1-4.1,10.1-10.2,10.1S62.6,69.5,62.6,63.4z
	 M76.6,63.4V40.5c0-2.6-1.5-4.1-3.8-4.1S69,37.9,69,40.5v22.9c0,2.6,1.5,4.1,3.8,4.1S76.6,66.1,76.6,63.4z"/>
<path class="st0" d="M103.7,73l-4.6-17.3h-3.3V73h-6.4V31h10c6.1,0,10,4,10,10v4.6c0,3.9-1.6,6.9-4.4,8.6l5.3,18.8L103.7,73z
	 M95.8,49.6h3.3c2,0.2,3.7-1.2,3.9-3.2c0-0.2,0-0.5,0-0.7v-4.9c0.2-2-1.2-3.7-3.2-3.9c-0.2,0-0.5,0-0.7,0h-3.3V49.6z"/>
<path class="st0" d="M113.4,31h20.3v6h-7v36h-6.4V37h-7L113.4,31z"/>
<path class="st0" d="M138.6,31h17.8v6h-11.4v12.3h9v6h-9V73h-6.4V31z"/>
<path class="st0" d="M160.7,63.4V40.5c0-6.1,4.1-10.1,10.2-10.1c6.1,0,10.2,4.1,10.2,10.1v22.9c0,6.1-4.1,10.1-10.2,10.1
	C164.8,73.6,160.7,69.5,160.7,63.4z M174.7,63.4V40.5c0-2.6-1.5-4.1-3.8-4.1s-3.8,1.5-3.8,4.1v22.9c0,2.6,1.5,4.1,3.8,4.1
	S174.7,66.1,174.7,63.4L174.7,63.4z"/>
<path class="st0" d="M187.5,31h6.4v36h11.3v6h-17.7V31z"/>
<path class="st0" d="M210.1,31h6.4v42h-6.4V31z"/>
<path class="st0" d="M222.9,63.4V40.5c0-6.1,4.1-10.1,10.2-10.1c6.1,0,10.2,4.1,10.2,10.1v22.9c0,6.1-4.1,10.1-10.2,10.1
	C227,73.6,222.9,69.5,222.9,63.4z M237,63.4V40.5c0-2.6-1.5-4.1-3.8-4.1s-3.8,1.5-3.8,4.1v22.9c0,2.6,1.5,4.1,3.8,4.1
	S237,66.1,237,63.4L237,63.4z"/>
<path class="st1" d="M36.9,30h10c6.1,0,10,4,10,10v4.9c0,6.1-3.9,10-10,10h-3.6v17h-6.4V30z M46.5,48.9c2,0.2,3.7-1.2,3.9-3.2
	c0-0.2,0-0.5,0-0.7v-5.2c0.2-2-1.2-3.7-3.2-3.9c-0.2,0-0.5,0-0.7,0h-3.3v13H46.5z"/>
<path class="st1" d="M61.6,62.4V39.5c0-6.1,4.1-10.1,10.2-10.1S82,33.5,82,39.5v22.9c0,6.1-4.1,10.1-10.2,10.1S61.6,68.5,61.6,62.4z
	 M75.6,62.4V39.5c0-2.6-1.5-4.1-3.8-4.1S68,36.9,68,39.5v22.9c0,2.6,1.5,4.1,3.8,4.1S75.6,65.1,75.6,62.4z"/>
<path class="st1" d="M102.7,72l-4.6-17.3h-3.3V72h-6.4V30h10c6.1,0,10,4,10,10v4.6c0,3.9-1.6,6.9-4.4,8.6l5.3,18.8L102.7,72z
	 M94.8,48.6h3.3c2,0.2,3.7-1.2,3.9-3.2c0-0.2,0-0.5,0-0.7v-4.9c0.2-2-1.2-3.7-3.2-3.9c-0.2,0-0.5,0-0.7,0h-3.3V48.6z"/>
<path class="st1" d="M112.4,30h20.3v6h-7v36h-6.4V36h-7L112.4,30z"/>
<path class="st1" d="M137.6,30h17.8v6h-11.4v12.3h9v6h-9V72h-6.4V30z"/>
<path class="st1" d="M159.7,62.4V39.5c0-6.1,4.1-10.1,10.2-10.1c6.1,0,10.2,4.1,10.2,10.1v22.9c0,6.1-4.1,10.1-10.2,10.1
	C163.8,72.6,159.7,68.5,159.7,62.4z M173.7,62.4V39.5c0-2.6-1.5-4.1-3.8-4.1s-3.8,1.5-3.8,4.1v22.9c0,2.6,1.5,4.1,3.8,4.1
	S173.7,65.1,173.7,62.4L173.7,62.4z"/>
<path class="st1" d="M186.5,30h6.4v36h11.3v6h-17.7V30z"/>
<path class="st1" d="M209.1,30h6.4v42h-6.4V30z"/>
<path class="st1" d="M221.9,62.4V39.5c0-6.1,4.1-10.1,10.2-10.1c6.1,0,10.2,4.1,10.2,10.1v22.9c0,6.1-4.1,10.1-10.2,10.1
	C226,72.6,221.9,68.5,221.9,62.4z M236,62.4V39.5c0-2.6-1.5-4.1-3.8-4.1s-3.8,1.5-3.8,4.1v22.9c0,2.6,1.5,4.1,3.8,4.1
	S236,65.1,236,62.4L236,62.4z"/>
<g>
	<g>
		<path class="st2" d="M467.1-207.1c-0.5-5.4-4.4-9-10.2-9c-3.4,0-6.2,1.3-8,3.5c-1.4,1.7-2.2,4-2.2,6.6v22.9
			c0,6.1,4.1,10.1,10.2,10.1c6.1,0,10.2-4.1,10.2-10.1V-206C467.1-206.4,467.1-206.8,467.1-207.1z M456.9-179c-2,0-3.5-1.1-3.8-3.2
			c0-0.3-0.1-0.6-0.1-0.9V-206c0-2.6,1.5-4.1,3.8-4.1s3.8,1.5,3.8,4.1v22.9C460.8-180.5,459.3-179,456.9-179z"/>
		<path class="st2" d="M296.6-216.2c-6.1,0-10.2,4.1-10.2,10.1v22.9c0,6.1,4.1,10.1,10.2,10.1c6.1,0,10.2-4.1,10.2-10.1V-206
			C306.8-212.1,302.7-216.2,296.6-216.2z M300.4-183.1c0,2.6-1.5,4.1-3.8,4.1c-2.3,0-3.8-1.5-3.8-4.1V-206c0-2.6,1.5-4.1,3.8-4.1
			s3.8,1.5,3.8,4.1V-183.1z"/>
		<path class="st2" d="M280.6-210.4c0-0.1-0.1-0.1-0.1-0.2c-0.1-0.2-0.2-0.4-0.3-0.6c-0.1-0.1-0.1-0.2-0.2-0.3
			c-0.1-0.1-0.2-0.2-0.3-0.4c-0.1-0.1-0.1-0.2-0.2-0.3c-0.1-0.2-0.3-0.3-0.4-0.5c0,0-0.9-1.1-2.7-1.9c0,0-0.1,0-0.1-0.1
			c-0.4-0.2-0.8-0.3-1.3-0.5c0,0-0.1,0-0.1,0c-0.2-0.1-0.5-0.1-0.8-0.2c-0.1,0-0.2,0-0.3-0.1c-0.2,0-0.5-0.1-0.7-0.1
			c-0.1,0-0.2,0-0.3,0c-0.3,0-0.7,0-1,0h-10v42h6.4v-17h3.6c0,0,0.4,0,1,0c0.1,0,0.2,0,0.3,0c0.1,0,0.1,0,0.2,0
			c1.6-0.2,3-0.6,4.2-1.4c0,0,0,0,0,0c0.1-0.1,0.3-0.2,0.4-0.3c0.1-0.1,0.3-0.2,0.4-0.3c0.1,0,0.1-0.1,0.2-0.1
			c0.2-0.2,0.4-0.3,0.5-0.5c0,0,0.1-0.1,0.1-0.1c0.2-0.2,0.3-0.3,0.4-0.5c0.1-0.1,0.2-0.2,0.2-0.3c0,0,0.1-0.1,0.1-0.1
			c0,0,0.1-0.1,0.2-0.3c0.6-0.9,1-1.9,1.3-3c0-0.1,0.1-0.3,0.1-0.4c0-0.2,0.1-0.4,0.1-0.5c0,0,0,0,0-0.1c0,0,0-0.1,0-0.2
			c0.1-0.6,0.1-1.2,0.1-1.8v-0.5c0-1.3,0.1-3.1,0-5.4C281.6-206.5,281.6-208.4,280.6-210.4z M268-209.6l4,0c1,0.1,1.8,0.6,2.4,1.3
			c0,0,0,0.1,0.1,0.1c0.1,0.1,0.1,0.2,0.2,0.2c0.3,0.4,0.5,1,0.6,1.7c0,0.2,0,0.4,0,0.7v5.2c0,0.1,0,0.3,0,0.4
			c0,0.3-0.1,0.9-0.3,1.4c0,0,0,0.1-0.1,0.1c0,0-0.1,0.1-0.1,0.1c-0.3,0.5-0.7,1-1.3,1.3c-0.5,0.3-1.2,0.5-2.2,0.5H268V-209.6z"/>
		<path class="st2" d="M328.8-192.1c0.1-0.1,0.3-0.2,0.4-0.3c0.1-0.1,0.3-0.2,0.4-0.3c0.1,0,0.1-0.1,0.2-0.1
			c0.2-0.2,0.4-0.3,0.5-0.5c0,0,0.1-0.1,0.1-0.1c0.2-0.2,0.3-0.3,0.4-0.5c0.1-0.1,0.2-0.2,0.2-0.3c0.1-0.1,0.2-0.3,0.3-0.5
			c0.3-0.5,0.9-1.6,1.3-3c0-0.1,0.1-0.3,0.1-0.4c0-0.2,0.1-0.4,0.1-0.5c0-0.1,0-0.2,0-0.2c0-0.3,0.1-1.1,0.1-2.3v-4.4
			c0-1.8-0.4-3.5-1-4.9c0-0.1-0.1-0.1-0.1-0.2c-0.1-0.2-0.2-0.4-0.3-0.6c-0.1-0.1-0.1-0.2-0.2-0.3c-0.1-0.1-0.2-0.2-0.3-0.4
			c-0.1-0.1-0.1-0.2-0.2-0.3c-1.1-1.4-2.7-2.4-4.6-3c0,0-0.1,0-0.1,0c-0.2-0.1-0.5-0.1-0.8-0.2c-0.1,0-0.2,0-0.3-0.1
			c-0.2,0-0.5-0.1-0.7-0.1c-0.1,0-0.2,0-0.3,0c-0.3,0-0.7,0-1,0h-10v42h6.4v-17h3.4l4.5,17l6.6,0L328.8-192.1
			C328.8-192.1,328.8-192.1,328.8-192.1z M319.6-209.6L319.6-209.6L319.6-209.6h3.4c0.2,0,0.5,0,0.7,0c0,0,1.4,0,2.4,1.3
			c0,0,0,0.1,0.1,0.1c0.1,0.1,0.1,0.1,0.2,0.2c0.3,0.5,0.5,1.1,0.6,1.7c0,0,0,0.1,0,0.1l0,5.7c0,0,0,0.2,0,0.4c0,0.1,0,0.2,0,0.3
			c0,0.4-0.2,0.8-0.3,1.1c0,0,0,0.1-0.1,0.1c0,0-0.1,0.1-0.1,0.1c-0.3,0.5-0.7,0.9-1.3,1.3c-0.5,0.3-1,0.5-1.6,0.5
			c-0.2,0-0.4,0-0.6,0h0h-3.3h0l0,0l-0.1,0L319.6-209.6L319.6-209.6z M316.2-176.4l0-0.1l0,0V-176.4z"/>
		<path class="st2" d="M394.7-216.2c-3.1,0-5.6,1-7.4,2.8c-1.8,1.8-2.8,4.3-2.8,7.3v22.9c0,6.1,4.1,10.1,10.2,10.1
			c6.1,0,10.2-4.1,10.2-10.1V-206c0-0.4,0-0.8,0-1.1C404.4-212.6,400.4-216.2,394.7-216.2z M394.7-179c-2,0-3.5-1.1-3.8-3.2
			c0-0.3-0.1-0.6-0.1-0.9V-206c0-2.6,1.5-4.1,3.8-4.1s3.8,1.5,3.8,4.1v22.9C398.5-180.5,397-179,394.7-179z"/>
		<polygon class="st2" points="337.2,-215.6 337.2,-209.6 344.1,-209.6 344.1,-173.6 350.5,-173.6 350.5,-209.6 357.4,-209.6
			357.4,-209.6 357.4,-209.6 357.4,-215.6 357.4,-215.6 		"/>
		<polygon class="st2" points="433.9,-215.6 433.9,-215.6 433.9,-173.6 433.9,-173.6 433.9,-173.6 440.3,-173.6 440.3,-173.6
			440.3,-173.6 440.3,-215.6 440.3,-215.6 		"/>
		<polygon class="st2" points="429,-179.6 429,-179.6 429,-179.6 417.7,-179.6 417.7,-215.6 417.7,-215.6 417.7,-215.6
			411.3,-215.6 411.3,-215.6 411.3,-173.6 411.3,-173.6 429,-173.6 429,-173.6 		"/>
		<polygon class="st2" points="380.1,-215.6 380.1,-215.6 362.4,-215.6 362.4,-173.6 362.4,-173.6 362.4,-173.6 368.8,-173.6
			368.7,-191.3 377.7,-191.3 377.7,-191.3 377.7,-191.3 377.7,-197.3 368.7,-197.3 368.8,-209.6 378.5,-209.6 380.1,-209.6
			380.1,-209.6 380.1,-209.6 380.1,-215.6 380.1,-215.6 		"/>
	</g>
	<path class="st3" d="M328.8-192.1C328.8-192.1,328.8-192.1,328.8-192.1c0.2-0.1,0.3-0.2,0.4-0.3c0.1-0.1,0.3-0.2,0.4-0.3
		c0.1,0,0.1-0.1,0.2-0.1c0.2-0.2,0.4-0.3,0.5-0.5c0,0,0.1-0.1,0.1-0.1c0.2-0.2,0.3-0.3,0.4-0.5c0.1-0.1,0.2-0.2,0.2-0.3
		c0.1-0.1,0.2-0.3,0.3-0.5c0.3-0.5,0.9-1.6,1.3-3c0-0.1,0.1-0.3,0.1-0.4c0-0.2,0.1-0.4,0.1-0.5c0-0.1,0-0.2,0-0.2
		c0-0.3,0.1-1.1,0.1-2.3v-4.4c0-1.8-0.4-3.5-1-4.9c0-0.1-0.1-0.1-0.1-0.2c-0.1-0.2-0.2-0.4-0.3-0.6c-0.1-0.1-0.1-0.2-0.2-0.3
		c-0.1-0.1-0.2-0.2-0.3-0.4c-0.1-0.1-0.1-0.2-0.2-0.3c-1.1-1.4-2.7-2.4-4.6-3c0,0-0.1,0-0.1,0c-0.2-0.1-0.5-0.1-0.8-0.2
		c-0.1,0-0.2,0-0.3-0.1c-0.2,0-0.5-0.1-0.7-0.1c-0.1,0-0.2,0-0.3,0c-0.3,0-0.7,0-1,0h-10v42h6.4v-17h3.4l4.5,17l6.6,0L328.8-192.1z
		 M316.2-176.4l0-0.1l0,0V-176.4z M326.9-200.1c0,0.1,0,0.2,0,0.3c0,0.4-0.2,0.8-0.3,1.1c0,0,0,0.1-0.1,0.1c0,0-0.1,0.1-0.1,0.1
		c-0.3,0.5-0.7,0.9-1.3,1.3c-0.6,0.4-1.4,0.6-2.2,0.5h-3.3l-0.1,0v-13l0,0h0.1h3.3c0.2,0,0.5,0,0.7,0c0,0,1.4,0,2.4,1.3
		c0,0,0,0.1,0.1,0.1c0.1,0.1,0.1,0.1,0.2,0.2c0.3,0.5,0.5,1.1,0.6,1.7c0,0,0,0.1,0,0.1l0,5.7C326.9-200.5,326.9-200.4,326.9-200.1z"
		/>
	<path class="st3" d="M337.2-215.6h20.3v6h-7v36h-6.4v-36h-7L337.2-215.6z"/>
	<path class="st3" d="M362.4-215.6h17.8v6h-11.4v12.3h9v6h-9v17.7h-6.4V-215.6z"/>
	<path class="st3" d="M384.5-183.1V-206c0-6.1,4.1-10.1,10.2-10.1c6.1,0,10.2,4.1,10.2,10.1v22.9c0,6.1-4.1,10.1-10.2,10.1
		C388.6-173,384.5-177.1,384.5-183.1z M398.5-183.1V-206c0-2.6-1.5-4.1-3.8-4.1s-3.8,1.5-3.8,4.1v22.9c0,2.6,1.5,4.1,3.8,4.1
		S398.5-180.5,398.5-183.1L398.5-183.1z"/>
	<path class="st3" d="M411.3-215.6h6.4v36H429v6h-17.7V-215.6z"/>
	<path class="st3" d="M433.9-215.6h6.4v42h-6.4V-215.6z"/>
	<path class="st3" d="M446.7-183.1V-206c0-6.1,4.1-10.1,10.2-10.1c6.1,0,10.2,4.1,10.2,10.1v22.9c0,6.1-4.1,10.1-10.2,10.1
		C450.8-173,446.7-177.1,446.7-183.1z M460.8-183.1V-206c0-2.6-1.5-4.1-3.8-4.1s-3.8,1.5-3.8,4.1v22.9c0,2.6,1.5,4.1,3.8,4.1
		S460.8-180.5,460.8-183.1L460.8-183.1z"/>
	<path class="st3" d="M296.6-216.2c-6.1,0-10.2,4.1-10.2,10.1v22.9c0,6.1,4.1,10.1,10.2,10.1c6.1,0,10.2-4.1,10.2-10.1V-206
		C306.8-212.1,302.7-216.2,296.6-216.2z M296.6-176c0,0-6.6,0.4-6.8-5.8l-0.5-21.5c0,0-0.7-10.2,7.3-9.8c0,0,7.4-0.6,6.8,8.8l0,18.4
		C303.5-185.9,304.2-176,296.6-176z"/>
	<path class="st3" d="M303.4-204.2c0.6-9.4-6.8-8.8-6.8-8.8c-8.1-0.4-7.3,9.8-7.3,9.8l0.5,21.5c0.2,6.2,6.8,5.8,6.8,5.8
		c7.6,0,6.8-9.9,6.8-9.9L303.4-204.2z M300.4-183.1c0,2.6-1.5,4.1-3.8,4.1c-2.3,0-3.8-1.5-3.8-4.1V-206c0-2.6,1.5-4.1,3.8-4.1
		s3.8,1.5,3.8,4.1V-183.1z"/>
	<linearGradient id="SVGID_1_" gradientUnits="userSpaceOnUse" x1="286.4091" y1="-194.5712" x2="306.8075" y2="-194.5712">
		<stop  offset="0" style="stop-color:#80008B"/>
		<stop  offset="1" style="stop-color:#FFFFFF"/>
	</linearGradient>
	<path class="st4" d="M296.6-216.2c-6.1,0-10.2,4.1-10.2,10.1v22.9c0,6.1,4.1,10.1,10.2,10.1c6.1,0,10.2-4.1,10.2-10.1V-206
		C306.8-212.1,302.7-216.2,296.6-216.2z M296.6-176c0,0-6.6,0.4-6.8-5.8l-0.5-21.5c0,0-0.7-10.2,7.3-9.8c0,0,7.4-0.6,6.8,8.8l0,18.4
		C303.5-185.9,304.2-176,296.6-176z"/>
	<linearGradient id="SVGID_2_" gradientUnits="userSpaceOnUse" x1="289.265" y1="-194.5162" x2="303.4716" y2="-194.5162">
		<stop  offset="0" style="stop-color:#FFFFFF"/>
		<stop  offset="1" style="stop-color:#80008B"/>
	</linearGradient>
	<path class="st5" d="M303.4-204.2c0.6-9.4-6.8-8.8-6.8-8.8c-8.1-0.4-7.3,9.8-7.3,9.8l0.5,21.5c0.2,6.2,6.8,5.8,6.8,5.8
		c7.6,0,6.8-9.9,6.8-9.9L303.4-204.2z M300.4-183.1c0,2.6-1.5,4.1-3.8,4.1c-2.3,0-3.8-1.5-3.8-4.1V-206c0-2.6,1.5-4.1,3.8-4.1
		s3.8,1.5,3.8,4.1V-183.1z"/>
	<path class="st3" d="M277.3-192.1c-1.5,0.9-3.1,1.2-4.2,1.4C274.7-190.9,276.1-191.4,277.3-192.1z"/>
	<path class="st3" d="M272.9-190.7c-0.1,0-0.2,0-0.3,0C272.7-190.7,272.8-190.7,272.9-190.7z"/>
	<path class="st3" d="M280.5-210.6c0,0.1,0.1,0.1,0.1,0.2C280.5-210.5,280.5-210.6,280.5-210.6z"/>
	<path class="st3" d="M278.3-192.8c-0.1,0-0.1,0.1-0.2,0.1C278.2-192.7,278.2-192.8,278.3-192.8z"/>
	<path class="st3" d="M277.7-192.4c-0.1,0.1-0.3,0.2-0.4,0.3C277.4-192.2,277.6-192.3,277.7-192.4z"/>
	<path class="st3" d="M281.6-201.1c0,1.2-0.1,2-0.1,2.3c0.1-0.6,0.1-1.2,0.1-1.8V-201.1z"/>
	<path class="st3" d="M273.7-215.4c0.1,0,0.2,0,0.3,0.1C273.9-215.4,273.8-215.4,273.7-215.4z"/>
	<path class="st3" d="M278.9-193.4C278.9-193.4,278.9-193.3,278.9-193.4C278.9-193.3,278.9-193.4,278.9-193.4z"/>
	<path class="st3" d="M274.7-215.2c0,0,0.1,0,0.1,0C274.8-215.2,274.8-215.2,274.7-215.2z"/>
	<path class="st3" d="M279.9-211.6c0.1,0.1,0.1,0.2,0.2,0.3C280.1-211.3,280-211.4,279.9-211.6z"/>
	<path class="st3" d="M279.5-212.2c0.1,0.1,0.1,0.2,0.2,0.3C279.6-212,279.5-212.1,279.5-212.2z"/>
	<path class="st3" d="M272.7-215.5c0.1,0,0.2,0,0.3,0C272.9-215.5,272.8-215.5,272.7-215.5z"/>
	<polygon class="st3" points="264.7,-193.7 264.7,-176.5 268,-173.6 268,-190.6 264.7,-193.7 	"/>
	<path class="st3" d="M281.3-197.7c-0.4,1.4-1,2.5-1.3,3C280.5-195.5,281-196.5,281.3-197.7z"/>
	<path class="st3" d="M281.4-198.6c0,0.2-0.1,0.4-0.1,0.5C281.4-198.2,281.4-198.4,281.4-198.6z"/>
	<path class="st3" d="M279.6-194.2c-0.1,0.1-0.2,0.2-0.2,0.3C279.5-194,279.5-194.1,279.6-194.2z"/>
	<linearGradient id="SVGID_3_" gradientUnits="userSpaceOnUse" x1="261.6894" y1="-210.9238" x2="281.653" y2="-210.9238">
		<stop  offset="0" style="stop-color:#80008B"/>
		<stop  offset="1" style="stop-color:#FFFFFF"/>
	</linearGradient>
	<path class="st6" d="M280.1-211.2c0.1,0.2,0.2,0.4,0.3,0.6C280.4-210.8,280.3-211,280.1-211.2z"/>
	<linearGradient id="SVGID_4_" gradientUnits="userSpaceOnUse" x1="261.6894" y1="-193.6483" x2="281.653" y2="-193.6483">
		<stop  offset="0" style="stop-color:#80008B"/>
		<stop  offset="1" style="stop-color:#FFFFFF"/>
	</linearGradient>
	<path class="st7" d="M279.4-193.9c-0.1,0.2-0.3,0.3-0.4,0.5C279.1-193.6,279.2-193.7,279.4-193.9z"/>
	<linearGradient id="SVGID_5_" gradientUnits="userSpaceOnUse" x1="261.6894" y1="-211.7375" x2="281.653" y2="-211.7375">
		<stop  offset="0" style="stop-color:#80008B"/>
		<stop  offset="1" style="stop-color:#FFFFFF"/>
	</linearGradient>
	<path class="st8" d="M279.7-211.9c0.1,0.1,0.2,0.2,0.3,0.4C279.9-211.7,279.8-211.8,279.7-211.9z"/>
	<linearGradient id="SVGID_6_" gradientUnits="userSpaceOnUse" x1="261.6894" y1="-198.7086" x2="281.653" y2="-198.7086">
		<stop  offset="0" style="stop-color:#80008B"/>
		<stop  offset="1" style="stop-color:#FFFFFF"/>
	</linearGradient>
	<path class="st9" d="M281.5-198.7c0,0,0-0.1,0-0.2C281.5-198.7,281.5-198.7,281.5-198.7C281.4-198.6,281.5-198.6,281.5-198.7z"/>
	<linearGradient id="SVGID_7_" gradientUnits="userSpaceOnUse" x1="261.6894" y1="-215.4521" x2="281.653" y2="-215.4521">
		<stop  offset="0" style="stop-color:#80008B"/>
		<stop  offset="1" style="stop-color:#FFFFFF"/>
	</linearGradient>
	<path class="st10" d="M273-215.5c0.2,0,0.5,0.1,0.7,0.1C273.5-215.4,273.2-215.5,273-215.5z"/>
	<linearGradient id="SVGID_8_" gradientUnits="userSpaceOnUse" x1="261.6894" y1="-205.7812" x2="281.653" y2="-205.7812">
		<stop  offset="0" style="stop-color:#80008B"/>
		<stop  offset="1" style="stop-color:#FFFFFF"/>
	</linearGradient>
	<path class="st11" d="M281.6-201.1c0-1.3,0.1-3.1,0-5.4c0,0,0-1.9-1-3.9c0.7,1.4,1,3,1,4.9V-201.1z"/>
	<linearGradient id="SVGID_9_" gradientUnits="userSpaceOnUse" x1="261.6894" y1="-215.2716" x2="281.653" y2="-215.2716">
		<stop  offset="0" style="stop-color:#80008B"/>
		<stop  offset="1" style="stop-color:#FFFFFF"/>
	</linearGradient>
	<path class="st12" d="M274-215.4c0.3,0,0.5,0.1,0.8,0.2C274.5-215.3,274.2-215.3,274-215.4z"/>
	<linearGradient id="SVGID_10_" gradientUnits="userSpaceOnUse" x1="261.6894" y1="-197.8505" x2="281.653" y2="-197.8505">
		<stop  offset="0" style="stop-color:#80008B"/>
		<stop  offset="1" style="stop-color:#FFFFFF"/>
	</linearGradient>
	<path class="st13" d="M281.3-198c0,0.1-0.1,0.3-0.1,0.4C281.3-197.8,281.3-197.9,281.3-198z"/>
	<linearGradient id="SVGID_11_" gradientUnits="userSpaceOnUse" x1="261.6894" y1="-194.4178" x2="281.653" y2="-194.4178">
		<stop  offset="0" style="stop-color:#80008B"/>
		<stop  offset="1" style="stop-color:#FFFFFF"/>
	</linearGradient>
	<path class="st14" d="M279.7-194.3c0,0,0.1-0.1,0.2-0.3c-0.1,0.2-0.2,0.3-0.3,0.5C279.7-194.2,279.7-194.3,279.7-194.3z"/>
	<linearGradient id="SVGID_12_" gradientUnits="userSpaceOnUse" x1="261.6894" y1="-192.5105" x2="281.653" y2="-192.5105">
		<stop  offset="0" style="stop-color:#80008B"/>
		<stop  offset="1" style="stop-color:#FFFFFF"/>
	</linearGradient>
	<path class="st15" d="M278.1-192.7c-0.1,0.1-0.3,0.2-0.4,0.3C277.8-192.5,278-192.6,278.1-192.7z"/>
	<linearGradient id="SVGID_13_" gradientUnits="userSpaceOnUse" x1="261.6894" y1="-192.0844" x2="281.653" y2="-192.0844">
		<stop  offset="0" style="stop-color:#80008B"/>
		<stop  offset="1" style="stop-color:#FFFFFF"/>
	</linearGradient>
	<path class="st16" d="M277.3-192.1C277.3-192.1,277.3-192.1,277.3-192.1C277.3-192.1,277.3-192.1,277.3-192.1z"/>
	<linearGradient id="SVGID_14_" gradientUnits="userSpaceOnUse" x1="261.6894" y1="-193.0529" x2="281.653" y2="-193.0529">
		<stop  offset="0" style="stop-color:#80008B"/>
		<stop  offset="1" style="stop-color:#FFFFFF"/>
	</linearGradient>
	<path class="st17" d="M278.8-193.3c-0.2,0.2-0.4,0.3-0.5,0.5C278.5-193,278.7-193.1,278.8-193.3z"/>
	<linearGradient id="SVGID_15_" gradientUnits="userSpaceOnUse" x1="261.6894" y1="-190.632" x2="281.653" y2="-190.632">
		<stop  offset="0" style="stop-color:#80008B"/>
		<stop  offset="1" style="stop-color:#FFFFFF"/>
	</linearGradient>
	<path class="st18" d="M272.7-190.7c-0.3,0-0.7,0-1,0C271.6-190.6,272-190.6,272.7-190.7z"/>
	<linearGradient id="SVGID_16_" gradientUnits="userSpaceOnUse" x1="261.6894" y1="-215.5493" x2="281.653" y2="-215.5493">
		<stop  offset="0" style="stop-color:#80008B"/>
		<stop  offset="1" style="stop-color:#FFFFFF"/>
	</linearGradient>
	<path class="st19" d="M271.6-215.6c0.4,0,0.7,0,1,0C272.4-215.6,272-215.6,271.6-215.6z"/>
	<linearGradient id="SVGID_17_" gradientUnits="userSpaceOnUse" x1="261.6894" y1="-213.6778" x2="281.653" y2="-213.6778">
		<stop  offset="0" style="stop-color:#80008B"/>
		<stop  offset="1" style="stop-color:#FFFFFF"/>
	</linearGradient>
	<path class="st20" d="M279.5-212.2c-0.1-0.2-0.3-0.3-0.4-0.5c0,0-1.3-1.7-4.2-2.4C276.8-214.6,278.3-213.6,279.5-212.2z"/>
	<linearGradient id="SVGID_18_" gradientUnits="userSpaceOnUse" x1="261.6894" y1="-190.6904" x2="281.653" y2="-190.6904">
		<stop  offset="0" style="stop-color:#80008B"/>
		<stop  offset="1" style="stop-color:#FFFFFF"/>
	</linearGradient>
	<path class="st21" d="M273.1-190.7c-0.1,0-0.1,0-0.2,0C273-190.7,273-190.7,273.1-190.7z"/>
	<path class="st3" d="M281.6-205.6c0-1.8-0.4-3.5-1-4.9c0-0.1-0.1-0.1-0.1-0.2c-0.1-0.2-0.2-0.4-0.3-0.6c-0.1-0.1-0.1-0.2-0.2-0.3
		c-0.1-0.1-0.2-0.2-0.3-0.4c-0.1-0.1-0.1-0.2-0.2-0.3c-1.1-1.4-2.7-2.4-4.6-3c0,0-0.1,0-0.1,0c-0.2-0.1-0.5-0.1-0.8-0.2
		c-0.1,0-0.2,0-0.3-0.1c-0.2,0-0.5-0.1-0.7-0.1c-0.1,0-0.2,0-0.3,0c-0.3,0-0.7,0-1,0h-10l3,2.8v0h7.8c0,0,5.8,0.7,6,6.5v6.3
		c0,0-0.7,6.6-6,6.2l-7.7,0l3.3,3.1h3.6c0.3,0,0.7,0,1,0c0.1,0,0.2,0,0.3,0c0.1,0,0.1,0,0.2,0c1.1-0.1,2.7-0.5,4.2-1.4c0,0,0,0,0,0
		c0.1-0.1,0.3-0.2,0.4-0.3c0.1-0.1,0.3-0.2,0.4-0.3c0.1,0,0.1-0.1,0.2-0.1c0.2-0.2,0.4-0.3,0.5-0.5c0,0,0.1-0.1,0.1-0.1
		c0.2-0.2,0.3-0.3,0.4-0.5c0.1-0.1,0.2-0.2,0.2-0.3c0.1-0.1,0.2-0.3,0.3-0.5c0.3-0.5,0.9-1.6,1.3-3c0-0.1,0.1-0.3,0.1-0.4
		c0-0.2,0.1-0.4,0.1-0.5c0-0.1,0-0.2,0-0.2c0-0.3,0.1-1.1,0.1-2.3V-205.6z"/>
	<linearGradient id="SVGID_19_" gradientUnits="userSpaceOnUse" x1="261.6893" y1="-203.0912" x2="281.653" y2="-203.0912">
		<stop  offset="0" style="stop-color:#80008B"/>
		<stop  offset="1" style="stop-color:#FFFFFF"/>
	</linearGradient>
	<path class="st22" d="M281.6-205.6c0-1.8-0.4-3.5-1-4.9c0-0.1-0.1-0.1-0.1-0.2c-0.1-0.2-0.2-0.4-0.3-0.6c-0.1-0.1-0.1-0.2-0.2-0.3
		c-0.1-0.1-0.2-0.2-0.3-0.4c-0.1-0.1-0.1-0.2-0.2-0.3c-1.1-1.4-2.7-2.4-4.6-3c0,0-0.1,0-0.1,0c-0.2-0.1-0.5-0.1-0.8-0.2
		c-0.1,0-0.2,0-0.3-0.1c-0.2,0-0.5-0.1-0.7-0.1c-0.1,0-0.2,0-0.3,0c-0.3,0-0.7,0-1,0h-10l3,2.8v0h7.8c0,0,5.8,0.7,6,6.5v6.3
		c0,0-0.7,6.6-6,6.2l-7.7,0l3.3,3.1h3.6c0.3,0,0.7,0,1,0c0.1,0,0.2,0,0.3,0c0.1,0,0.1,0,0.2,0c1.1-0.1,2.7-0.5,4.2-1.4c0,0,0,0,0,0
		c0.1-0.1,0.3-0.2,0.4-0.3c0.1-0.1,0.3-0.2,0.4-0.3c0.1,0,0.1-0.1,0.2-0.1c0.2-0.2,0.4-0.3,0.5-0.5c0,0,0.1-0.1,0.1-0.1
		c0.2-0.2,0.3-0.3,0.4-0.5c0.1-0.1,0.2-0.2,0.2-0.3c0.1-0.1,0.2-0.3,0.3-0.5c0.3-0.5,0.9-1.6,1.3-3c0-0.1,0.1-0.3,0.1-0.4
		c0-0.2,0.1-0.4,0.1-0.5c0-0.1,0-0.2,0-0.2c0-0.3,0.1-1.1,0.1-2.3V-205.6z"/>
	<path class="st3" d="M274.4-208.3c-1-1.2-2.4-1.3-2.4-1.3C273-209.5,273.8-209,274.4-208.3z"/>
	<linearGradient id="SVGID_20_" gradientUnits="userSpaceOnUse" x1="263.9398" y1="-208.9432" x2="278.4671" y2="-208.9432">
		<stop  offset="0" style="stop-color:#80008B"/>
		<stop  offset="1" style="stop-color:#FFFFFF"/>
	</linearGradient>
	<path class="st23" d="M274.4-208.3c-1-1.2-2.4-1.3-2.4-1.3C273-209.5,273.8-209,274.4-208.3z"/>
	<path class="st3" d="M273.5-197.1c0.6-0.3,1-0.8,1.3-1.3C274.5-197.9,274-197.4,273.5-197.1z"/>
	<linearGradient id="SVGID_21_" gradientUnits="userSpaceOnUse" x1="263.9398" y1="-197.7508" x2="278.4671" y2="-197.7508">
		<stop  offset="0" style="stop-color:#80008B"/>
		<stop  offset="1" style="stop-color:#FFFFFF"/>
	</linearGradient>
	<path class="st24" d="M273.5-197.1c0.6-0.3,1-0.8,1.3-1.3C274.5-197.9,274-197.4,273.5-197.1z"/>
	<path class="st3" d="M274.9-198.7c0,0,0,0.1-0.1,0.1C274.9-198.6,274.9-198.6,274.9-198.7z"/>
	<linearGradient id="SVGID_22_" gradientUnits="userSpaceOnUse" x1="263.9398" y1="-198.6124" x2="278.4671" y2="-198.6124">
		<stop  offset="0" style="stop-color:#80008B"/>
		<stop  offset="1" style="stop-color:#FFFFFF"/>
	</linearGradient>
	<path class="st25" d="M274.9-198.7c0,0,0,0.1-0.1,0.1C274.9-198.6,274.9-198.6,274.9-198.7z"/>
	<polygon class="st3" points="268,-196.6 268,-209.6 264.7,-212.7 264.7,-193.8 	"/>
	<polygon class="st26" points="268,-196.6 268,-209.6 264.7,-212.7 264.7,-193.8 	"/>
	<path class="st3" d="M275.2-200.5c0,0.1,0,0.3,0,0.4C275.3-200.4,275.2-200.5,275.2-200.5z"/>
	<linearGradient id="SVGID_23_" gradientUnits="userSpaceOnUse" x1="263.9398" y1="-200.3171" x2="278.4671" y2="-200.3171">
		<stop  offset="0" style="stop-color:#80008B"/>
		<stop  offset="1" style="stop-color:#FFFFFF"/>
	</linearGradient>
	<path class="st27" d="M275.2-200.5c0,0.1,0,0.3,0,0.4C275.3-200.4,275.2-200.5,275.2-200.5z"/>
	<path class="st3" d="M275.2-200.5l0-5.7c0,0,0-0.1,0-0.1c0,0.2,0,0.4,0,0.7V-200.5z"/>
	<linearGradient id="SVGID_24_" gradientUnits="userSpaceOnUse" x1="263.9398" y1="-203.4248" x2="278.4671" y2="-203.4248">
		<stop  offset="0" style="stop-color:#80008B"/>
		<stop  offset="1" style="stop-color:#FFFFFF"/>
	</linearGradient>
	<path class="st28" d="M275.2-200.5l0-5.7c0,0,0-0.1,0-0.1c0,0.2,0,0.4,0,0.7V-200.5z"/>
	<path class="st3" d="M274.5-208.2c0.1,0.1,0.1,0.2,0.2,0.2C274.6-208.1,274.5-208.2,274.5-208.2z"/>
	<linearGradient id="SVGID_25_" gradientUnits="userSpaceOnUse" x1="263.9398" y1="-208.112" x2="278.4671" y2="-208.112">
		<stop  offset="0" style="stop-color:#80008B"/>
		<stop  offset="1" style="stop-color:#FFFFFF"/>
	</linearGradient>
	<path class="st29" d="M274.5-208.2c0.1,0.1,0.1,0.2,0.2,0.2C274.6-208.1,274.5-208.2,274.5-208.2z"/>
	<polygon class="st3" points="264.7,-193.7 264.7,-193.7 264.7,-193.8 	"/>
	<linearGradient id="SVGID_26_" gradientUnits="userSpaceOnUse" x1="263.9398" y1="-193.7526" x2="278.4671" y2="-193.7526">
		<stop  offset="0" style="stop-color:#80008B"/>
		<stop  offset="1" style="stop-color:#FFFFFF"/>
	</linearGradient>
	<polygon class="st30" points="264.7,-193.7 264.7,-193.7 264.7,-193.8 	"/>
	<polygon class="st3" points="261.7,-215.6 261.7,-173.6 264.7,-176.5 264.7,-176.5 264.7,-193.7 264.7,-193.8 264.7,-212.7 	"/>
	<linearGradient id="SVGID_27_" gradientUnits="userSpaceOnUse" x1="261.6894" y1="-209.5793" x2="281.653" y2="-209.5793">
		<stop  offset="0" style="stop-color:#80008B"/>
		<stop  offset="1" style="stop-color:#FFFFFF"/>
	</linearGradient>
	<path class="st31" d="M271.3-209.6H268l4,0C271.8-209.6,271.6-209.6,271.3-209.6z"/>
	<linearGradient id="SVGID_28_" gradientUnits="userSpaceOnUse" x1="263.9398" y1="-209.5793" x2="278.4671" y2="-209.5793">
		<stop  offset="0" style="stop-color:#80008B"/>
		<stop  offset="1" style="stop-color:#FFFFFF"/>
	</linearGradient>
	<path class="st32" d="M271.3-209.6H268l4,0C271.8-209.6,271.6-209.6,271.3-209.6z"/>
	<linearGradient id="SVGID_29_" gradientUnits="userSpaceOnUse" x1="261.6894" y1="-196.8513" x2="281.653" y2="-196.8513">
		<stop  offset="0" style="stop-color:#80008B"/>
		<stop  offset="1" style="stop-color:#FFFFFF"/>
	</linearGradient>
	<path class="st33" d="M273.5-197.1c-0.5,0.3-1.2,0.5-2.2,0.5C272.1-196.5,272.9-196.7,273.5-197.1z"/>
	<linearGradient id="SVGID_30_" gradientUnits="userSpaceOnUse" x1="263.9398" y1="-196.8513" x2="278.4671" y2="-196.8513">
		<stop  offset="0" style="stop-color:#80008B"/>
		<stop  offset="1" style="stop-color:#FFFFFF"/>
	</linearGradient>
	<path class="st34" d="M273.5-197.1c-0.5,0.3-1.2,0.5-2.2,0.5C272.1-196.5,272.9-196.7,273.5-197.1z"/>
	<linearGradient id="SVGID_31_" gradientUnits="userSpaceOnUse" x1="261.6894" y1="-208.2713" x2="281.653" y2="-208.2713">
		<stop  offset="0" style="stop-color:#80008B"/>
		<stop  offset="1" style="stop-color:#FFFFFF"/>
	</linearGradient>
	<path class="st35" d="M274.4-208.3C274.4-208.3,274.5-208.3,274.4-208.3C274.5-208.3,274.4-208.3,274.4-208.3z"/>
	<linearGradient id="SVGID_32_" gradientUnits="userSpaceOnUse" x1="263.9398" y1="-208.2713" x2="278.4671" y2="-208.2713">
		<stop  offset="0" style="stop-color:#80008B"/>
		<stop  offset="1" style="stop-color:#FFFFFF"/>
	</linearGradient>
	<path class="st36" d="M274.4-208.3C274.4-208.3,274.5-208.3,274.4-208.3C274.5-208.3,274.4-208.3,274.4-208.3z"/>
	<linearGradient id="SVGID_33_" gradientUnits="userSpaceOnUse" x1="261.6894" y1="-198.4659" x2="281.653" y2="-198.4659">
		<stop  offset="0" style="stop-color:#80008B"/>
		<stop  offset="1" style="stop-color:#FFFFFF"/>
	</linearGradient>
	<path class="st37" d="M274.9-198.5c0,0-0.1,0.1-0.1,0.1C274.8-198.4,274.8-198.5,274.9-198.5z"/>
	<linearGradient id="SVGID_34_" gradientUnits="userSpaceOnUse" x1="263.9398" y1="-198.4659" x2="278.4671" y2="-198.4659">
		<stop  offset="0" style="stop-color:#80008B"/>
		<stop  offset="1" style="stop-color:#FFFFFF"/>
	</linearGradient>
	<path class="st38" d="M274.9-198.5c0,0-0.1,0.1-0.1,0.1C274.8-198.4,274.8-198.5,274.9-198.5z"/>
	<linearGradient id="SVGID_35_" gradientUnits="userSpaceOnUse" x1="261.6894" y1="-199.4047" x2="281.653" y2="-199.4047">
		<stop  offset="0" style="stop-color:#80008B"/>
		<stop  offset="1" style="stop-color:#FFFFFF"/>
	</linearGradient>
	<path class="st39" d="M275.2-199.8c0-0.1,0-0.2,0-0.3c0,0.3-0.1,0.9-0.3,1.4C275.1-199,275.2-199.4,275.2-199.8z"/>
	<linearGradient id="SVGID_36_" gradientUnits="userSpaceOnUse" x1="263.9398" y1="-199.4047" x2="278.4671" y2="-199.4047">
		<stop  offset="0" style="stop-color:#80008B"/>
		<stop  offset="1" style="stop-color:#FFFFFF"/>
	</linearGradient>
	<path class="st40" d="M275.2-199.8c0-0.1,0-0.2,0-0.3c0,0.3-0.1,0.9-0.3,1.4C275.1-199,275.2-199.4,275.2-199.8z"/>
	<linearGradient id="SVGID_37_" gradientUnits="userSpaceOnUse" x1="261.6894" y1="-207.1678" x2="281.653" y2="-207.1678">
		<stop  offset="0" style="stop-color:#80008B"/>
		<stop  offset="1" style="stop-color:#FFFFFF"/>
	</linearGradient>
	<path class="st41" d="M274.6-208c0.3,0.4,0.5,1,0.6,1.7C275.2-206.9,275-207.5,274.6-208z"/>
	<linearGradient id="SVGID_38_" gradientUnits="userSpaceOnUse" x1="263.9398" y1="-207.1678" x2="278.4671" y2="-207.1678">
		<stop  offset="0" style="stop-color:#80008B"/>
		<stop  offset="1" style="stop-color:#FFFFFF"/>
	</linearGradient>
	<path class="st42" d="M274.6-208c0.3,0.4,0.5,1,0.6,1.7C275.2-206.9,275-207.5,274.6-208z"/>
	<path class="st3" d="M271.3-209.6c0.2,0,0.5,0,0.7,0c0,0,1.4,0,2.4,1.3c0,0,0,0.1,0.1,0.1c0.1,0.1,0.1,0.1,0.2,0.2
		c0.3,0.5,0.5,1.1,0.6,1.7c0,0,0,0.1,0,0.1l0,5.7c0,0,0,0.2,0,0.4c0,0.1,0,0.2,0,0.3c0,0.4-0.2,0.8-0.3,1.1c0,0,0,0.1-0.1,0.1
		c0,0-0.1,0.1-0.1,0.1c-0.3,0.5-0.7,0.9-1.3,1.3c-0.6,0.4-1.4,0.6-2.2,0.5H268l-3.4,2.8l0,0l7.7,0c5.3,0.5,6-6.2,6-6.2v-6.3
		c-0.2-5.8-6-6.5-6-6.5h-7.8v0l3.4,3.2H271.3z"/>
	<linearGradient id="SVGID_39_" gradientUnits="userSpaceOnUse" x1="264.6868" y1="-203.255" x2="278.4671" y2="-203.255">
		<stop  offset="0" style="stop-color:#FFFFFF"/>
		<stop  offset="1" style="stop-color:#80008B"/>
	</linearGradient>
	<path class="st43" d="M271.3-209.6c0.2,0,0.5,0,0.7,0c0,0,1.4,0,2.4,1.3c0,0,0,0.1,0.1,0.1c0.1,0.1,0.1,0.1,0.2,0.2
		c0.3,0.5,0.5,1.1,0.6,1.7c0,0,0,0.1,0,0.1l0,5.7c0,0,0,0.2,0,0.4c0,0.1,0,0.2,0,0.3c0,0.4-0.2,0.8-0.3,1.1c0,0,0,0.1-0.1,0.1
		c0,0-0.1,0.1-0.1,0.1c-0.3,0.5-0.7,0.9-1.3,1.3c-0.6,0.4-1.4,0.6-2.2,0.5H268l-3.4,2.8l0,0l7.7,0c5.3,0.5,6-6.2,6-6.2v-6.3
		c-0.2-5.8-6-6.5-6-6.5h-7.8v0l3.4,3.2H271.3z"/>
	<polygon class="st3" points="264.7,-176.4 264.7,-176.5 261.7,-173.6 268,-173.6 264.7,-176.5 	"/>
	<polygon class="st44" points="264.7,-176.4 264.7,-176.5 261.7,-173.6 268,-173.6 264.7,-176.5 	"/>
	<polygon class="st3" points="264.7,-176.4 264.7,-176.5 264.7,-176.5 	"/>
	<linearGradient id="SVGID_40_" gradientUnits="userSpaceOnUse" x1="263.9398" y1="-176.4469" x2="278.4671" y2="-176.4469">
		<stop  offset="0" style="stop-color:#80008B"/>
		<stop  offset="1" style="stop-color:#FFFFFF"/>
	</linearGradient>
	<polygon class="st45" points="264.7,-176.4 264.7,-176.5 264.7,-176.5 	"/>
	<linearGradient id="SVGID_41_" gradientUnits="userSpaceOnUse" x1="261.6894" y1="-176.4469" x2="268.0497" y2="-176.4469">
		<stop  offset="0" style="stop-color:#80008B"/>
		<stop  offset="1" style="stop-color:#FFFFFF"/>
	</linearGradient>
	<polygon class="st46" points="264.7,-176.4 264.7,-176.5 264.7,-176.5 	"/>
	<polygon class="st47" points="264.7,-193.7 264.7,-176.5 268,-173.6 268,-190.6 264.7,-193.7 	"/>
	<linearGradient id="SVGID_42_" gradientUnits="userSpaceOnUse" x1="284.2213" y1="-194.745" x2="257.6326" y2="-194.5405">
		<stop  offset="0" style="stop-color:#FFFFFF"/>
		<stop  offset="1" style="stop-color:#80008B"/>
	</linearGradient>
	<polygon class="st48" points="261.7,-215.6 261.7,-173.6 264.7,-176.5 264.7,-176.5 264.7,-193.7 264.7,-193.8 264.7,-212.7 	"/>
	<polygon class="st26" points="319.6,-196.6 319.6,-209.6 316.2,-212.7 316.2,-193.8 	"/>
	<linearGradient id="SVGID_43_" gradientUnits="userSpaceOnUse" x1="315.5594" y1="-203.255" x2="330.0868" y2="-203.255">
		<stop  offset="0" style="stop-color:#FFFFFF"/>
		<stop  offset="1" style="stop-color:#80008B"/>
	</linearGradient>
	<path class="st49" d="M323-209.6c0.2,0,0.5,0,0.7,0c0,0,1.4,0,2.4,1.3c0,0,0,0.1,0.1,0.1c0.1,0.1,0.1,0.1,0.2,0.2
		c0.3,0.5,0.5,1.1,0.6,1.7c0,0,0,0.1,0,0.1l0,5.7c0,0,0,0.2,0,0.4c0,0.1,0,0.2,0,0.3c0,0.4-0.2,0.8-0.3,1.1c0,0,0,0.1-0.1,0.1
		c0,0-0.1,0.1-0.1,0.1c-0.3,0.5-0.7,0.9-1.3,1.3c-0.6,0.4-1.4,0.6-2.2,0.5h-3.3l-3.4,2.8l0,0l7.7,0c5.3,0.5,6-6.2,6-6.2v-6.3
		c-0.2-5.8-6-6.5-6-6.5h-7.8v0l3.4,3.2H323z"/>
	<polygon class="st44" points="316.2,-176.4 316.2,-176.5 313.2,-173.6 319.6,-173.6 316.2,-176.5 	"/>
	<polygon class="st47" points="316.2,-193.7 316.2,-176.5 319.6,-173.6 319.6,-190.6 316.3,-193.7 	"/>
	<linearGradient id="SVGID_44_" gradientUnits="userSpaceOnUse" x1="327.5496" y1="-194.048" x2="310.7782" y2="-194.6616">
		<stop  offset="0" style="stop-color:#FFFFFF"/>
		<stop  offset="1" style="stop-color:#80008B"/>
	</linearGradient>
	<polygon class="st50" points="313.2,-215.6 313.2,-173.6 316.2,-176.5 316.2,-176.5 316.2,-193.7 316.2,-193.8 316.2,-212.7 	"/>
	<polygon class="st44" points="327.5,-173.6 330,-176.5 334.1,-173.6 	"/>
	<linearGradient id="SVGID_45_" gradientUnits="userSpaceOnUse" x1="313.2371" y1="-203.0912" x2="333.2007" y2="-203.0912">
		<stop  offset="0" style="stop-color:#80008B"/>
		<stop  offset="1" style="stop-color:#FFFFFF"/>
	</linearGradient>
	<path class="st51" d="M328.8-192.1C328.8-192.1,328.8-192.1,328.8-192.1c0.2-0.1,0.3-0.2,0.4-0.3c0.1-0.1,0.3-0.2,0.4-0.3
		c0.1,0,0.1-0.1,0.2-0.1c0.2-0.2,0.4-0.3,0.5-0.5c0,0,0.1-0.1,0.1-0.1c0.2-0.2,0.3-0.3,0.4-0.5c0.1-0.1,0.2-0.2,0.2-0.3
		c0.1-0.1,0.2-0.3,0.3-0.5c0.3-0.5,0.9-1.6,1.3-3c0-0.1,0.1-0.3,0.1-0.4c0-0.2,0.1-0.4,0.1-0.5c0-0.1,0-0.2,0-0.2
		c0-0.3,0.1-1.1,0.1-2.3v-4.4c0-1.8-0.4-3.5-1-4.9c0-0.1-0.1-0.1-0.1-0.2c-0.1-0.2-0.2-0.4-0.3-0.6c-0.1-0.1-0.1-0.2-0.2-0.3
		c-0.1-0.1-0.2-0.2-0.3-0.4c-0.1-0.1-0.1-0.2-0.2-0.3c-1.1-1.4-2.7-2.4-4.6-3c0,0-0.1,0-0.1,0c-0.2-0.1-0.5-0.1-0.8-0.2
		c-0.1,0-0.2,0-0.3-0.1c-0.2,0-0.5-0.1-0.7-0.1c-0.1,0-0.2,0-0.3,0c-0.3,0-0.7,0-1,0h-10l3,2.8v0h7.8c0,0,5.8,0.7,6,6.5v6.3
		c0,0-0.7,6.6-6,6.2l-7.7,0l3.3,3.1h3.4l2.4-3.2L328.8-192.1z"/>
	<linearGradient id="SVGID_46_" gradientUnits="userSpaceOnUse" x1="341.1729" y1="-186.069" x2="319.4654" y2="-182.5678">
		<stop  offset="0" style="stop-color:#FFFFFF"/>
		<stop  offset="1" style="stop-color:#80008B"/>
	</linearGradient>
	<polygon class="st52" points="326.1,-191 325.4,-193.8 323,-190.6 327.5,-173.6 330,-176.5 	"/>
	<polygon class="st26" points="328.8,-192.1 325.4,-193.8 326.1,-191 330,-176.5 334.1,-173.6 	"/>
	<linearGradient id="SVGID_47_" gradientUnits="userSpaceOnUse" x1="384.5077" y1="-194.5717" x2="404.9061" y2="-194.5717">
		<stop  offset="0" style="stop-color:#80008B"/>
		<stop  offset="1" style="stop-color:#FFFFFF"/>
	</linearGradient>
	<path class="st53" d="M394.7-216.2c-6.1,0-10.2,4.1-10.2,10.1v22.9c0,6.1,4.1,10.1,10.2,10.1c6.1,0,10.2-4.1,10.2-10.1V-206
		C404.9-212.1,400.8-216.2,394.7-216.2z M394.7-176c0,0-6.6,0.4-6.8-5.8l-0.5-21.5c0,0-0.7-10.2,7.3-9.8c0,0,7.4-0.6,6.8,8.8l0,18.4
		C401.6-185.9,402.3-176,394.7-176z"/>
	<linearGradient id="SVGID_48_" gradientUnits="userSpaceOnUse" x1="387.3636" y1="-194.5167" x2="401.5702" y2="-194.5167">
		<stop  offset="0" style="stop-color:#FFFFFF"/>
		<stop  offset="1" style="stop-color:#80008B"/>
	</linearGradient>
	<path class="st54" d="M401.5-204.2c0.6-9.4-6.8-8.8-6.8-8.8c-8.1-0.4-7.3,9.8-7.3,9.8l0.5,21.5c0.2,6.2,6.8,5.8,6.8,5.8
		c7.6,0,6.8-9.9,6.8-9.9L401.5-204.2z M398.5-183.1c0,2.6-1.5,4.1-3.8,4.1c-2.3,0-3.8-1.5-3.8-4.1V-206c0-2.6,1.5-4.1,3.8-4.1
		s3.8,1.5,3.8,4.1V-183.1z"/>
	<linearGradient id="SVGID_49_" gradientUnits="userSpaceOnUse" x1="446.7265" y1="-194.572" x2="467.1248" y2="-194.572">
		<stop  offset="0" style="stop-color:#80008B"/>
		<stop  offset="1" style="stop-color:#FFFFFF"/>
	</linearGradient>
	<path class="st55" d="M456.9-216.2c-6.1,0-10.2,4.1-10.2,10.1v22.9c0,6.1,4.1,10.1,10.2,10.1c6.1,0,10.2-4.1,10.2-10.1V-206
		C467.1-212.1,463-216.2,456.9-216.2z M456.9-176c0,0-6.6,0.4-6.8-5.8l-0.5-21.5c0,0-0.7-10.2,7.3-9.8c0,0,7.4-0.6,6.8,8.8l0,18.4
		C463.8-185.9,464.5-176,456.9-176z"/>
	<linearGradient id="SVGID_50_" gradientUnits="userSpaceOnUse" x1="449.5824" y1="-194.517" x2="463.7889" y2="-194.517">
		<stop  offset="0" style="stop-color:#FFFFFF"/>
		<stop  offset="1" style="stop-color:#80008B"/>
	</linearGradient>
	<path class="st56" d="M463.7-204.2c0.6-9.4-6.8-8.8-6.8-8.8c-8.1-0.4-7.3,9.8-7.3,9.8l0.5,21.5c0.2,6.2,6.8,5.8,6.8,5.8
		c7.6,0,6.8-9.9,6.8-9.9L463.7-204.2z M460.8-183.1c0,2.6-1.5,4.1-3.8,4.1c-2.3,0-3.8-1.5-3.8-4.1V-206c0-2.6,1.5-4.1,3.8-4.1
		s3.8,1.5,3.8,4.1V-183.1z"/>
	<polygon class="st44" points="344.1,-173.6 347.3,-176.5 350.5,-173.6 	"/>
	<linearGradient id="SVGID_51_" gradientUnits="userSpaceOnUse" x1="359.6853" y1="-193.7389" x2="341.7676" y2="-192.8719">
		<stop  offset="0" style="stop-color:#FFFFFF"/>
		<stop  offset="1" style="stop-color:#80008B"/>
	</linearGradient>
	<polygon class="st57" points="347.3,-212.6 347.3,-176.5 344.1,-173.6 344.1,-209.6 	"/>
	<linearGradient id="SVGID_52_" gradientUnits="userSpaceOnUse" x1="360.4434" y1="-193.363" x2="347.2612" y2="-193.0206">
		<stop  offset="0" style="stop-color:#80008B"/>
		<stop  offset="1" style="stop-color:#FFFFFF"/>
	</linearGradient>
	<polygon class="st58" points="350.5,-209.6 350.5,-173.6 347.3,-176.5 347.3,-212.6 	"/>
	<polygon class="st3" points="337.2,-215.6 339.8,-212.6 337.2,-209.6 	"/>
	<polygon class="st26" points="357.4,-209.6 357.4,-215.6 354.8,-212.6 	"/>
	<linearGradient id="SVGID_53_" gradientUnits="userSpaceOnUse" x1="344.3559" y1="-221.0312" x2="351.37" y2="-208.055">
		<stop  offset="0" style="stop-color:#80008B"/>
		<stop  offset="1" style="stop-color:#FFFFFF"/>
	</linearGradient>
	<polygon class="st59" points="339.8,-212.6 354.8,-212.6 357.4,-215.6 337.2,-215.6 	"/>
	<linearGradient id="SVGID_54_" gradientUnits="userSpaceOnUse" x1="360.8628" y1="-207.68" x2="330.6518" y2="-220.1318">
		<stop  offset="0" style="stop-color:#80008B"/>
		<stop  offset="1" style="stop-color:#FFFFFF"/>
	</linearGradient>
	<polygon class="st60" points="347.3,-212.6 350.5,-209.6 357.4,-209.6 354.8,-212.6 	"/>
	<linearGradient id="SVGID_55_" gradientUnits="userSpaceOnUse" x1="359.3498" y1="-204.0091" x2="329.1388" y2="-216.4609">
		<stop  offset="0" style="stop-color:#80008B"/>
		<stop  offset="1" style="stop-color:#FFFFFF"/>
	</linearGradient>
	<polygon class="st61" points="347.3,-212.6 339.8,-212.6 337.2,-209.6 344.1,-209.6 	"/>
	<polygon class="st44" points="433.9,-173.6 437.1,-176.5 440.3,-173.6 	"/>
	<polygon class="st3" points="437.1,-212.6 437.1,-176.5 433.9,-173.6 433.9,-215.6 	"/>
	<linearGradient id="SVGID_56_" gradientUnits="userSpaceOnUse" x1="455.2844" y1="-195.4325" x2="437.4827" y2="-194.4094">
		<stop  offset="0" style="stop-color:#80008B"/>
		<stop  offset="8.746715e-02" style="stop-color:#84078E"/>
		<stop  offset="0.2166" style="stop-color:#8E1B97"/>
		<stop  offset="0.3717" style="stop-color:#9E3CA6"/>
		<stop  offset="0.5469" style="stop-color:#B469BB"/>
		<stop  offset="0.7388" style="stop-color:#D2A4D5"/>
		<stop  offset="0.9418" style="stop-color:#F4EAF5"/>
		<stop  offset="1" style="stop-color:#FFFFFF"/>
	</linearGradient>
	<polygon class="st62" points="440.3,-215.6 440.3,-173.6 437.1,-176.5 437.1,-212.6 	"/>
	<polygon class="st44" points="440.3,-215.6 437.1,-212.6 433.9,-215.6 	"/>
	<linearGradient id="SVGID_57_" gradientUnits="userSpaceOnUse" x1="424.5689" y1="-194.249" x2="409.7382" y2="-194.6107">
		<stop  offset="0" style="stop-color:#FFFFFF"/>
		<stop  offset="1" style="stop-color:#80008B"/>
	</linearGradient>
	<polygon class="st63" points="414.5,-212.6 414.5,-176.5 411.3,-173.6 411.3,-215.6 	"/>
	<linearGradient id="SVGID_58_" gradientUnits="userSpaceOnUse" x1="427.7795" y1="-195.63" x2="416.1163" y2="-196.0392">
		<stop  offset="0" style="stop-color:#80008B"/>
		<stop  offset="8.505811e-02" style="stop-color:#84098F"/>
		<stop  offset="0.2214" style="stop-color:#90209A"/>
		<stop  offset="0.3921" style="stop-color:#A346AB"/>
		<stop  offset="0.5903" style="stop-color:#BE7BC3"/>
		<stop  offset="0.8089" style="stop-color:#DFBEE2"/>
		<stop  offset="1" style="stop-color:#FFFFFF"/>
	</linearGradient>
	<polygon class="st64" points="417.7,-215.6 417.7,-179.6 414.5,-176.5 414.5,-212.6 	"/>
	<polygon class="st44" points="417.7,-215.6 414.5,-212.6 411.3,-215.6 	"/>
	<polygon class="st26" points="429,-173.6 429,-179.6 426.4,-176.6 	"/>
	<linearGradient id="SVGID_59_" gradientUnits="userSpaceOnUse" x1="412.3599" y1="-187.8646" x2="429.7503" y2="-169.7012">
		<stop  offset="0" style="stop-color:#80008B"/>
		<stop  offset="1" style="stop-color:#FFFFFF"/>
	</linearGradient>
	<polygon class="st65" points="414.5,-176.5 426.4,-176.6 429,-179.6 417.7,-179.6 	"/>
	<polygon class="st44" points="414.5,-176.5 411.3,-173.6 429,-173.6 426.4,-176.6 	"/>

		<linearGradient id="SVGID_60_" gradientUnits="userSpaceOnUse" x1="375.6402" y1="-102.2481" x2="360.8095" y2="-102.6098" gradientTransform="matrix(1 0 0 -1 0 -297.1426)">
		<stop  offset="0" style="stop-color:#FFFFFF"/>
		<stop  offset="1" style="stop-color:#80008B"/>
	</linearGradient>
	<polygon class="st66" points="365.6,-176.5 365.6,-212.6 362.4,-215.6 362.4,-173.6 	"/>
	<polygon class="st44" points="368.8,-173.6 365.6,-176.5 362.4,-173.6 	"/>
	<polygon class="st26" points="380.1,-215.6 380.1,-209.6 377.5,-212.6 	"/>

		<linearGradient id="SVGID_61_" gradientUnits="userSpaceOnUse" x1="363.4312" y1="-95.8637" x2="380.8216" y2="-77.7003" gradientTransform="matrix(1 0 0 -1 0 -297.1426)">
		<stop  offset="0" style="stop-color:#80008B"/>
		<stop  offset="1" style="stop-color:#FFFFFF"/>
	</linearGradient>
	<polygon class="st67" points="365.6,-212.6 377.5,-212.6 380.1,-209.6 368.8,-209.6 	"/>
	<polygon class="st44" points="365.6,-212.6 362.4,-215.6 380.1,-215.6 377.5,-212.6 	"/>
	<polygon class="st26" points="377.7,-197.3 377.7,-191.3 375.1,-194.3 	"/>
	<polygon class="st44" points="375.1,-194.3 365.6,-194.3 368.7,-197.3 377.7,-197.3 	"/>
	<linearGradient id="SVGID_62_" gradientUnits="userSpaceOnUse" x1="381.5463" y1="-203.5837" x2="366.1492" y2="-203.4713">
		<stop  offset="0" style="stop-color:#80008B"/>
		<stop  offset="1" style="stop-color:#FFFFFF"/>
	</linearGradient>
	<polygon class="st68" points="365.6,-212.6 368.8,-209.6 368.7,-197.3 365.6,-194.3 	"/>
	<linearGradient id="SVGID_63_" gradientUnits="userSpaceOnUse" x1="362.3034" y1="-179.2025" x2="375.6775" y2="-198.6455">
		<stop  offset="0" style="stop-color:#80008B"/>
		<stop  offset="1" style="stop-color:#FFFFFF"/>
	</linearGradient>
	<polygon class="st69" points="377.7,-191.3 375.1,-194.3 365.6,-194.3 368.7,-191.3 	"/>
	<linearGradient id="SVGID_64_" gradientUnits="userSpaceOnUse" x1="381.6889" y1="-184.0421" x2="366.2919" y2="-183.9297">
		<stop  offset="0" style="stop-color:#80008B"/>
		<stop  offset="1" style="stop-color:#FFFFFF"/>
	</linearGradient>
	<polygon class="st70" points="368.8,-173.6 365.6,-176.5 365.6,-194.3 368.7,-191.3 	"/>
</g>
<g class="st71">
	<path class="st2" d="M471.4-104.4c-0.5-5.4-4.4-9-10.2-9c-3.4,0-6.2,1.3-8,3.5c-1.4,1.7-2.2,4-2.2,6.6v22.9
		c0,6.1,4.1,10.1,10.2,10.1c6.1,0,10.2-4.1,10.2-10.1v-22.9C471.5-103.7,471.5-104.1,471.4-104.4z M461.3-76.3c-2,0-3.5-1.1-3.8-3.2
		c0-0.3-0.1-0.6-0.1-0.9v-22.9c0-2.6,1.5-4.1,3.8-4.1s3.8,1.5,3.8,4.1v22.9C465.1-77.8,463.6-76.3,461.3-76.3z"/>
	<path class="st2" d="M301-113.5c-6.1,0-10.2,4.1-10.2,10.1v22.9c0,6.1,4.1,10.1,10.2,10.1c6.1,0,10.2-4.1,10.2-10.1v-22.9
		C311.2-109.4,307.1-113.5,301-113.5z M304.8-80.4c0,2.6-1.5,4.1-3.8,4.1c-2.3,0-3.8-1.5-3.8-4.1v-22.9c0-2.6,1.5-4.1,3.8-4.1
		s3.8,1.5,3.8,4.1V-80.4z"/>
	<path class="st2" d="M284.9-107.7c0-0.1-0.1-0.1-0.1-0.2c-0.1-0.2-0.2-0.4-0.3-0.6c-0.1-0.1-0.1-0.2-0.2-0.3
		c-0.1-0.1-0.2-0.2-0.3-0.4c-0.1-0.1-0.1-0.2-0.2-0.3c-0.1-0.2-0.3-0.3-0.4-0.5c0,0-0.9-1.1-2.7-1.9c0,0-0.1,0-0.1-0.1
		c-0.4-0.2-0.8-0.3-1.3-0.5c0,0-0.1,0-0.1,0c-0.2-0.1-0.5-0.1-0.8-0.2c-0.1,0-0.2,0-0.3-0.1c-0.2,0-0.5-0.1-0.7-0.1
		c-0.1,0-0.2,0-0.3,0c-0.3,0-0.7,0-1,0h-10v42h6.4v-17h3.6c0,0,0.4,0,1,0c0.1,0,0.2,0,0.3,0c0.1,0,0.1,0,0.2,0
		c1.6-0.2,3-0.6,4.2-1.4c0,0,0,0,0,0c0.1-0.1,0.3-0.2,0.4-0.3c0.1-0.1,0.3-0.2,0.4-0.3c0.1,0,0.1-0.1,0.2-0.1
		c0.2-0.2,0.4-0.3,0.5-0.5c0,0,0.1-0.1,0.1-0.1c0.2-0.2,0.3-0.3,0.4-0.5c0.1-0.1,0.2-0.2,0.2-0.3c0,0,0.1-0.1,0.1-0.1
		c0,0,0.1-0.1,0.2-0.3c0.6-0.9,1-1.9,1.3-3c0-0.1,0.1-0.3,0.1-0.4c0-0.2,0.1-0.4,0.1-0.5c0,0,0,0,0-0.1c0,0,0-0.1,0-0.2
		c0.1-0.6,0.1-1.2,0.1-1.8v-0.5c0-1.3,0.1-3.1,0-5.4C286-103.8,285.9-105.7,284.9-107.7z M272.4-106.9l4,0c1,0.1,1.8,0.6,2.4,1.3
		c0,0,0,0.1,0.1,0.1c0.1,0.1,0.1,0.2,0.2,0.2c0.3,0.4,0.5,1,0.6,1.7c0,0.2,0,0.4,0,0.7v5.2c0,0.1,0,0.3,0,0.4c0,0.3-0.1,0.9-0.3,1.4
		c0,0,0,0.1-0.1,0.1c0,0-0.1,0.1-0.1,0.1c-0.3,0.5-0.7,1-1.3,1.3c-0.5,0.3-1.2,0.5-2.2,0.5h-3.3V-106.9z"/>
	<path class="st2" d="M333.2-89.4c0.1-0.1,0.3-0.2,0.4-0.3c0.1-0.1,0.3-0.2,0.4-0.3c0.1,0,0.1-0.1,0.2-0.1c0.2-0.2,0.4-0.3,0.5-0.5
		c0,0,0.1-0.1,0.1-0.1c0.2-0.2,0.3-0.3,0.4-0.5c0.1-0.1,0.2-0.2,0.2-0.3c0.1-0.1,0.2-0.3,0.3-0.5c0.3-0.5,0.9-1.6,1.3-3
		c0-0.1,0.1-0.3,0.1-0.4c0-0.2,0.1-0.4,0.1-0.5c0-0.1,0-0.2,0-0.2c0-0.3,0.1-1.1,0.1-2.3v-4.4c0-1.8-0.4-3.5-1-4.9
		c0-0.1-0.1-0.1-0.1-0.2c-0.1-0.2-0.2-0.4-0.3-0.6c-0.1-0.1-0.1-0.2-0.2-0.3c-0.1-0.1-0.2-0.2-0.3-0.4c-0.1-0.1-0.1-0.2-0.2-0.3
		c-1.1-1.4-2.7-2.4-4.6-3c0,0-0.1,0-0.1,0c-0.2-0.1-0.5-0.1-0.8-0.2c-0.1,0-0.2,0-0.3-0.1c-0.2,0-0.5-0.1-0.7-0.1
		c-0.1,0-0.2,0-0.3,0c-0.3,0-0.7,0-1,0h-10v42h6.4v-17h3.4l4.5,17l6.6,0L333.2-89.4C333.2-89.4,333.2-89.4,333.2-89.4z M323.9-106.9
		L323.9-106.9L323.9-106.9h3.4c0.2,0,0.5,0,0.7,0c0,0,1.4,0,2.4,1.3c0,0,0,0.1,0.1,0.1c0.1,0.1,0.1,0.1,0.2,0.2
		c0.3,0.5,0.5,1.1,0.6,1.7c0,0,0,0.1,0,0.1l0,5.7c0,0,0,0.2,0,0.4c0,0.1,0,0.2,0,0.3c0,0.4-0.2,0.8-0.3,1.1c0,0,0,0.1-0.1,0.1
		c0,0-0.1,0.1-0.1,0.1c-0.3,0.5-0.7,0.9-1.3,1.3c-0.5,0.3-1,0.5-1.6,0.5c-0.2,0-0.4,0-0.6,0h0H324h0l0,0l-0.1,0L323.9-106.9
		L323.9-106.9z M320.6-73.7l0-0.1l0,0V-73.7z"/>
	<path class="st2" d="M399.1-113.5c-3.1,0-5.6,1-7.4,2.8c-1.8,1.8-2.8,4.3-2.8,7.3v22.9c0,6.1,4.1,10.1,10.2,10.1
		c6.1,0,10.2-4.1,10.2-10.1v-22.9c0-0.4,0-0.8,0-1.1C408.7-109.9,404.8-113.5,399.1-113.5z M399.1-76.3c-2,0-3.5-1.1-3.8-3.2
		c0-0.3-0.1-0.6-0.1-0.9v-22.9c0-2.6,1.5-4.1,3.8-4.1s3.8,1.5,3.8,4.1v22.9C402.9-77.8,401.4-76.3,399.1-76.3z"/>
	<polygon class="st2" points="341.5,-112.9 341.5,-106.9 348.5,-106.9 348.5,-70.9 354.8,-70.9 354.8,-106.9 361.8,-106.9
		361.8,-106.9 361.8,-106.9 361.8,-112.9 361.8,-112.9 	"/>
	<polygon class="st2" points="438.3,-112.9 438.3,-112.9 438.3,-70.9 438.3,-70.9 438.3,-70.9 444.7,-70.9 444.7,-70.9 444.7,-70.9
		444.7,-112.9 444.7,-112.9 	"/>
	<polygon class="st2" points="433.4,-76.9 433.4,-76.9 433.4,-76.9 422,-76.9 422,-112.9 422,-112.9 422,-112.9 415.7,-112.9
		415.7,-112.9 415.7,-70.9 415.7,-70.9 433.4,-70.9 433.4,-70.9 	"/>
	<polygon class="st2" points="384.4,-112.9 384.4,-112.9 366.7,-112.9 366.7,-70.9 366.7,-70.9 366.7,-70.9 373.1,-70.9
		373.1,-88.6 382.1,-88.6 382.1,-88.6 382.1,-88.6 382.1,-94.6 373.1,-94.6 373.1,-106.9 382.8,-106.9 384.4,-106.9 384.4,-106.9
		384.5,-106.9 384.5,-112.9 384.4,-112.9 	"/>
</g>
<g>
	<linearGradient id="SVGID_65_" gradientUnits="userSpaceOnUse" x1="715.5103" y1="-61.4218" x2="704.7928" y2="-186.4575">
		<stop  offset="0" style="stop-color:#FFFFFF"/>
		<stop  offset="0.9988" style="stop-color:#80008B"/>
	</linearGradient>
	<path class="st72" d="M721.6-133.7c-0.5-5.4-4.4-9-10.2-9c-0.2,0-0.3,0-0.5,0c-0.2,0-0.4,0-0.5,0c-0.2,0-0.3,0-0.5,0
		c-0.2,0-0.4,0-0.5,0c-3.4,0-6.2,1.3-8,3.5c-1.4,1.7-2.2,4-2.2,6.6v1v1v20.9v1v1c0,6.1,4.1,10.1,10.2,10.1c0.2,0,0.3,0,0.5,0
		c0.2,0,0.3,0,0.5,0s0.3,0,0.5,0c0.2,0,0.3,0,0.5,0c6.1,0,10.2-4.1,10.2-10.1v-1v-1v-20.9v-1v-1C721.7-133,721.7-133.4,721.6-133.7z
		 M707.7-108.8c0-0.3-0.1-0.6-0.1-0.9v-20.9c0-2.2,1.1-3.6,2.8-4c1.8,0.4,2.8,1.8,2.8,4v20.9c0,2.2-1.1,3.6-2.8,4
		C709-106,708-107.1,707.7-108.8z"/>
	<linearGradient id="SVGID_66_" gradientUnits="userSpaceOnUse" x1="556.3626" y1="-47.7805" x2="545.6453" y2="-172.8163">
		<stop  offset="0" style="stop-color:#FFFFFF"/>
		<stop  offset="0.9988" style="stop-color:#80008B"/>
	</linearGradient>
	<path class="st73" d="M551.2-142.8c-0.2,0-0.3,0-0.5,0c-0.2,0-0.3,0-0.5,0s-0.3,0-0.5,0c-0.2,0-0.3,0-0.5,0
		c-6.1,0-10.2,4.1-10.2,10.1v1v1v20.9v1v1c0,6.1,4.1,10.1,10.2,10.1c0.2,0,0.3,0,0.5,0c0.2,0,0.3,0,0.5,0s0.3,0,0.5,0
		c0.2,0,0.3,0,0.5,0c6.1,0,10.2-4.1,10.2-10.1v-1v-1v-20.9v-1v-1C561.4-138.7,557.3-142.8,551.2-142.8z M547.3-130.6
		c0-2.2,1.1-3.6,2.8-4c1.8,0.4,2.8,1.8,2.8,4v20.9c0,2.2-1.1,3.6-2.8,4c-1.8-0.4-2.8-1.8-2.8-4V-130.6z"/>
	<linearGradient id="SVGID_67_" gradientUnits="userSpaceOnUse" x1="531.202" y1="-45.6239" x2="520.4846" y2="-170.6597">
		<stop  offset="0" style="stop-color:#FFFFFF"/>
		<stop  offset="0.9988" style="stop-color:#80008B"/>
	</linearGradient>
	<path class="st74" d="M536.2-133.1c0,0,0-1.9-1-3.9c0-0.1-0.1-0.1-0.1-0.2c-0.1-0.2-0.2-0.4-0.3-0.6c-0.1-0.1-0.1-0.2-0.2-0.3
		c-0.1-0.1-0.2-0.2-0.3-0.4c-0.1-0.1-0.1-0.2-0.2-0.3c-0.1-0.2-0.3-0.3-0.4-0.5c0,0-0.9-1.1-2.7-1.9c0,0-0.1,0-0.1-0.1
		c-0.4-0.2-0.8-0.3-1.3-0.5c0,0-0.1,0-0.1,0c-0.2-0.1-0.5-0.1-0.8-0.2c-0.1,0-0.2,0-0.3-0.1c-0.2,0-0.5-0.1-0.7-0.1
		c-0.1,0-0.2,0-0.3,0c-0.3,0-0.7,0-1,0h-1h-1h-8h-1h-1v1v1v40v1v1h1h1h4.4h1h1v-1v-1v-15h1.6c0,0,0.1,0,0.2,0h0.8c0,0,0.1,0,0.2,0
		h0.8c0,0,0.4,0,1,0c0.1,0,0.2,0,0.3,0c0.1,0,0.1,0,0.2,0c1.6-0.2,3-0.6,4.2-1.4c0,0,0,0,0,0c0.1-0.1,0.3-0.2,0.4-0.3
		c0.1-0.1,0.3-0.2,0.4-0.3c0.1,0,0.1-0.1,0.2-0.1c0.2-0.2,0.4-0.3,0.5-0.5c0,0,0.1-0.1,0.1-0.1c0.2-0.2,0.3-0.3,0.4-0.5
		c0.1-0.1,0.2-0.2,0.2-0.3c0,0,0.1-0.1,0.1-0.1c0,0,0.1-0.1,0.2-0.3c0.6-0.9,1-1.9,1.3-3c0-0.1,0.1-0.3,0.1-0.4
		c0-0.2,0.1-0.4,0.1-0.5c0,0,0,0,0-0.1c0,0,0-0.1,0-0.2c0.1-0.6,0.1-1.2,0.1-1.8v-0.5c0-0.8,0-1.8,0-3c0-0.3,0-0.7,0-1
		C536.2-130.7,536.2-131.8,536.2-133.1z M522.6-134.2l2,0c1,0.1,1.8,0.6,2.4,1.3c0,0,0,0.1,0.1,0.1c0.1,0.1,0.1,0.2,0.2,0.2
		c0.3,0.4,0.5,1,0.6,1.7c0,0.2,0,0.4,0,0.7v3.2v0.4c0,0.3-0.1,0.9-0.3,1.4c0,0,0,0.1-0.1,0.1c0,0-0.1,0.1-0.1,0.1
		c-0.3,0.5-0.7,1-1.3,1.3c-0.5,0.3-1.2,0.5-2.2,0.5h-1.3V-134.2z"/>
	<linearGradient id="SVGID_68_" gradientUnits="userSpaceOnUse" x1="582.3553" y1="-50.0085" x2="571.6379" y2="-175.0442">
		<stop  offset="0" style="stop-color:#FFFFFF"/>
		<stop  offset="0.9988" style="stop-color:#80008B"/>
	</linearGradient>
	<path class="st75" d="M583.9-117c0.1-0.1,0.2-0.2,0.4-0.3c0.1,0,0.1-0.1,0.2-0.1c0.2-0.2,0.4-0.3,0.5-0.5c0,0,0.1-0.1,0.1-0.1
		c0.2-0.2,0.3-0.3,0.4-0.5c0.1-0.1,0.2-0.2,0.2-0.3c0.1-0.1,0.2-0.3,0.3-0.5c0.3-0.5,0.9-1.6,1.3-3c0-0.1,0.1-0.3,0.1-0.4
		c0-0.2,0.1-0.4,0.1-0.5c0-0.1,0-0.2,0-0.2c0-0.3,0.1-1.1,0.1-2.3v-1v-1v-2.4v-1v-1c0-1.8-0.4-3.5-1-4.9c0-0.1-0.1-0.1-0.1-0.2
		c-0.1-0.2-0.2-0.4-0.3-0.6c-0.1-0.1-0.1-0.2-0.2-0.3c-0.1-0.1-0.2-0.2-0.3-0.4c-0.1-0.1-0.1-0.2-0.2-0.3c-1.1-1.4-2.7-2.4-4.6-3
		c0,0-0.1,0-0.1,0c-0.2-0.1-0.5-0.1-0.8-0.2c-0.1,0-0.2,0-0.3-0.1c-0.2,0-0.5-0.1-0.7-0.1c-0.1,0-0.2,0-0.3,0c-0.3,0-0.7,0-1,0h-1
		h-1h-8h-1h-1v1v1v40v1v1h1h1h4.4h1h1v-1v-1v-15h1.4l4.5,17l6.6,0l0,0h1l0,0h1l0.6,0l-3.3-11.5L583.9-117z M574.1-134.2L574.1-134.2
		L574.1-134.2L574.1-134.2l1.4,0c0.2,0,0.5,0,0.7,0c0,0,1.4,0,2.4,1.3c0,0,0,0.1,0.1,0.1c0.1,0.1,0.1,0.1,0.2,0.2
		c0.3,0.5,0.5,1.1,0.6,1.7c0,0,0,0,0,0.1l0,3.8c0,0,0,0,0,0.1l0,0.2c0,0,0,0.1,0,0.2c0,0.1,0,0.2,0,0.3c0,0.4-0.2,0.8-0.3,1.1
		c0,0,0,0.1-0.1,0.1c0,0-0.1,0.1-0.1,0.1c-0.3,0.5-0.7,0.9-1.3,1.3c-0.5,0.3-1,0.5-1.5,0.5h-0.6h0h-1.3h0h-0.1V-134.2z"/>
	<linearGradient id="SVGID_69_" gradientUnits="userSpaceOnUse" x1="653.7452" y1="-56.1276" x2="643.0279" y2="-181.1634">
		<stop  offset="0" style="stop-color:#FFFFFF"/>
		<stop  offset="0.9988" style="stop-color:#80008B"/>
	</linearGradient>
	<path class="st76" d="M649.3-142.8c-0.2,0-0.3,0-0.5,0c-0.2,0-0.3,0-0.5,0c-0.2,0-0.3,0-0.5,0c-0.2,0-0.3,0-0.5,0
		c-3.1,0-5.6,1-7.4,2.8c-1.8,1.8-2.8,4.3-2.8,7.3v1v1v20.9v1v1c0,6.1,4.1,10.1,10.2,10.1c0.2,0,0.3,0,0.5,0c0.2,0,0.3,0,0.5,0
		s0.3,0,0.5,0c0.2,0,0.3,0,0.5,0c6.1,0,10.2-4.1,10.2-10.1v-1v-1v-20.9v-1v-1c0-0.4,0-0.8,0-1.1C658.9-139.2,655-142.8,649.3-142.8z
		 M645.5-108.8c0-0.3-0.1-0.6-0.1-0.9v-20.9c0-2.2,1.1-3.6,2.8-4c1.8,0.4,2.8,1.8,2.8,4v20.9c0,2.2-1.1,3.6-2.8,4
		C646.8-106,645.7-107.1,645.5-108.8z"/>
	<linearGradient id="SVGID_70_" gradientUnits="userSpaceOnUse" x1="608.2236" y1="-52.2258" x2="597.5062" y2="-177.2615">
		<stop  offset="0" style="stop-color:#FFFFFF"/>
		<stop  offset="0.9988" style="stop-color:#80008B"/>
	</linearGradient>
	<polygon class="st77" points="611,-142.2 611,-142.2 610,-142.2 610,-142.2 591.7,-142.2 590.7,-142.2 589.7,-142.2 589.7,-136.2
		589.7,-136.2 589.7,-135.2 589.7,-135.2 589.7,-134.2 590.7,-134.2 591.7,-134.2 596.7,-134.2 596.7,-100.2 596.7,-99.2
		596.7,-98.2 597.7,-98.2 598.7,-98.2 603,-98.2 604,-98.2 605,-98.2 605,-99.2 605,-100.2 605,-134.2 610,-134.2 611,-134.2
		612,-134.2 612,-134.2 612,-135.2 612,-135.2 612,-136.2 612,-136.2 612,-140.2 612,-141.2 612,-142.2 612,-142.2 	"/>
	<linearGradient id="SVGID_71_" gradientUnits="userSpaceOnUse" x1="695.8558" y1="-59.7371" x2="685.1385" y2="-184.7728">
		<stop  offset="0" style="stop-color:#FFFFFF"/>
		<stop  offset="0.9988" style="stop-color:#80008B"/>
	</linearGradient>
	<polygon class="st78" points="693.9,-142.2 693.9,-142.2 692.9,-142.2 692.9,-142.2 688.5,-142.2 688.5,-142.2 687.5,-142.2
		687.5,-142.2 686.5,-142.2 686.5,-142.2 686.5,-141.2 686.5,-140.2 686.5,-100.2 686.5,-99.2 686.5,-98.2 686.5,-98.2 686.5,-98.2
		687.5,-98.2 688.5,-98.2 692.9,-98.2 693.9,-98.2 694.9,-98.2 694.9,-98.2 694.9,-98.2 694.9,-99.2 694.9,-100.2 694.9,-140.2
		694.9,-141.2 694.9,-142.2 694.9,-142.2 	"/>
	<linearGradient id="SVGID_72_" gradientUnits="userSpaceOnUse" x1="677.4973" y1="-58.1635" x2="666.7799" y2="-183.1992">
		<stop  offset="0" style="stop-color:#FFFFFF"/>
		<stop  offset="0.9988" style="stop-color:#80008B"/>
	</linearGradient>
	<polygon class="st79" points="683.6,-106.2 683.6,-106.2 683.6,-106.2 682.6,-106.2 682.6,-106.2 681.6,-106.2 681.6,-106.2
		672.2,-106.2 672.2,-140.2 672.2,-141.2 672.2,-142.2 672.2,-142.2 672.2,-142.2 671.2,-142.2 670.2,-142.2 665.9,-142.2
		664.9,-142.2 663.9,-142.2 663.9,-142.2 663.9,-141.2 663.9,-141.2 663.9,-140.2 663.9,-140.2 663.9,-100.2 663.9,-100.2
		663.9,-99.2 663.9,-99.2 663.9,-98.2 663.9,-98.2 664.9,-98.2 665.9,-98.2 681.6,-98.2 681.6,-98.2 681.6,-98.2 682.6,-98.2
		682.6,-98.2 682.6,-98.2 683.6,-98.2 683.6,-98.2 683.6,-99.2 683.6,-99.2 683.6,-100.2 683.6,-100.2 	"/>
	<linearGradient id="SVGID_73_" gradientUnits="userSpaceOnUse" x1="630.457" y1="-54.1315" x2="619.7396" y2="-179.1672">
		<stop  offset="0" style="stop-color:#FFFFFF"/>
		<stop  offset="0.9988" style="stop-color:#80008B"/>
	</linearGradient>
	<polygon class="st80" points="634.6,-142.2 634.6,-142.2 633.7,-142.2 633.6,-142.2 633.6,-142.2 633.6,-142.2 632.7,-142.2
		632.6,-142.2 632.6,-142.2 632.6,-142.2 616.9,-142.2 615.9,-142.2 614.9,-142.2 614.9,-141.2 614.9,-140.2 614.9,-100.2
		614.9,-99.2 614.9,-98.2 614.9,-98.2 614.9,-98.2 615.9,-98.2 616.9,-98.2 621.3,-98.2 622.3,-98.2 623.3,-98.2 623.3,-99.2
		623.3,-99.2 623.3,-100.2 623.3,-100.2 623.3,-115.9 630.3,-115.9 631.3,-115.9 632.3,-115.9 632.3,-115.9 632.3,-115.9
		632.3,-121.9 632.3,-121.9 632.3,-122.9 632.3,-122.9 632.3,-123.9 631.3,-123.9 631.3,-123.9 630.3,-123.9 630.3,-123.9
		623.3,-123.9 623.3,-134.2 631,-134.2 632.6,-134.2 632.6,-134.2 633.6,-134.2 633.6,-134.2 634.6,-134.2 634.6,-134.2
		634.7,-134.2 634.7,-135.2 634.7,-136.2 634.7,-140.2 634.7,-141.2 634.7,-142.2 634.6,-142.2 	"/>
</g>
<g class="st81">
	<path class="st82" d="M232.3,29.4c-6.1,0-10.2,4.1-10.2,10.1v22.9c0,6.1,4.1,10.1,10.2,10.1c6.1,0,10.2-4.1,10.2-10.1V39.5
		C242.5,33.4,238.5,29.4,232.3,29.4z M236.2,62.4c0,2.6-1.5,4.1-3.8,4.1c-2.3,0-3.8-1.5-3.8-4.1V39.5c0-2.6,1.5-4.1,3.8-4.1
		s3.8,1.5,3.8,4.1V62.4z"/>
	<path class="st83" d="M232.3,29.3c-6.1,0-10.2,4.1-10.2,10.1v22.9c0,6.1,4.1,10.1,10.2,10.1c6.1,0,10.2-4.1,10.2-10.1V39.4
		C242.5,33.4,238.5,29.3,232.3,29.3z M232.3,69.5c0,0-6.6,0.4-6.8-5.8L225,42.2c0,0-0.7-10.2,7.3-9.8c0,0,7.4-0.6,6.8,8.8l0,18.4
		C239.2,59.6,239.9,69.5,232.3,69.5z"/>
	<path class="st83" d="M239.2,41.2c0.6-9.4-6.8-8.8-6.8-8.8c-8.1-0.4-7.3,9.8-7.3,9.8l0.5,21.5c0.2,6.2,6.8,5.8,6.8,5.8
		c7.6,0,6.8-9.9,6.8-9.9L239.2,41.2z M236.2,62.4c0,2.6-1.5,4.1-3.8,4.1c-2.3,0-3.8-1.5-3.8-4.1V39.4c0-2.6,1.5-4.1,3.8-4.1
		s3.8,1.5,3.8,4.1V62.4z"/>
	<linearGradient id="SVGID_74_" gradientUnits="userSpaceOnUse" x1="222.1441" y1="50.8914" x2="242.5425" y2="50.8914">
		<stop  offset="0" style="stop-color:#363636"/>
		<stop  offset="1" style="stop-color:#FFFFFF"/>
	</linearGradient>
	<path class="st84" d="M232.3,29.3c-6.1,0-10.2,4.1-10.2,10.1v22.9c0,6.1,4.1,10.1,10.2,10.1c6.1,0,10.2-4.1,10.2-10.1V39.4
		C242.5,33.4,238.5,29.3,232.3,29.3z M232.3,69.5c0,0-6.6,0.4-6.8-5.8L225,42.2c0,0-0.7-10.2,7.3-9.8c0,0,7.4-0.6,6.8,8.8l0,18.4
		C239.2,59.6,239.9,69.5,232.3,69.5z"/>
	<linearGradient id="SVGID_75_" gradientUnits="userSpaceOnUse" x1="225" y1="50.9464" x2="239.2066" y2="50.9464">
		<stop  offset="0" style="stop-color:#FFFFFF"/>
		<stop  offset="1" style="stop-color:#363636"/>
	</linearGradient>
	<path class="st85" d="M239.2,41.2c0.6-9.4-6.8-8.8-6.8-8.8c-8.1-0.4-7.3,9.8-7.3,9.8l0.5,21.5c0.2,6.2,6.8,5.8,6.8,5.8
		c7.6,0,6.8-9.9,6.8-9.9L239.2,41.2z M236.2,62.4c0,2.6-1.5,4.1-3.8,4.1c-2.3,0-3.8-1.5-3.8-4.1V39.4c0-2.6,1.5-4.1,3.8-4.1
		s3.8,1.5,3.8,4.1V62.4z"/>
	<path class="st82" d="M170.1,29.4c-6.1,0-10.2,4.1-10.2,10.1v22.9c0,6.1,4.1,10.1,10.2,10.1c6.1,0,10.2-4.1,10.2-10.1V39.5
		C180.3,33.5,176.2,29.4,170.1,29.4z M174,62.4c0,2.6-1.5,4.1-3.8,4.1c-2.3,0-3.8-1.5-3.8-4.1V39.5c0-2.6,1.5-4.1,3.8-4.1
		s3.8,1.5,3.8,4.1V62.4z"/>
	<path class="st83" d="M170.1,29.3c-6.1,0-10.2,4.1-10.2,10.1v22.9c0,6.1,4.1,10.1,10.2,10.1c6.1,0,10.2-4.1,10.2-10.1V39.4
		C180.3,33.4,176.2,29.3,170.1,29.3z M170.1,69.5c0,0-6.6,0.4-6.8-5.8l-0.5-21.5c0,0-0.7-10.2,7.3-9.8c0,0,7.4-0.6,6.8,8.8l0,18.4
		C177,59.6,177.7,69.5,170.1,69.5z"/>
	<path class="st83" d="M176.9,41.2c0.6-9.4-6.8-8.8-6.8-8.8c-8.1-0.4-7.3,9.8-7.3,9.8l0.5,21.5c0.2,6.2,6.8,5.8,6.8,5.8
		c7.6,0,6.8-9.9,6.8-9.9L176.9,41.2z M174,62.4c0,2.6-1.5,4.1-3.8,4.1c-2.3,0-3.8-1.5-3.8-4.1V39.4c0-2.6,1.5-4.1,3.8-4.1
		s3.8,1.5,3.8,4.1V62.4z"/>
	<linearGradient id="SVGID_76_" gradientUnits="userSpaceOnUse" x1="159.9254" y1="50.9088" x2="180.3238" y2="50.9088">
		<stop  offset="0" style="stop-color:#363636"/>
		<stop  offset="1" style="stop-color:#FFFFFF"/>
	</linearGradient>
	<path class="st86" d="M170.1,29.3c-6.1,0-10.2,4.1-10.2,10.1v22.9c0,6.1,4.1,10.1,10.2,10.1c6.1,0,10.2-4.1,10.2-10.1V39.4
		C180.3,33.4,176.2,29.3,170.1,29.3z M170.1,69.5c0,0-6.6,0.4-6.8-5.8l-0.5-21.5c0,0-0.7-10.2,7.3-9.8c0,0,7.4-0.6,6.8,8.8l0,18.4
		C177,59.6,177.7,69.5,170.1,69.5z"/>
	<linearGradient id="SVGID_77_" gradientUnits="userSpaceOnUse" x1="162.7813" y1="50.9638" x2="176.9878" y2="50.9638">
		<stop  offset="0" style="stop-color:#FFFFFF"/>
		<stop  offset="1" style="stop-color:#363636"/>
	</linearGradient>
	<path class="st87" d="M176.9,41.2c0.6-9.4-6.8-8.8-6.8-8.8c-8.1-0.4-7.3,9.8-7.3,9.8l0.5,21.5c0.2,6.2,6.8,5.8,6.8,5.8
		c7.6,0,6.8-9.9,6.8-9.9L176.9,41.2z M174,62.4c0,2.6-1.5,4.1-3.8,4.1c-2.3,0-3.8-1.5-3.8-4.1V39.4c0-2.6,1.5-4.1,3.8-4.1
		s3.8,1.5,3.8,4.1V62.4z"/>
	<path class="st82" d="M72,29.3c-6.1,0-10.2,4.1-10.2,10.1v22.9c0,6.1,4.1,10.1,10.2,10.1c6.1,0,10.2-4.1,10.2-10.1V39.5
		C82.2,33.4,78.1,29.3,72,29.3z M75.9,62.4c0,2.6-1.5,4.1-3.8,4.1c-2.3,0-3.8-1.5-3.8-4.1V39.5c0-2.6,1.5-4.1,3.8-4.1
		s3.8,1.5,3.8,4.1V62.4z"/>
	<path class="st82" d="M56,35.1c0-0.1-0.1-0.1-0.1-0.2c-0.1-0.2-0.2-0.4-0.3-0.6c-0.1-0.1-0.1-0.2-0.2-0.3c-0.1-0.1-0.2-0.2-0.3-0.4
		c-0.1-0.1-0.1-0.2-0.2-0.3c-0.1-0.2-0.3-0.3-0.4-0.5c0,0-0.9-1.1-2.7-1.9c0,0-0.1,0-0.1-0.1c-0.4-0.2-0.8-0.3-1.3-0.5
		c0,0-0.1,0-0.1,0c-0.2-0.1-0.5-0.1-0.8-0.2c-0.1,0-0.2,0-0.3-0.1c-0.2,0-0.5-0.1-0.7-0.1c-0.1,0-0.2,0-0.3,0c-0.3,0-0.7,0-1,0h-10
		v42h6.4v-17h3.6c0,0,0.4,0,1,0c0.1,0,0.2,0,0.3,0c0.1,0,0.1,0,0.2,0c1.6-0.2,3-0.6,4.2-1.4c0,0,0,0,0,0c0.1-0.1,0.3-0.2,0.4-0.3
		c0.1-0.1,0.3-0.2,0.4-0.3c0.1,0,0.1-0.1,0.2-0.1c0.2-0.2,0.4-0.3,0.5-0.5c0,0,0.1-0.1,0.1-0.1c0.2-0.2,0.3-0.3,0.4-0.5
		c0.1-0.1,0.2-0.2,0.2-0.3c0,0,0.1-0.1,0.1-0.1c0,0,0.1-0.1,0.2-0.3c0.6-0.9,1-1.9,1.3-3c0-0.1,0.1-0.3,0.1-0.4
		c0-0.2,0.1-0.4,0.1-0.5c0,0,0,0,0-0.1c0,0,0-0.1,0-0.2c0.1-0.6,0.1-1.2,0.1-1.8v-0.5c0-1.3,0.1-3.1,0-5.4C57,39,57,37.1,56,35.1z
		 M43.5,35.9l4,0c1,0.1,1.8,0.6,2.4,1.3c0,0,0,0.1,0.1,0.1c0.1,0.1,0.1,0.2,0.2,0.2c0.3,0.4,0.5,1,0.6,1.7c0,0.2,0,0.4,0,0.7V45
		c0,0.1,0,0.3,0,0.4c0,0.3-0.1,0.9-0.3,1.4c0,0,0,0.1-0.1,0.1c0,0-0.1,0.1-0.1,0.1c-0.3,0.5-0.7,1-1.3,1.3c-0.5,0.3-1.2,0.5-2.2,0.5
		h-3.3V35.9z"/>
	<path class="st82" d="M104.3,53.4c0.1-0.1,0.3-0.2,0.4-0.3c0.1-0.1,0.3-0.2,0.4-0.3c0.1,0,0.1-0.1,0.2-0.1c0.2-0.2,0.4-0.3,0.5-0.5
		c0,0,0.1-0.1,0.1-0.1c0.2-0.2,0.3-0.3,0.4-0.5c0.1-0.1,0.2-0.2,0.2-0.3c0.1-0.1,0.2-0.3,0.3-0.5c0.3-0.5,0.9-1.6,1.3-3
		c0-0.1,0.1-0.3,0.1-0.4c0-0.2,0.1-0.4,0.1-0.5c0-0.1,0-0.2,0-0.2c0-0.3,0.1-1.1,0.1-2.3V40c0-1.8-0.4-3.5-1-4.9
		c0-0.1-0.1-0.1-0.1-0.2c-0.1-0.2-0.2-0.4-0.3-0.6c-0.1-0.1-0.1-0.2-0.2-0.3c-0.1-0.1-0.2-0.2-0.3-0.4c-0.1-0.1-0.1-0.2-0.2-0.3
		c-1.1-1.4-2.7-2.4-4.6-3c0,0-0.1,0-0.1,0c-0.2-0.1-0.5-0.1-0.8-0.2c-0.1,0-0.2,0-0.3-0.1c-0.2,0-0.5-0.1-0.7-0.1
		c-0.1,0-0.2,0-0.3,0c-0.3,0-0.7,0-1,0h-10v42H95v-17h3.4l4.5,17l6.6,0L104.3,53.4C104.3,53.4,104.3,53.4,104.3,53.4z M95,35.9
		L95,35.9L95,35.9h3.4c0.2,0,0.5,0,0.7,0c0,0,1.4,0,2.4,1.3c0,0,0,0.1,0.1,0.1c0.1,0.1,0.1,0.1,0.2,0.2c0.3,0.5,0.5,1.1,0.6,1.7
		c0,0,0,0.1,0,0.1l0,5.7c0,0,0,0.2,0,0.4c0,0.1,0,0.2,0,0.3c0,0.4-0.2,0.8-0.3,1.1c0,0,0,0.1-0.1,0.1c0,0-0.1,0.1-0.1,0.1
		c-0.3,0.5-0.7,0.9-1.3,1.3c-0.5,0.3-1,0.5-1.6,0.5c-0.2,0-0.4,0-0.6,0h0h-3.3h0l0,0l-0.1,0L95,35.9L95,35.9z M91.7,69.1l0-0.1l0,0
		V69.1z"/>
	<polygon class="st82" points="112.6,29.9 112.6,35.9 119.5,35.9 119.5,71.9 125.9,71.9 125.9,35.9 132.9,35.9 132.9,35.9
		132.9,35.9 132.9,29.9 132.9,29.9 	"/>
	<polygon class="st82" points="209.4,29.9 209.4,29.9 209.4,71.9 209.4,71.9 209.4,71.9 215.7,71.9 215.7,71.9 215.7,71.9
		215.7,29.9 215.7,29.9 	"/>
	<polygon class="st82" points="204.4,65.9 204.4,65.9 204.4,65.9 193.1,65.9 193.1,29.9 193.1,29.9 193.1,29.9 186.7,29.9
		186.7,29.9 186.7,71.9 186.7,71.9 204.4,71.9 204.4,71.9 	"/>
	<polygon class="st82" points="155.5,29.9 155.5,29.9 137.8,29.9 137.8,71.9 137.8,71.9 137.8,71.9 144.2,71.9 144.1,54.2
		153.1,54.2 153.1,54.2 153.2,54.2 153.2,48.2 144.1,48.2 144.2,35.9 153.9,35.9 155.5,35.9 155.5,35.9 155.5,35.9 155.5,29.9
		155.5,29.9 	"/>
	<path class="st83" d="M104.2,53.4C104.3,53.4,104.3,53.4,104.2,53.4c0.2-0.1,0.3-0.2,0.4-0.3c0.1-0.1,0.3-0.2,0.4-0.3
		c0.1,0,0.1-0.1,0.2-0.1c0.2-0.2,0.4-0.3,0.5-0.5c0,0,0.1-0.1,0.1-0.1c0.2-0.2,0.3-0.3,0.4-0.5c0.1-0.1,0.2-0.2,0.2-0.3
		c0.1-0.1,0.2-0.3,0.3-0.5c0.3-0.5,0.9-1.6,1.3-3c0-0.1,0.1-0.3,0.1-0.4c0-0.2,0.1-0.4,0.1-0.5c0-0.1,0-0.2,0-0.2
		c0-0.3,0.1-1.1,0.1-2.3V40c0-1.8-0.4-3.5-1-4.9c0-0.1-0.1-0.1-0.1-0.2c-0.1-0.2-0.2-0.4-0.3-0.6c-0.1-0.1-0.1-0.2-0.2-0.3
		c-0.1-0.1-0.2-0.2-0.3-0.4c-0.1-0.1-0.1-0.2-0.2-0.3c-1.1-1.4-2.7-2.4-4.6-3c0,0-0.1,0-0.1,0c-0.2-0.1-0.5-0.1-0.8-0.2
		c-0.1,0-0.2,0-0.3-0.1c-0.2,0-0.5-0.1-0.7-0.1c-0.1,0-0.2,0-0.3,0c-0.3,0-0.7,0-1,0h-10v42H95v-17h3.4l4.5,17l6.6,0L104.2,53.4z
		 M91.7,69.1l0-0.1l0,0V69.1z M102.3,45.4c0,0.1,0,0.2,0,0.3c0,0.4-0.2,0.8-0.3,1.1c0,0,0,0.1-0.1,0.1c0,0-0.1,0.1-0.1,0.1
		c-0.3,0.5-0.7,0.9-1.3,1.3c-0.6,0.4-1.4,0.6-2.2,0.5h-3.3l-0.1,0v-13l0,0h0.1h3.3c0.2,0,0.5,0,0.7,0c0,0,1.4,0,2.4,1.3
		c0,0,0,0.1,0.1,0.1c0.1,0.1,0.1,0.1,0.2,0.2c0.3,0.5,0.5,1.1,0.6,1.7c0,0,0,0.1,0,0.1l0,5.7C102.3,45,102.3,45.1,102.3,45.4z"/>
	<path class="st83" d="M112.6,29.9h20.3v6h-7v36h-6.4v-36h-7L112.6,29.9z"/>
	<path class="st83" d="M137.8,29.9h17.8v6h-11.4v12.3h9v6h-9v17.7h-6.4V29.9z"/>
	<path class="st83" d="M186.7,29.9h6.4v36h11.3v6h-17.7V29.9z"/>
	<path class="st83" d="M209.4,29.9h6.4v42h-6.4V29.9z"/>
	<path class="st83" d="M72,29.3c-6.1,0-10.2,4.1-10.2,10.1v22.9c0,6.1,4.1,10.1,10.2,10.1c6.1,0,10.2-4.1,10.2-10.1V39.4
		C82.2,33.4,78.1,29.3,72,29.3z M72,69.5c0,0-6.6,0.4-6.8-5.8l-0.5-21.5c0,0-0.7-10.2,7.3-9.8c0,0,7.4-0.6,6.8,8.8l0,18.4
		C78.9,59.6,79.6,69.5,72,69.5z"/>
	<path class="st83" d="M78.8,41.2c0.6-9.4-6.8-8.8-6.8-8.8c-8.1-0.4-7.3,9.8-7.3,9.8l0.5,21.5c0.2,6.2,6.8,5.8,6.8,5.8
		c7.6,0,6.8-9.9,6.8-9.9L78.8,41.2z M75.9,62.3c0,2.6-1.5,4.1-3.8,4.1c-2.3,0-3.8-1.5-3.8-4.1V39.4c0-2.6,1.5-4.1,3.8-4.1
		s3.8,1.5,3.8,4.1V62.3z"/>
	<linearGradient id="SVGID_78_" gradientUnits="userSpaceOnUse" x1="61.8273" y1="50.8738" x2="82.2257" y2="50.8738">
		<stop  offset="0" style="stop-color:#363636"/>
		<stop  offset="1" style="stop-color:#FFFFFF"/>
	</linearGradient>
	<path class="st88" d="M72,29.3c-6.1,0-10.2,4.1-10.2,10.1v22.9c0,6.1,4.1,10.1,10.2,10.1c6.1,0,10.2-4.1,10.2-10.1V39.4
		C82.2,33.4,78.1,29.3,72,29.3z M72,69.5c0,0-6.6,0.4-6.8-5.8l-0.5-21.5c0,0-0.7-10.2,7.3-9.8c0,0,7.4-0.6,6.8,8.8l0,18.4
		C78.9,59.6,79.6,69.5,72,69.5z"/>
	<linearGradient id="SVGID_79_" gradientUnits="userSpaceOnUse" x1="64.6832" y1="50.9287" x2="78.8897" y2="50.9287">
		<stop  offset="0" style="stop-color:#FFFFFF"/>
		<stop  offset="1" style="stop-color:#363636"/>
	</linearGradient>
	<path class="st89" d="M78.8,41.2c0.6-9.4-6.8-8.8-6.8-8.8c-8.1-0.4-7.3,9.8-7.3,9.8l0.5,21.5c0.2,6.2,6.8,5.8,6.8,5.8
		c7.6,0,6.8-9.9,6.8-9.9L78.8,41.2z M75.9,62.3c0,2.6-1.5,4.1-3.8,4.1c-2.3,0-3.8-1.5-3.8-4.1V39.4c0-2.6,1.5-4.1,3.8-4.1
		s3.8,1.5,3.8,4.1V62.3z"/>
	<path class="st3" d="M52.7,53.4c-1.5,0.9-3.1,1.2-4.2,1.4C50.1,54.6,51.5,54.2,52.7,53.4z"/>
	<path class="st3" d="M48.4,54.8c-0.1,0-0.2,0-0.3,0C48.2,54.9,48.3,54.8,48.4,54.8z"/>
	<path class="st3" d="M55.9,34.9c0,0.1,0.1,0.1,0.1,0.2C56,35,55.9,35,55.9,34.9z"/>
	<path class="st3" d="M53.7,52.7c-0.1,0-0.1,0.1-0.2,0.1C53.6,52.8,53.7,52.8,53.7,52.7z"/>
	<path class="st3" d="M53.1,53.2c-0.1,0.1-0.3,0.2-0.4,0.3C52.9,53.3,53,53.3,53.1,53.2z"/>
	<path class="st3" d="M49.1,30.1c0.1,0,0.2,0,0.3,0.1C49.3,30.1,49.2,30.1,49.1,30.1z"/>
	<path class="st3" d="M54.4,52.1C54.3,52.2,54.3,52.2,54.4,52.1C54.3,52.2,54.3,52.2,54.4,52.1z"/>
	<path class="st3" d="M50.1,30.3c0,0,0.1,0,0.1,0C50.2,30.4,50.2,30.3,50.1,30.3z"/>
	<path class="st3" d="M55.4,34c0.1,0.1,0.1,0.2,0.2,0.3C55.5,34.2,55.4,34.1,55.4,34z"/>
	<path class="st3" d="M54.9,33.3c0.1,0.1,0.1,0.2,0.2,0.3C55,33.5,55,33.4,54.9,33.3z"/>
	<path class="st3" d="M48.1,30c0.1,0,0.2,0,0.3,0C48.3,30,48.2,30,48.1,30z"/>
	<polygon class="st83" points="40.1,51.8 40.1,69 43.5,71.9 43.5,54.9 40.1,51.8 	"/>
	<path class="st3" d="M56.7,47.9c-0.4,1.4-1,2.5-1.3,3C56,50,56.4,49,56.7,47.9z"/>
	<path class="st3" d="M56.9,46.9c0,0.2-0.1,0.4-0.1,0.5C56.8,47.3,56.8,47.1,56.9,46.9z"/>
	<path class="st3" d="M55,51.3c-0.1,0.1-0.2,0.2-0.2,0.3C54.9,51.5,55,51.4,55,51.3z"/>
	<linearGradient id="SVGID_80_" gradientUnits="userSpaceOnUse" x1="37.1075" y1="34.5933" x2="57.0712" y2="34.5933">
		<stop  offset="0" style="stop-color:#80008B"/>
		<stop  offset="1" style="stop-color:#FFFFFF"/>
	</linearGradient>
	<path class="st90" d="M55.6,34.3c0.1,0.2,0.2,0.4,0.3,0.6C55.8,34.7,55.7,34.5,55.6,34.3z"/>
	<linearGradient id="SVGID_81_" gradientUnits="userSpaceOnUse" x1="37.1075" y1="51.8687" x2="57.0712" y2="51.8687">
		<stop  offset="0" style="stop-color:#80008B"/>
		<stop  offset="1" style="stop-color:#FFFFFF"/>
	</linearGradient>
	<path class="st91" d="M54.8,51.6c-0.1,0.2-0.3,0.3-0.4,0.5C54.5,52,54.7,51.8,54.8,51.6z"/>
	<linearGradient id="SVGID_82_" gradientUnits="userSpaceOnUse" x1="37.1075" y1="33.7796" x2="57.0712" y2="33.7796">
		<stop  offset="0" style="stop-color:#80008B"/>
		<stop  offset="1" style="stop-color:#FFFFFF"/>
	</linearGradient>
	<path class="st92" d="M55.1,33.6c0.1,0.1,0.2,0.2,0.3,0.4C55.3,33.8,55.2,33.7,55.1,33.6z"/>
	<linearGradient id="SVGID_83_" gradientUnits="userSpaceOnUse" x1="37.1075" y1="46.8084" x2="57.0712" y2="46.8084">
		<stop  offset="0" style="stop-color:#80008B"/>
		<stop  offset="1" style="stop-color:#FFFFFF"/>
	</linearGradient>
	<path class="st93" d="M56.9,46.9c0,0,0-0.1,0-0.2C56.9,46.8,56.9,46.9,56.9,46.9C56.9,46.9,56.9,46.9,56.9,46.9z"/>
	<linearGradient id="SVGID_84_" gradientUnits="userSpaceOnUse" x1="37.1075" y1="30.0649" x2="57.0712" y2="30.0649">
		<stop  offset="0" style="stop-color:#80008B"/>
		<stop  offset="1" style="stop-color:#FFFFFF"/>
	</linearGradient>
	<path class="st94" d="M48.4,30c0.2,0,0.5,0.1,0.7,0.1C48.9,30.1,48.6,30,48.4,30z"/>
	<linearGradient id="SVGID_85_" gradientUnits="userSpaceOnUse" x1="37.1075" y1="39.7358" x2="57.0712" y2="39.7358">
		<stop  offset="0" style="stop-color:#80008B"/>
		<stop  offset="1" style="stop-color:#FFFFFF"/>
	</linearGradient>
	<path class="st95" d="M57,44.4c0-1.3,0.1-3.1,0-5.4c0,0,0-1.9-1-3.9c0.7,1.4,1,3,1,4.9V44.4z"/>
	<linearGradient id="SVGID_86_" gradientUnits="userSpaceOnUse" x1="37.1075" y1="30.2455" x2="57.0712" y2="30.2455">
		<stop  offset="0" style="stop-color:#80008B"/>
		<stop  offset="1" style="stop-color:#FFFFFF"/>
	</linearGradient>
	<path class="st96" d="M49.4,30.2c0.3,0,0.5,0.1,0.8,0.2C49.9,30.3,49.6,30.2,49.4,30.2z"/>
	<linearGradient id="SVGID_87_" gradientUnits="userSpaceOnUse" x1="37.1075" y1="47.6666" x2="57.0712" y2="47.6666">
		<stop  offset="0" style="stop-color:#80008B"/>
		<stop  offset="1" style="stop-color:#FFFFFF"/>
	</linearGradient>
	<path class="st97" d="M56.8,47.5c0,0.1-0.1,0.3-0.1,0.4C56.7,47.7,56.7,47.6,56.8,47.5z"/>
	<linearGradient id="SVGID_88_" gradientUnits="userSpaceOnUse" x1="37.1075" y1="51.0993" x2="57.0712" y2="51.0993">
		<stop  offset="0" style="stop-color:#80008B"/>
		<stop  offset="1" style="stop-color:#FFFFFF"/>
	</linearGradient>
	<path class="st98" d="M55.1,51.2c0,0,0.1-0.1,0.2-0.3c-0.1,0.2-0.2,0.3-0.3,0.5C55.1,51.3,55.1,51.2,55.1,51.2z"/>
	<linearGradient id="SVGID_89_" gradientUnits="userSpaceOnUse" x1="37.1075" y1="53.0066" x2="57.0712" y2="53.0066">
		<stop  offset="0" style="stop-color:#80008B"/>
		<stop  offset="1" style="stop-color:#FFFFFF"/>
	</linearGradient>
	<path class="st99" d="M53.5,52.9c-0.1,0.1-0.3,0.2-0.4,0.3C53.3,53.1,53.4,53,53.5,52.9z"/>
	<linearGradient id="SVGID_90_" gradientUnits="userSpaceOnUse" x1="37.1075" y1="53.4327" x2="57.0712" y2="53.4327">
		<stop  offset="0" style="stop-color:#80008B"/>
		<stop  offset="1" style="stop-color:#FFFFFF"/>
	</linearGradient>
	<path class="st100" d="M52.7,53.4C52.7,53.4,52.7,53.4,52.7,53.4C52.7,53.4,52.7,53.4,52.7,53.4z"/>
	<linearGradient id="SVGID_91_" gradientUnits="userSpaceOnUse" x1="37.1075" y1="52.4642" x2="57.0712" y2="52.4642">
		<stop  offset="0" style="stop-color:#80008B"/>
		<stop  offset="1" style="stop-color:#FFFFFF"/>
	</linearGradient>
	<path class="st101" d="M54.3,52.2c-0.2,0.2-0.4,0.3-0.5,0.5C53.9,52.6,54.1,52.4,54.3,52.2z"/>
	<linearGradient id="SVGID_92_" gradientUnits="userSpaceOnUse" x1="37.1075" y1="54.8851" x2="57.0712" y2="54.8851">
		<stop  offset="0" style="stop-color:#80008B"/>
		<stop  offset="1" style="stop-color:#FFFFFF"/>
	</linearGradient>
	<path class="st102" d="M48.1,54.9c-0.3,0-0.7,0-1,0C47.1,54.9,47.5,54.9,48.1,54.9z"/>
	<linearGradient id="SVGID_93_" gradientUnits="userSpaceOnUse" x1="37.1075" y1="29.9678" x2="57.0712" y2="29.9678">
		<stop  offset="0" style="stop-color:#80008B"/>
		<stop  offset="1" style="stop-color:#FFFFFF"/>
	</linearGradient>
	<path class="st103" d="M47.1,29.9c0.4,0,0.7,0,1,0C47.8,30,47.4,29.9,47.1,29.9z"/>
	<linearGradient id="SVGID_94_" gradientUnits="userSpaceOnUse" x1="37.1075" y1="31.8393" x2="57.0712" y2="31.8393">
		<stop  offset="0" style="stop-color:#80008B"/>
		<stop  offset="1" style="stop-color:#FFFFFF"/>
	</linearGradient>
	<path class="st104" d="M54.9,33.3c-0.1-0.2-0.3-0.3-0.4-0.5c0,0-1.3-1.7-4.2-2.4C52.2,30.9,53.7,31.9,54.9,33.3z"/>
	<linearGradient id="SVGID_95_" gradientUnits="userSpaceOnUse" x1="37.1075" y1="54.8267" x2="57.0712" y2="54.8267">
		<stop  offset="0" style="stop-color:#80008B"/>
		<stop  offset="1" style="stop-color:#FFFFFF"/>
	</linearGradient>
	<path class="st105" d="M48.5,54.8c-0.1,0-0.1,0-0.2,0C48.4,54.8,48.5,54.8,48.5,54.8z"/>
	<path class="st83" d="M57,40c0-1.8-0.4-3.5-1-4.9c0-0.1-0.1-0.1-0.1-0.2c-0.1-0.2-0.2-0.4-0.3-0.6c-0.1-0.1-0.1-0.2-0.2-0.3
		c-0.1-0.1-0.2-0.2-0.3-0.4c-0.1-0.1-0.1-0.2-0.2-0.3c-1.1-1.4-2.7-2.4-4.6-3c0,0-0.1,0-0.1,0c-0.2-0.1-0.5-0.1-0.8-0.2
		c-0.1,0-0.2,0-0.3-0.1c-0.2,0-0.5-0.1-0.7-0.1c-0.1,0-0.2,0-0.3,0c-0.3,0-0.7,0-1,0h-10l3,2.8v0h7.8c0,0,5.8,0.7,6,6.5v6.3
		c0,0-0.7,6.6-6,6.2l-7.7,0l3.3,3.1h3.6c0.3,0,0.7,0,1,0c0.1,0,0.2,0,0.3,0c0.1,0,0.1,0,0.2,0c1.1-0.1,2.7-0.5,4.2-1.4c0,0,0,0,0,0
		c0.1-0.1,0.3-0.2,0.4-0.3c0.1-0.1,0.3-0.2,0.4-0.3c0.1,0,0.1-0.1,0.2-0.1c0.2-0.2,0.4-0.3,0.5-0.5c0,0,0.1-0.1,0.1-0.1
		c0.2-0.2,0.3-0.3,0.4-0.5c0.1-0.1,0.2-0.2,0.2-0.3c0.1-0.1,0.2-0.3,0.3-0.5c0.3-0.5,0.9-1.6,1.3-3c0-0.1,0.1-0.3,0.1-0.4
		c0-0.2,0.1-0.4,0.1-0.5c0-0.1,0-0.2,0-0.2c0-0.3,0.1-1.1,0.1-2.3V40z"/>
	<linearGradient id="SVGID_96_" gradientUnits="userSpaceOnUse" x1="37.1075" y1="42.4259" x2="57.0711" y2="42.4259">
		<stop  offset="0" style="stop-color:#363636"/>
		<stop  offset="1" style="stop-color:#FFFFFF"/>
	</linearGradient>
	<path class="st106" d="M57,40c0-1.8-0.4-3.5-1-4.9c0-0.1-0.1-0.1-0.1-0.2c-0.1-0.2-0.2-0.4-0.3-0.6c-0.1-0.1-0.1-0.2-0.2-0.3
		c-0.1-0.1-0.2-0.2-0.3-0.4c-0.1-0.1-0.1-0.2-0.2-0.3c-1.1-1.4-2.7-2.4-4.6-3c0,0-0.1,0-0.1,0c-0.2-0.1-0.5-0.1-0.8-0.2
		c-0.1,0-0.2,0-0.3-0.1c-0.2,0-0.5-0.1-0.7-0.1c-0.1,0-0.2,0-0.3,0c-0.3,0-0.7,0-1,0h-10l3,2.8v0h7.8c0,0,5.8,0.7,6,6.5v6.3
		c0,0-0.7,6.6-6,6.2l-7.7,0l3.3,3.1h3.6c0.3,0,0.7,0,1,0c0.1,0,0.2,0,0.3,0c0.1,0,0.1,0,0.2,0c1.1-0.1,2.7-0.5,4.2-1.4c0,0,0,0,0,0
		c0.1-0.1,0.3-0.2,0.4-0.3c0.1-0.1,0.3-0.2,0.4-0.3c0.1,0,0.1-0.1,0.2-0.1c0.2-0.2,0.4-0.3,0.5-0.5c0,0,0.1-0.1,0.1-0.1
		c0.2-0.2,0.3-0.3,0.4-0.5c0.1-0.1,0.2-0.2,0.2-0.3c0.1-0.1,0.2-0.3,0.3-0.5c0.3-0.5,0.9-1.6,1.3-3c0-0.1,0.1-0.3,0.1-0.4
		c0-0.2,0.1-0.4,0.1-0.5c0-0.1,0-0.2,0-0.2c0-0.3,0.1-1.1,0.1-2.3V40z"/>
	<path class="st3" d="M50.3,46.8c0,0,0,0.1-0.1,0.1C50.3,46.9,50.3,46.9,50.3,46.8z"/>
	<polygon class="st83" points="43.5,48.9 43.5,35.9 40.1,32.8 40.1,51.8 	"/>
	<polygon class="st26" points="43.5,48.9 43.5,35.9 40.1,32.8 40.1,51.8 	"/>
	<path class="st3" d="M49.9,37.3c0.1,0.1,0.1,0.2,0.2,0.2C50,37.4,50,37.4,49.9,37.3z"/>
	<linearGradient id="SVGID_97_" gradientUnits="userSpaceOnUse" x1="39.3579" y1="37.4051" x2="53.8853" y2="37.4051">
		<stop  offset="0" style="stop-color:#80008B"/>
		<stop  offset="1" style="stop-color:#FFFFFF"/>
	</linearGradient>
	<path class="st107" d="M49.9,37.3c0.1,0.1,0.1,0.2,0.2,0.2C50,37.4,50,37.4,49.9,37.3z"/>
	<polygon class="st3" points="40.1,51.8 40.1,51.8 40.1,51.8 	"/>
	<linearGradient id="SVGID_98_" gradientUnits="userSpaceOnUse" x1="39.3579" y1="51.7645" x2="53.8853" y2="51.7645">
		<stop  offset="0" style="stop-color:#80008B"/>
		<stop  offset="1" style="stop-color:#FFFFFF"/>
	</linearGradient>
	<polygon class="st108" points="40.1,51.8 40.1,51.8 40.1,51.8 	"/>
	<polygon class="st83" points="37.1,29.9 37.1,71.9 40.1,69 40.1,69 40.1,51.8 40.1,51.8 40.1,32.8 	"/>
	<path class="st83" d="M46.8,35.9c0.2,0,0.5,0,0.7,0c0,0,1.4,0,2.4,1.3c0,0,0,0.1,0.1,0.1c0.1,0.1,0.1,0.1,0.2,0.2
		c0.3,0.5,0.5,1.1,0.6,1.7c0,0,0,0.1,0,0.1l0,5.7c0,0,0,0.2,0,0.4c0,0.1,0,0.2,0,0.3c0,0.4-0.2,0.8-0.3,1.1c0,0,0,0.1-0.1,0.1
		c0,0-0.1,0.1-0.1,0.1c-0.3,0.5-0.7,0.9-1.3,1.3c-0.6,0.4-1.4,0.6-2.2,0.5h-3.3l-3.4,2.8l0,0l7.7,0c5.3,0.5,6-6.2,6-6.2v-6.3
		c-0.2-5.8-6-6.5-6-6.5h-7.8v0l3.4,3.2H46.8z"/>
	<linearGradient id="SVGID_99_" gradientUnits="userSpaceOnUse" x1="40.105" y1="42.2621" x2="53.8853" y2="42.2621">
		<stop  offset="0" style="stop-color:#FFFFFF"/>
		<stop  offset="1" style="stop-color:#363636"/>
	</linearGradient>
	<path class="st109" d="M46.8,35.9c0.2,0,0.5,0,0.7,0c0,0,1.4,0,2.4,1.3c0,0,0,0.1,0.1,0.1c0.1,0.1,0.1,0.1,0.2,0.2
		c0.3,0.5,0.5,1.1,0.6,1.7c0,0,0,0.1,0,0.1l0,5.7c0,0,0,0.2,0,0.4c0,0.1,0,0.2,0,0.3c0,0.4-0.2,0.8-0.3,1.1c0,0,0,0.1-0.1,0.1
		c0,0-0.1,0.1-0.1,0.1c-0.3,0.5-0.7,0.9-1.3,1.3c-0.6,0.4-1.4,0.6-2.2,0.5h-3.3l-3.4,2.8l0,0l7.7,0c5.3,0.5,6-6.2,6-6.2v-6.3
		c-0.2-5.8-6-6.5-6-6.5h-7.8v0l3.4,3.2H46.8z"/>
	<polygon class="st83" points="40.1,69 40.1,69.1 40.1,69 37.1,71.9 43.5,71.9 	"/>
	<polygon class="st47" points="40.1,51.8 40.1,69 43.5,71.9 43.5,54.9 40.1,51.8 	"/>
	<linearGradient id="SVGID_100_" gradientUnits="userSpaceOnUse" x1="59.6395" y1="50.7004" x2="33.0508" y2="50.905">
		<stop  offset="0" style="stop-color:#FFFFFF"/>
		<stop  offset="1" style="stop-color:#363636"/>
	</linearGradient>
	<polygon class="st110" points="37.1,29.9 37.1,71.9 40.1,68.9 40.1,68.9 40.1,51.7 40.1,51.7 40.1,32.7 	"/>
	<polygon class="st111" points="95,48.9 95,35.9 91.7,32.8 91.7,51.8 	"/>
	<linearGradient id="SVGID_101_" gradientUnits="userSpaceOnUse" x1="90.9776" y1="42.2621" x2="105.505" y2="42.2621">
		<stop  offset="0" style="stop-color:#FFFFFF"/>
		<stop  offset="1" style="stop-color:#363636"/>
	</linearGradient>
	<path class="st112" d="M98.4,35.9c0.2,0,0.5,0,0.7,0c0,0,1.4,0,2.4,1.3c0,0,0,0.1,0.1,0.1c0.1,0.1,0.1,0.1,0.2,0.2
		c0.3,0.5,0.5,1.1,0.6,1.7c0,0,0,0.1,0,0.1l0,5.7c0,0,0,0.2,0,0.4c0,0.1,0,0.2,0,0.3c0,0.4-0.2,0.8-0.3,1.1c0,0,0,0.1-0.1,0.1
		c0,0-0.1,0.1-0.1,0.1c-0.3,0.5-0.7,0.9-1.3,1.3c-0.6,0.4-1.4,0.6-2.2,0.5h-3.3l-3.4,2.8l0,0l7.7,0c5.3,0.5,6-6.2,6-6.2v-6.3
		c-0.2-5.8-6-6.5-6-6.5h-7.8v0l3.4,3.2H98.4z"/>
	<polygon class="st113" points="91.7,51.8 91.7,69 95,71.9 95,54.9 91.7,51.8 	"/>
	<linearGradient id="SVGID_102_" gradientUnits="userSpaceOnUse" x1="102.9677" y1="51.4691" x2="86.1964" y2="50.8555">
		<stop  offset="0" style="stop-color:#FFFFFF"/>
		<stop  offset="1" style="stop-color:#363636"/>
	</linearGradient>
	<polygon class="st114" points="88.7,29.9 88.7,71.9 91.6,69 91.7,69 91.7,51.8 91.7,51.8 91.7,32.8 	"/>
	<linearGradient id="SVGID_103_" gradientUnits="userSpaceOnUse" x1="88.6929" y1="42.4261" x2="108.6565" y2="42.4261">
		<stop  offset="0" style="stop-color:#363636"/>
		<stop  offset="1" style="stop-color:#FFFFFF"/>
	</linearGradient>
	<path class="st115" d="M104.3,53.4C104.3,53.4,104.3,53.4,104.3,53.4c0.2-0.1,0.3-0.2,0.4-0.3c0.1-0.1,0.3-0.2,0.4-0.3
		c0.1,0,0.1-0.1,0.2-0.1c0.2-0.2,0.4-0.3,0.5-0.5c0,0,0.1-0.1,0.1-0.1c0.2-0.2,0.3-0.3,0.4-0.5c0.1-0.1,0.2-0.2,0.2-0.3
		c0.1-0.1,0.2-0.3,0.3-0.5c0.3-0.5,0.9-1.6,1.3-3c0-0.1,0.1-0.3,0.1-0.4c0-0.2,0.1-0.4,0.1-0.5c0-0.1,0-0.2,0-0.2
		c0-0.3,0.1-1.1,0.1-2.3V40c0-1.8-0.4-3.5-1-4.9c0-0.1-0.1-0.1-0.1-0.2c-0.1-0.2-0.2-0.4-0.3-0.6c-0.1-0.1-0.1-0.2-0.2-0.3
		c-0.1-0.1-0.2-0.2-0.3-0.4c-0.1-0.1-0.1-0.2-0.2-0.3c-1.1-1.4-2.7-2.4-4.6-3c0,0-0.1,0-0.1,0c-0.2-0.1-0.5-0.1-0.8-0.2
		c-0.1,0-0.2,0-0.3-0.1c-0.2,0-0.5-0.1-0.7-0.1c-0.1,0-0.2,0-0.3,0c-0.3,0-0.7,0-1,0h-10l3,2.8v0h7.8c0,0,5.8,0.7,6,6.5v6.3
		c0,0-0.7,6.6-6,6.2l-7.7,0l3.3,3.1h3.4l2.4-3.2L104.3,53.4z"/>
	<linearGradient id="SVGID_104_" gradientUnits="userSpaceOnUse" x1="116.591" y1="59.4481" x2="94.8836" y2="62.9493">
		<stop  offset="0" style="stop-color:#FFFFFF"/>
		<stop  offset="1" style="stop-color:#363636"/>
	</linearGradient>
	<polygon class="st116" points="101.5,54.5 100.8,51.7 98.4,54.9 102.9,72 105.4,69 	"/>
	<polygon class="st117" points="104.2,53.4 100.8,51.7 101.5,54.5 105.4,69 109.5,72 	"/>
	<linearGradient id="SVGID_105_" gradientUnits="userSpaceOnUse" x1="135.1034" y1="51.7782" x2="117.1858" y2="52.6452">
		<stop  offset="0" style="stop-color:#FFFFFF"/>
		<stop  offset="1" style="stop-color:#363636"/>
	</linearGradient>
	<polygon class="st118" points="122.7,33 122.7,69 119.5,71.9 119.5,35.9 	"/>
	<linearGradient id="SVGID_106_" gradientUnits="userSpaceOnUse" x1="135.8615" y1="52.1541" x2="122.6793" y2="52.4965">
		<stop  offset="0" style="stop-color:#363636"/>
		<stop  offset="1" style="stop-color:#FFFFFF"/>
	</linearGradient>
	<polygon class="st119" points="125.9,35.9 125.9,71.9 122.7,69 122.7,33 	"/>
	<linearGradient id="SVGID_107_" gradientUnits="userSpaceOnUse" x1="119.774" y1="24.4859" x2="126.7882" y2="37.4621">
		<stop  offset="0" style="stop-color:#363636"/>
		<stop  offset="1" style="stop-color:#FFFFFF"/>
	</linearGradient>
	<polygon class="st120" points="115.2,33 130.2,33 132.9,29.9 112.6,29.9 	"/>
	<linearGradient id="SVGID_108_" gradientUnits="userSpaceOnUse" x1="136.2809" y1="37.8371" x2="106.07" y2="25.3853">
		<stop  offset="0" style="stop-color:#363636"/>
		<stop  offset="1" style="stop-color:#FFFFFF"/>
	</linearGradient>
	<polygon class="st121" points="122.7,33 125.9,35.9 132.9,35.9 130.2,33 	"/>
	<linearGradient id="SVGID_109_" gradientUnits="userSpaceOnUse" x1="134.7679" y1="41.508" x2="104.557" y2="29.0562">
		<stop  offset="0" style="stop-color:#363636"/>
		<stop  offset="1" style="stop-color:#FFFFFF"/>
	</linearGradient>
	<polygon class="st122" points="122.7,33 115.2,33 112.6,35.9 119.5,35.9 	"/>
	<linearGradient id="SVGID_110_" gradientUnits="userSpaceOnUse" x1="202.9133" y1="50.9454" x2="251.2989" y2="50.9454">
		<stop  offset="0" style="stop-color:#363636"/>
		<stop  offset="1" style="stop-color:#FFFFFF"/>
	</linearGradient>
	<polygon class="st123" points="212.5,32.9 212.5,69 209.4,71.9 209.4,29.9 	"/>
	<linearGradient id="SVGID_111_" gradientUnits="userSpaceOnUse" x1="230.7025" y1="50.0303" x2="212.9008" y2="51.0534">
		<stop  offset="0" style="stop-color:#363636"/>
		<stop  offset="0.1027" style="stop-color:#3D3D3D"/>
		<stop  offset="0.2545" style="stop-color:#515151"/>
		<stop  offset="0.4365" style="stop-color:#717171"/>
		<stop  offset="0.6421" style="stop-color:#9F9F9F"/>
		<stop  offset="0.8646" style="stop-color:#D8D8D8"/>
		<stop  offset="1" style="stop-color:#FFFFFF"/>
	</linearGradient>
	<polygon class="st124" points="215.7,29.9 215.7,71.9 212.5,69 212.5,32.8 	"/>
	<linearGradient id="SVGID_112_" gradientUnits="userSpaceOnUse" x1="199.9871" y1="51.2681" x2="185.1564" y2="50.9064">
		<stop  offset="0" style="stop-color:#FFFFFF"/>
		<stop  offset="1" style="stop-color:#363636"/>
	</linearGradient>
	<polygon class="st125" points="189.9,32.9 189.9,69 186.7,71.9 186.7,29.9 	"/>
	<linearGradient id="SVGID_113_" gradientUnits="userSpaceOnUse" x1="203.1977" y1="49.8331" x2="191.5345" y2="49.4239">
		<stop  offset="0" style="stop-color:#363636"/>
		<stop  offset="0.1009" style="stop-color:#3E3E3E"/>
		<stop  offset="0.2627" style="stop-color:#565656"/>
		<stop  offset="0.4651" style="stop-color:#7C7C7C"/>
		<stop  offset="0.7002" style="stop-color:#B1B1B1"/>
		<stop  offset="0.96" style="stop-color:#F4F4F4"/>
		<stop  offset="1" style="stop-color:#FFFFFF"/>
	</linearGradient>
	<polygon class="st126" points="193.1,29.9 193.1,65.9 189.9,69 189.9,32.8 	"/>
	<polygon class="st111" points="204.4,71.9 204.4,65.9 201.8,69 	"/>
	<linearGradient id="SVGID_114_" gradientUnits="userSpaceOnUse" x1="187.7781" y1="57.6525" x2="205.1685" y2="75.8159">
		<stop  offset="0" style="stop-color:#363636"/>
		<stop  offset="1" style="stop-color:#FFFFFF"/>
	</linearGradient>
	<polygon class="st127" points="189.9,69 201.8,69 204.4,65.9 193.1,65.9 	"/>
	<polygon class="st113" points="189.9,69 186.7,71.9 204.4,71.9 201.8,69 	"/>

		<linearGradient id="SVGID_115_" gradientUnits="userSpaceOnUse" x1="151.0584" y1="-347.7282" x2="136.2277" y2="-348.0899" gradientTransform="matrix(1 0 0 -1 0 -297.1426)">
		<stop  offset="0" style="stop-color:#FFFFFF"/>
		<stop  offset="1" style="stop-color:#363636"/>
	</linearGradient>
	<polygon class="st128" points="141,69 141,32.8 137.8,29.9 137.8,71.9 	"/>
	<polygon class="st129" points="40.1,69.1 40.1,69 37.1,71.9 43.5,71.9 40.1,69 	"/>
	<polygon class="st129" points="91.7,69.1 91.6,69 88.7,71.9 95,71.9 91.7,69 	"/>
	<polygon class="st129" points="102.9,71.9 105.4,69 109.5,71.9 	"/>
	<polygon class="st129" points="119.5,71.9 122.7,69 125.9,71.9 	"/>
	<polygon class="st129" points="112.6,29.9 115.2,33 112.6,35.9 	"/>
	<polygon class="st129" points="132.9,35.9 132.9,29.9 130.2,33 	"/>
	<polygon class="st129" points="209.4,71.9 212.5,69 215.7,71.9 	"/>
	<polygon class="st129" points="215.7,29.9 212.5,32.9 209.4,29.9 	"/>
	<polygon class="st129" points="193.1,29.9 189.9,32.9 186.7,29.9 	"/>
	<polygon class="st129" points="144.2,71.9 141,69 137.8,71.9 	"/>
	<polygon class="st129" points="155.5,29.9 155.5,35.9 152.9,32.9 	"/>

		<linearGradient id="SVGID_116_" gradientUnits="userSpaceOnUse" x1="138.8493" y1="-341.3808" x2="156.2398" y2="-323.2174" gradientTransform="matrix(1 0 0 -1 0 -297.1426)">
		<stop  offset="0" style="stop-color:#363636"/>
		<stop  offset="1" style="stop-color:#FFFFFF"/>
	</linearGradient>
	<polygon class="st130" points="141,32.9 152.9,32.9 155.5,35.9 144.2,35.9 	"/>
	<polygon class="st113" points="141,32.9 137.8,29.9 155.5,29.9 152.9,32.9 	"/>
	<polygon class="st111" points="153.2,48.2 153.2,54.2 150.5,51.2 	"/>
	<polygon class="st111" points="150.5,51.2 141,51.2 144.1,48.2 153.2,48.2 	"/>
	<linearGradient id="SVGID_117_" gradientUnits="userSpaceOnUse" x1="156.9645" y1="41.9334" x2="141.5674" y2="42.0458">
		<stop  offset="0" style="stop-color:#363636"/>
		<stop  offset="1" style="stop-color:#FFFFFF"/>
	</linearGradient>
	<polygon class="st131" points="141,32.9 144.2,35.9 144.1,48.2 141,51.2 	"/>
	<linearGradient id="SVGID_118_" gradientUnits="userSpaceOnUse" x1="137.7216" y1="66.3146" x2="151.0957" y2="46.8716">
		<stop  offset="0" style="stop-color:#363636"/>
		<stop  offset="1" style="stop-color:#FFFFFF"/>
	</linearGradient>
	<polygon class="st132" points="153.2,54.2 150.5,51.2 141,51.2 144.1,54.2 	"/>
	<linearGradient id="SVGID_119_" gradientUnits="userSpaceOnUse" x1="157.1071" y1="61.475" x2="141.71" y2="61.5874">
		<stop  offset="0" style="stop-color:#363636"/>
		<stop  offset="1" style="stop-color:#FFFFFF"/>
	</linearGradient>
	<polygon class="st133" points="144.2,71.9 141,69 141,51.2 144.1,54.2 	"/>
</g>
</svg>
