<?xml version="1.0" encoding="utf-8"?>
<!-- Generator: Adobe Illustrator 23.0.4, SVG Export Plug-In . SVG Version: 6.00 Build 0)  -->
<svg version="1.1" id="Lag_1" xmlns="http://www.w3.org/2000/svg" xmlns:xlink="http://www.w3.org/1999/xlink" x="0px" y="0px"
	 viewBox="0 0 279.7 118.1" style="enable-background:new 0 0 279.7 118.1;" xml:space="preserve">
<style type="text/css">
	.st0{fill:#FF006D;}
	.st1{opacity:0.39;fill:#80008B;}
	.st2{fill:#2A1000;stroke:#2A1000;stroke-miterlimit:10;}
	.st3{fill:#FFFFFF;stroke:#2A1000;stroke-miterlimit:10;}
	.st4{opacity:0.39;fill:url(#SVGID_1_);}
	.st5{opacity:0.39;fill:url(#SVGID_2_);}
	.st6{opacity:0.45;fill:url(#SVGID_3_);}
	.st7{opacity:0.45;fill:url(#SVGID_4_);}
	.st8{opacity:0.45;fill:url(#SVGID_5_);}
	.st9{opacity:0.45;fill:url(#SVGID_6_);}
	.st10{opacity:0.45;fill:url(#SVGID_7_);}
	.st11{opacity:0.45;fill:url(#SVGID_8_);}
	.st12{opacity:0.45;fill:url(#SVGID_9_);}
	.st13{opacity:0.45;fill:url(#SVGID_10_);}
	.st14{opacity:0.45;fill:url(#SVGID_11_);}
	.st15{opacity:0.45;fill:url(#SVGID_12_);}
	.st16{opacity:0.45;fill:url(#SVGID_13_);}
	.st17{opacity:0.45;fill:url(#SVGID_14_);}
	.st18{opacity:0.45;fill:url(#SVGID_15_);}
	.st19{opacity:0.45;fill:url(#SVGID_16_);}
	.st20{opacity:0.45;fill:url(#SVGID_17_);}
	.st21{opacity:0.45;fill:url(#SVGID_18_);}
	.st22{opacity:0.45;fill:url(#SVGID_19_);}
	.st23{opacity:0.45;fill:url(#SVGID_20_);}
	.st24{opacity:0.45;fill:url(#SVGID_21_);}
	.st25{opacity:0.45;fill:url(#SVGID_22_);}
	.st26{opacity:0.45;fill:#FFFFFF;}
	.st27{opacity:0.45;fill:url(#SVGID_23_);}
	.st28{opacity:0.45;fill:url(#SVGID_24_);}
	.st29{opacity:0.45;fill:url(#SVGID_25_);}
	.st30{opacity:0.45;fill:url(#SVGID_26_);}
	.st31{opacity:0.45;fill:url(#SVGID_27_);}
	.st32{opacity:0.45;fill:url(#SVGID_28_);}
	.st33{opacity:0.45;fill:url(#SVGID_29_);}
	.st34{opacity:0.45;fill:url(#SVGID_30_);}
	.st35{opacity:0.45;fill:url(#SVGID_31_);}
	.st36{opacity:0.45;fill:url(#SVGID_32_);}
	.st37{opacity:0.45;fill:url(#SVGID_33_);}
	.st38{opacity:0.45;fill:url(#SVGID_34_);}
	.st39{opacity:0.45;fill:url(#SVGID_35_);}
	.st40{opacity:0.45;fill:url(#SVGID_36_);}
	.st41{opacity:0.45;fill:url(#SVGID_37_);}
	.st42{opacity:0.45;fill:url(#SVGID_38_);}
	.st43{opacity:0.45;fill:url(#SVGID_39_);}
	.st44{opacity:0.45;fill:url(#SVGID_40_);}
	.st45{opacity:0.25;fill:#80008B;}
	.st46{opacity:0.45;fill:url(#SVGID_41_);}
	.st47{fill:url(#SVGID_42_);}
	.st48{opacity:0.39;fill:#FFFFFF;}
	.st49{opacity:0.45;fill:url(#SVGID_43_);}
	.st50{opacity:0.45;fill:url(#SVGID_44_);}
	.st51{opacity:0.45;fill:url(#SVGID_45_);}
	.st52{opacity:0.45;fill:url(#SVGID_46_);}
	.st53{opacity:0.39;fill:url(#SVGID_47_);}
	.st54{opacity:0.39;fill:url(#SVGID_48_);}
	.st55{opacity:0.39;fill:url(#SVGID_49_);}
	.st56{opacity:0.39;fill:url(#SVGID_50_);}
	.st57{opacity:0.45;fill:url(#SVGID_51_);}
	.st58{opacity:0.39;fill:url(#SVGID_52_);}
	.st59{opacity:0.45;fill:url(#SVGID_53_);}
	.st60{opacity:0.45;fill:url(#SVGID_54_);}
	.st61{opacity:0.45;fill:url(#SVGID_55_);}
	.st62{opacity:0.39;fill:url(#SVGID_56_);}
	.st63{opacity:0.39;fill:url(#SVGID_57_);}
	.st64{opacity:0.39;fill:url(#SVGID_58_);}
	.st65{opacity:0.45;fill:url(#SVGID_59_);}
	.st66{opacity:0.39;fill:url(#SVGID_60_);}
	.st67{opacity:0.45;fill:url(#SVGID_61_);}
	.st68{opacity:0.39;fill:url(#SVGID_62_);}
	.st69{opacity:0.45;fill:url(#SVGID_63_);}
	.st70{opacity:0.39;fill:url(#SVGID_64_);}
	.st71{opacity:0.32;filter:url(#AI_GaussianBlur_7);}
</style>
<filter  id="AI_GaussianBlur_7" name="AI_GaussianBlur_7">
	<feGaussianBlur  stdDeviation="7"></feGaussianBlur>
</filter>
<g>
	<path class="st0" d="M244.3,38.4c-0.5-5.4-4.4-9-10.2-9c-3.4,0-6.2,1.3-8,3.5c-1.4,1.7-2.2,4-2.2,6.6v22.9
		c0,6.1,4.1,10.1,10.2,10.1c6.1,0,10.2-4.1,10.2-10.1V39.5C244.3,39.1,244.3,38.8,244.3,38.4z M234.1,66.6c-2,0-3.5-1.1-3.8-3.2
		c0-0.3-0.1-0.6-0.1-0.9V39.5c0-2.6,1.5-4.1,3.8-4.1s3.8,1.5,3.8,4.1v22.9C238,65.1,236.5,66.6,234.1,66.6z"/>
	<path class="st0" d="M73.8,29.4c-6.1,0-10.2,4.1-10.2,10.1v22.9c0,6.1,4.1,10.1,10.2,10.1c6.1,0,10.2-4.1,10.2-10.1V39.5
		C84,33.5,79.9,29.4,73.8,29.4z M77.6,62.4c0,2.6-1.5,4.1-3.8,4.1c-2.3,0-3.8-1.5-3.8-4.1V39.5c0-2.6,1.5-4.1,3.8-4.1
		s3.8,1.5,3.8,4.1V62.4z"/>
	<path class="st0" d="M57.8,35.1c0-0.1-0.1-0.1-0.1-0.2c-0.1-0.2-0.2-0.4-0.3-0.6c-0.1-0.1-0.1-0.2-0.2-0.3
		c-0.1-0.1-0.2-0.2-0.3-0.4c-0.1-0.1-0.1-0.2-0.2-0.3c-0.1-0.2-0.3-0.3-0.4-0.5c0,0-0.9-1.1-2.7-1.9c0,0-0.1,0-0.1-0.1
		c-0.4-0.2-0.8-0.3-1.3-0.5c0,0-0.1,0-0.1,0c-0.2-0.1-0.5-0.1-0.8-0.2c-0.1,0-0.2,0-0.3-0.1c-0.2,0-0.5-0.1-0.7-0.1
		c-0.1,0-0.2,0-0.3,0c-0.3,0-0.7,0-1,0h-10v42h6.4v-17h3.6c0,0,0.4,0,1,0c0.1,0,0.2,0,0.3,0c0.1,0,0.1,0,0.2,0
		c1.6-0.2,3-0.6,4.2-1.4c0,0,0,0,0,0c0.1-0.1,0.3-0.2,0.4-0.3c0.1-0.1,0.3-0.2,0.4-0.3c0.1,0,0.1-0.1,0.2-0.1
		c0.2-0.2,0.4-0.3,0.5-0.5c0,0,0.1-0.1,0.1-0.1c0.2-0.2,0.3-0.3,0.4-0.5c0.1-0.1,0.2-0.2,0.2-0.3c0,0,0.1-0.1,0.1-0.1
		c0,0,0.1-0.1,0.2-0.3c0.6-0.9,1-1.9,1.3-3c0-0.1,0.1-0.3,0.1-0.4c0-0.2,0.1-0.4,0.1-0.5c0,0,0,0,0-0.1c0,0,0-0.1,0-0.2
		c0.1-0.6,0.1-1.2,0.1-1.8v-0.5c0-1.3,0.1-3.1,0-5.4C58.8,39.1,58.8,37.2,57.8,35.1z M45.2,36l4,0c1,0.1,1.8,0.6,2.4,1.3
		c0,0,0,0.1,0.1,0.1c0.1,0.1,0.1,0.2,0.2,0.2c0.3,0.4,0.5,1,0.6,1.7c0,0.2,0,0.4,0,0.7V45c0,0.1,0,0.3,0,0.4c0,0.3-0.1,0.9-0.3,1.4
		c0,0,0,0.1-0.1,0.1c0,0-0.1,0.1-0.1,0.1c-0.3,0.5-0.7,1-1.3,1.3c-0.5,0.3-1.2,0.5-2.2,0.5h-3.3V36z"/>
	<path class="st0" d="M106,53.5c0.1-0.1,0.3-0.2,0.4-0.3c0.1-0.1,0.3-0.2,0.4-0.3c0.1,0,0.1-0.1,0.2-0.1c0.2-0.2,0.4-0.3,0.5-0.5
		c0,0,0.1-0.1,0.1-0.1c0.2-0.2,0.3-0.3,0.4-0.5c0.1-0.1,0.2-0.2,0.2-0.3c0.1-0.1,0.2-0.3,0.3-0.5c0.3-0.5,0.9-1.6,1.3-3
		c0-0.1,0.1-0.3,0.1-0.4c0-0.2,0.1-0.4,0.1-0.5c0-0.1,0-0.2,0-0.2c0-0.3,0.1-1.1,0.1-2.3V40c0-1.8-0.4-3.5-1-4.9
		c0-0.1-0.1-0.1-0.1-0.2c-0.1-0.2-0.2-0.4-0.3-0.6c-0.1-0.1-0.1-0.2-0.2-0.3c-0.1-0.1-0.2-0.2-0.3-0.4c-0.1-0.1-0.1-0.2-0.2-0.3
		c-1.1-1.4-2.7-2.4-4.6-3c0,0-0.1,0-0.1,0c-0.2-0.1-0.5-0.1-0.8-0.2c-0.1,0-0.2,0-0.3-0.1c-0.2,0-0.5-0.1-0.7-0.1
		c-0.1,0-0.2,0-0.3,0c-0.3,0-0.7,0-1,0h-10v42h6.4v-17h3.4l4.5,17l6.6,0L106,53.5C106,53.5,106,53.5,106,53.5z M96.8,36L96.8,36
		L96.8,36h3.4c0.2,0,0.5,0,0.7,0c0,0,1.4,0,2.4,1.3c0,0,0,0.1,0.1,0.1c0.1,0.1,0.1,0.1,0.2,0.2c0.3,0.5,0.5,1.1,0.6,1.7
		c0,0,0,0.1,0,0.1l0,5.7c0,0,0,0.2,0,0.4c0,0.1,0,0.2,0,0.3c0,0.4-0.2,0.8-0.3,1.1c0,0,0,0.1-0.1,0.1c0,0-0.1,0.1-0.1,0.1
		c-0.3,0.5-0.7,0.9-1.3,1.3c-0.5,0.3-1,0.5-1.6,0.5c-0.2,0-0.4,0-0.6,0h0h-3.3h0l0,0l-0.1,0L96.8,36L96.8,36z M93.4,69.2l0-0.1l0,0
		V69.2z"/>
	<path class="st0" d="M171.9,29.4c-3.1,0-5.6,1-7.4,2.8c-1.8,1.8-2.8,4.3-2.8,7.3v22.9c0,6.1,4.1,10.1,10.2,10.1
		c6.1,0,10.2-4.1,10.2-10.1V39.5c0-0.4,0-0.8,0-1.1C181.6,33,177.6,29.4,171.9,29.4z M171.9,66.6c-2,0-3.5-1.1-3.8-3.2
		c0-0.3-0.1-0.6-0.1-0.9V39.5c0-2.6,1.5-4.1,3.8-4.1s3.8,1.5,3.8,4.1v22.9C175.7,65.1,174.2,66.6,171.9,66.6z"/>
	<polygon class="st0" points="114.4,30 114.4,36 121.3,36 121.3,72 127.7,72 127.7,36 134.6,36 134.6,36 134.6,36 134.6,30
		134.6,30 	"/>
	<polygon class="st0" points="211.1,30 211.1,30 211.1,72 211.1,72 211.1,72 217.5,72 217.5,72 217.5,72 217.5,30 217.5,30 	"/>
	<polygon class="st0" points="206.2,66 206.2,66 206.2,66 194.9,66 194.9,30 194.9,30 194.9,30 188.5,30 188.5,30 188.5,72
		188.5,72 206.2,72 206.2,72 	"/>
	<polygon class="st0" points="157.3,30 157.3,30 139.6,30 139.6,72 139.6,72 139.6,72 145.9,72 145.9,54.3 154.9,54.3 154.9,54.3
		154.9,54.3 154.9,48.3 145.9,48.3 145.9,36 155.7,36 157.3,36 157.3,36 157.3,36 157.3,30 157.3,30 	"/>
</g>
<g>
	<path class="st0" d="M242.3,38.4c-0.5-5.4-4.4-9-10.2-9c-3.4,0-6.2,1.3-8,3.5c-1.4,1.7-2.2,4-2.2,6.6v22.9
		c0,6.1,4.1,10.1,10.2,10.1c6.1,0,10.2-4.1,10.2-10.1V39.5C242.3,39.1,242.3,38.8,242.3,38.4z M232.1,66.6c-2,0-3.5-1.1-3.8-3.2
		c0-0.3-0.1-0.6-0.1-0.9V39.5c0-2.6,1.5-4.1,3.8-4.1s3.8,1.5,3.8,4.1v22.9C236,65.1,234.5,66.6,232.1,66.6z"/>
	<path class="st0" d="M71.8,29.4c-6.1,0-10.2,4.1-10.2,10.1v22.9c0,6.1,4.1,10.1,10.2,10.1c6.1,0,10.2-4.1,10.2-10.1V39.5
		C82,33.5,77.9,29.4,71.8,29.4z M75.6,62.4c0,2.6-1.5,4.1-3.8,4.1c-2.3,0-3.8-1.5-3.8-4.1V39.5c0-2.6,1.5-4.1,3.8-4.1
		s3.8,1.5,3.8,4.1V62.4z"/>
	<path class="st0" d="M55.8,35.1c0-0.1-0.1-0.1-0.1-0.2c-0.1-0.2-0.2-0.4-0.3-0.6c-0.1-0.1-0.1-0.2-0.2-0.3
		c-0.1-0.1-0.2-0.2-0.3-0.4c-0.1-0.1-0.1-0.2-0.2-0.3c-0.1-0.2-0.3-0.3-0.4-0.5c0,0-0.9-1.1-2.7-1.9c0,0-0.1,0-0.1-0.1
		c-0.4-0.2-0.8-0.3-1.3-0.5c0,0-0.1,0-0.1,0c-0.2-0.1-0.5-0.1-0.8-0.2c-0.1,0-0.2,0-0.3-0.1c-0.2,0-0.5-0.1-0.7-0.1
		c-0.1,0-0.2,0-0.3,0c-0.3,0-0.7,0-1,0h-10v42h6.4v-17h3.6c0,0,0.4,0,1,0c0.1,0,0.2,0,0.3,0c0.1,0,0.1,0,0.2,0
		c1.6-0.2,3-0.6,4.2-1.4c0,0,0,0,0,0c0.1-0.1,0.3-0.2,0.4-0.3c0.1-0.1,0.3-0.2,0.4-0.3c0.1,0,0.1-0.1,0.2-0.1
		c0.2-0.2,0.4-0.3,0.5-0.5c0,0,0.1-0.1,0.1-0.1c0.2-0.2,0.3-0.3,0.4-0.5c0.1-0.1,0.2-0.2,0.2-0.3c0,0,0.1-0.1,0.1-0.1
		c0,0,0.1-0.1,0.2-0.3c0.6-0.9,1-1.9,1.3-3c0-0.1,0.1-0.3,0.1-0.4c0-0.2,0.1-0.4,0.1-0.5c0,0,0,0,0-0.1c0,0,0-0.1,0-0.2
		c0.1-0.6,0.1-1.2,0.1-1.8v-0.5c0-1.3,0.1-3.1,0-5.4C56.8,39.1,56.8,37.2,55.8,35.1z M43.2,36l4,0c1,0.1,1.8,0.6,2.4,1.3
		c0,0,0,0.1,0.1,0.1c0.1,0.1,0.1,0.2,0.2,0.2c0.3,0.4,0.5,1,0.6,1.7c0,0.2,0,0.4,0,0.7V45c0,0.1,0,0.3,0,0.4c0,0.3-0.1,0.9-0.3,1.4
		c0,0,0,0.1-0.1,0.1c0,0-0.1,0.1-0.1,0.1c-0.3,0.5-0.7,1-1.3,1.3c-0.5,0.3-1.2,0.5-2.2,0.5h-3.3V36z"/>
	<path class="st0" d="M104,53.5c0.1-0.1,0.3-0.2,0.4-0.3c0.1-0.1,0.3-0.2,0.4-0.3c0.1,0,0.1-0.1,0.2-0.1c0.2-0.2,0.4-0.3,0.5-0.5
		c0,0,0.1-0.1,0.1-0.1c0.2-0.2,0.3-0.3,0.4-0.5c0.1-0.1,0.2-0.2,0.2-0.3c0.1-0.1,0.2-0.3,0.3-0.5c0.3-0.5,0.9-1.6,1.3-3
		c0-0.1,0.1-0.3,0.1-0.4c0-0.2,0.1-0.4,0.1-0.5c0-0.1,0-0.2,0-0.2c0-0.3,0.1-1.1,0.1-2.3V40c0-1.8-0.4-3.5-1-4.9
		c0-0.1-0.1-0.1-0.1-0.2c-0.1-0.2-0.2-0.4-0.3-0.6c-0.1-0.1-0.1-0.2-0.2-0.3c-0.1-0.1-0.2-0.2-0.3-0.4c-0.1-0.1-0.1-0.2-0.2-0.3
		c-1.1-1.4-2.7-2.4-4.6-3c0,0-0.1,0-0.1,0c-0.2-0.1-0.5-0.1-0.8-0.2c-0.1,0-0.2,0-0.3-0.1c-0.2,0-0.5-0.1-0.7-0.1
		c-0.1,0-0.2,0-0.3,0c-0.3,0-0.7,0-1,0h-10v42h6.4v-17h3.4l4.5,17l6.6,0L104,53.5C104,53.5,104,53.5,104,53.5z M94.8,36L94.8,36
		L94.8,36h3.4c0.2,0,0.5,0,0.7,0c0,0,1.4,0,2.4,1.3c0,0,0,0.1,0.1,0.1c0.1,0.1,0.1,0.1,0.2,0.2c0.3,0.5,0.5,1.1,0.6,1.7
		c0,0,0,0.1,0,0.1l0,5.7c0,0,0,0.2,0,0.4c0,0.1,0,0.2,0,0.3c0,0.4-0.2,0.8-0.3,1.1c0,0,0,0.1-0.1,0.1c0,0-0.1,0.1-0.1,0.1
		c-0.3,0.5-0.7,0.9-1.3,1.3c-0.5,0.3-1,0.5-1.6,0.5c-0.2,0-0.4,0-0.6,0h0h-3.3h0l0,0l-0.1,0L94.8,36L94.8,36z M91.4,69.2l0-0.1l0,0
		V69.2z"/>
	<path class="st0" d="M169.9,29.4c-3.1,0-5.6,1-7.4,2.8c-1.8,1.8-2.8,4.3-2.8,7.3v22.9c0,6.1,4.1,10.1,10.2,10.1
		c6.1,0,10.2-4.1,10.2-10.1V39.5c0-0.4,0-0.8,0-1.1C179.6,33,175.6,29.4,169.9,29.4z M169.9,66.6c-2,0-3.5-1.1-3.8-3.2
		c0-0.3-0.1-0.6-0.1-0.9V39.5c0-2.6,1.5-4.1,3.8-4.1s3.8,1.5,3.8,4.1v22.9C173.7,65.1,172.2,66.6,169.9,66.6z"/>
	<polygon class="st0" points="112.4,30 112.4,36 119.3,36 119.3,72 125.7,72 125.7,36 132.6,36 132.6,36 132.6,36 132.6,30
		132.6,30 	"/>
	<polygon class="st0" points="209.1,30 209.1,30 209.1,72 209.1,72 209.1,72 215.5,72 215.5,72 215.5,72 215.5,30 215.5,30 	"/>
	<polygon class="st0" points="204.2,66 204.2,66 204.2,66 192.9,66 192.9,30 192.9,30 192.9,30 186.5,30 186.5,30 186.5,72
		186.5,72 204.2,72 204.2,72 	"/>
	<polygon class="st0" points="155.3,30 155.3,30 137.6,30 137.6,72 137.6,72 137.6,72 143.9,72 143.9,54.3 152.9,54.3 152.9,54.3
		152.9,54.3 152.9,48.3 143.9,48.3 143.9,36 153.7,36 155.3,36 155.3,36 155.3,36 155.3,30 155.3,30 	"/>
</g>
<g>
	<path class="st0" d="M243.3,38.4c-0.5-5.4-4.4-9-10.2-9c-3.4,0-6.2,1.3-8,3.5c-1.4,1.7-2.2,4-2.2,6.6v22.9
		c0,6.1,4.1,10.1,10.2,10.1c6.1,0,10.2-4.1,10.2-10.1V39.5C243.3,39.1,243.3,38.8,243.3,38.4z M233.1,66.6c-2,0-3.5-1.1-3.8-3.2
		c0-0.3-0.1-0.6-0.1-0.9V39.5c0-2.6,1.5-4.1,3.8-4.1s3.8,1.5,3.8,4.1v22.9C237,65.1,235.5,66.6,233.1,66.6z"/>
	<path class="st0" d="M72.8,29.4c-6.1,0-10.2,4.1-10.2,10.1v22.9c0,6.1,4.1,10.1,10.2,10.1c6.1,0,10.2-4.1,10.2-10.1V39.5
		C83,33.5,78.9,29.4,72.8,29.4z M76.6,62.4c0,2.6-1.5,4.1-3.8,4.1c-2.3,0-3.8-1.5-3.8-4.1V39.5c0-2.6,1.5-4.1,3.8-4.1
		s3.8,1.5,3.8,4.1V62.4z"/>
	<path class="st0" d="M56.8,35.1c0-0.1-0.1-0.1-0.1-0.2c-0.1-0.2-0.2-0.4-0.3-0.6c-0.1-0.1-0.1-0.2-0.2-0.3
		c-0.1-0.1-0.2-0.2-0.3-0.4c-0.1-0.1-0.1-0.2-0.2-0.3c-0.1-0.2-0.3-0.3-0.4-0.5c0,0-0.9-1.1-2.7-1.9c0,0-0.1,0-0.1-0.1
		c-0.4-0.2-0.8-0.3-1.3-0.5c0,0-0.1,0-0.1,0c-0.2-0.1-0.5-0.1-0.8-0.2c-0.1,0-0.2,0-0.3-0.1c-0.2,0-0.5-0.1-0.7-0.1
		c-0.1,0-0.2,0-0.3,0c-0.3,0-0.7,0-1,0h-10v42h6.4v-17h3.6c0,0,0.4,0,1,0c0.1,0,0.2,0,0.3,0c0.1,0,0.1,0,0.2,0
		c1.6-0.2,3-0.6,4.2-1.4c0,0,0,0,0,0c0.1-0.1,0.3-0.2,0.4-0.3c0.1-0.1,0.3-0.2,0.4-0.3c0.1,0,0.1-0.1,0.2-0.1
		c0.2-0.2,0.4-0.3,0.5-0.5c0,0,0.1-0.1,0.1-0.1c0.2-0.2,0.3-0.3,0.4-0.5c0.1-0.1,0.2-0.2,0.2-0.3c0,0,0.1-0.1,0.1-0.1
		c0,0,0.1-0.1,0.2-0.3c0.6-0.9,1-1.9,1.3-3c0-0.1,0.1-0.3,0.1-0.4c0-0.2,0.1-0.4,0.1-0.5c0,0,0,0,0-0.1c0,0,0-0.1,0-0.2
		c0.1-0.6,0.1-1.2,0.1-1.8v-0.5c0-1.3,0.1-3.1,0-5.4C57.8,39.1,57.8,37.2,56.8,35.1z M44.2,36l4,0c1,0.1,1.8,0.6,2.4,1.3
		c0,0,0,0.1,0.1,0.1c0.1,0.1,0.1,0.2,0.2,0.2c0.3,0.4,0.5,1,0.6,1.7c0,0.2,0,0.4,0,0.7V45c0,0.1,0,0.3,0,0.4c0,0.3-0.1,0.9-0.3,1.4
		c0,0,0,0.1-0.1,0.1c0,0-0.1,0.1-0.1,0.1c-0.3,0.5-0.7,1-1.3,1.3c-0.5,0.3-1.2,0.5-2.2,0.5h-3.3V36z"/>
	<path class="st0" d="M105,53.5c0.1-0.1,0.3-0.2,0.4-0.3c0.1-0.1,0.3-0.2,0.4-0.3c0.1,0,0.1-0.1,0.2-0.1c0.2-0.2,0.4-0.3,0.5-0.5
		c0,0,0.1-0.1,0.1-0.1c0.2-0.2,0.3-0.3,0.4-0.5c0.1-0.1,0.2-0.2,0.2-0.3c0.1-0.1,0.2-0.3,0.3-0.5c0.3-0.5,0.9-1.6,1.3-3
		c0-0.1,0.1-0.3,0.1-0.4c0-0.2,0.1-0.4,0.1-0.5c0-0.1,0-0.2,0-0.2c0-0.3,0.1-1.1,0.1-2.3V40c0-1.8-0.4-3.5-1-4.9
		c0-0.1-0.1-0.1-0.1-0.2c-0.1-0.2-0.2-0.4-0.3-0.6c-0.1-0.1-0.1-0.2-0.2-0.3c-0.1-0.1-0.2-0.2-0.3-0.4c-0.1-0.1-0.1-0.2-0.2-0.3
		c-1.1-1.4-2.7-2.4-4.6-3c0,0-0.1,0-0.1,0c-0.2-0.1-0.5-0.1-0.8-0.2c-0.1,0-0.2,0-0.3-0.1c-0.2,0-0.5-0.1-0.7-0.1
		c-0.1,0-0.2,0-0.3,0c-0.3,0-0.7,0-1,0h-10v42h6.4v-17h3.4l4.5,17l6.6,0L105,53.5C105,53.5,105,53.5,105,53.5z M95.8,36L95.8,36
		L95.8,36h3.4c0.2,0,0.5,0,0.7,0c0,0,1.4,0,2.4,1.3c0,0,0,0.1,0.1,0.1c0.1,0.1,0.1,0.1,0.2,0.2c0.3,0.5,0.5,1.1,0.6,1.7
		c0,0,0,0.1,0,0.1l0,5.7c0,0,0,0.2,0,0.4c0,0.1,0,0.2,0,0.3c0,0.4-0.2,0.8-0.3,1.1c0,0,0,0.1-0.1,0.1c0,0-0.1,0.1-0.1,0.1
		c-0.3,0.5-0.7,0.9-1.3,1.3c-0.5,0.3-1,0.5-1.6,0.5c-0.2,0-0.4,0-0.6,0h0h-3.3h0l0,0l-0.1,0L95.8,36L95.8,36z M92.4,69.2l0-0.1l0,0
		V69.2z"/>
	<path class="st0" d="M170.9,29.4c-3.1,0-5.6,1-7.4,2.8c-1.8,1.8-2.8,4.3-2.8,7.3v22.9c0,6.1,4.1,10.1,10.2,10.1
		c6.1,0,10.2-4.1,10.2-10.1V39.5c0-0.4,0-0.8,0-1.1C180.6,33,176.6,29.4,170.9,29.4z M170.9,66.6c-2,0-3.5-1.1-3.8-3.2
		c0-0.3-0.1-0.6-0.1-0.9V39.5c0-2.6,1.5-4.1,3.8-4.1s3.8,1.5,3.8,4.1v22.9C174.7,65.1,173.2,66.6,170.9,66.6z"/>
	<polygon class="st0" points="113.4,30 113.4,36 120.3,36 120.3,72 126.7,72 126.7,36 133.6,36 133.6,36 133.6,36 133.6,30
		133.6,30 	"/>
	<polygon class="st0" points="210.1,30 210.1,30 210.1,72 210.1,72 210.1,72 216.5,72 216.5,72 216.5,72 216.5,30 216.5,30 	"/>
	<polygon class="st0" points="205.2,66 205.2,66 205.2,66 193.9,66 193.9,30 193.9,30 193.9,30 187.5,30 187.5,30 187.5,72
		187.5,72 205.2,72 205.2,72 	"/>
	<polygon class="st0" points="156.3,30 156.3,30 138.6,30 138.6,72 138.6,72 138.6,72 144.9,72 144.9,54.3 153.9,54.3 153.9,54.3
		153.9,54.3 153.9,48.3 144.9,48.3 144.9,36 154.7,36 156.3,36 156.3,36 156.3,36 156.3,30 156.3,30 	"/>
</g>
<g>
	<path class="st0" d="M242.3,40.4c-0.5-5.4-4.4-9-10.2-9c-3.4,0-6.2,1.3-8,3.5c-1.4,1.7-2.2,4-2.2,6.6v22.9
		c0,6.1,4.1,10.1,10.2,10.1c6.1,0,10.2-4.1,10.2-10.1V41.5C242.3,41.1,242.3,40.8,242.3,40.4z M232.1,68.6c-2,0-3.5-1.1-3.8-3.2
		c0-0.3-0.1-0.6-0.1-0.9V41.5c0-2.6,1.5-4.1,3.8-4.1s3.8,1.5,3.8,4.1v22.9C236,67.1,234.5,68.6,232.1,68.6z"/>
	<path class="st0" d="M71.8,31.4c-6.1,0-10.2,4.1-10.2,10.1v22.9c0,6.1,4.1,10.1,10.2,10.1c6.1,0,10.2-4.1,10.2-10.1V41.5
		C82,35.5,77.9,31.4,71.8,31.4z M75.6,64.4c0,2.6-1.5,4.1-3.8,4.1c-2.3,0-3.8-1.5-3.8-4.1V41.5c0-2.6,1.5-4.1,3.8-4.1
		s3.8,1.5,3.8,4.1V64.4z"/>
	<path class="st0" d="M55.8,37.1c0-0.1-0.1-0.1-0.1-0.2c-0.1-0.2-0.2-0.4-0.3-0.6c-0.1-0.1-0.1-0.2-0.2-0.3
		c-0.1-0.1-0.2-0.2-0.3-0.4c-0.1-0.1-0.1-0.2-0.2-0.3c-0.1-0.2-0.3-0.3-0.4-0.5c0,0-0.9-1.1-2.7-1.9c0,0-0.1,0-0.1-0.1
		c-0.4-0.2-0.8-0.3-1.3-0.5c0,0-0.1,0-0.1,0c-0.2-0.1-0.5-0.1-0.8-0.2c-0.1,0-0.2,0-0.3-0.1c-0.2,0-0.5-0.1-0.7-0.1
		c-0.1,0-0.2,0-0.3,0c-0.3,0-0.7,0-1,0h-10v42h6.4v-17h3.6c0,0,0.4,0,1,0c0.1,0,0.2,0,0.3,0c0.1,0,0.1,0,0.2,0
		c1.6-0.2,3-0.6,4.2-1.4c0,0,0,0,0,0c0.1-0.1,0.3-0.2,0.4-0.3c0.1-0.1,0.3-0.2,0.4-0.3c0.1,0,0.1-0.1,0.2-0.1
		c0.2-0.2,0.4-0.3,0.5-0.5c0,0,0.1-0.1,0.1-0.1c0.2-0.2,0.3-0.3,0.4-0.5c0.1-0.1,0.2-0.2,0.2-0.3c0,0,0.1-0.1,0.1-0.1
		c0,0,0.1-0.1,0.2-0.3c0.6-0.9,1-1.9,1.3-3c0-0.1,0.1-0.3,0.1-0.4c0-0.2,0.1-0.4,0.1-0.5c0,0,0,0,0-0.1c0,0,0-0.1,0-0.2
		c0.1-0.6,0.1-1.2,0.1-1.8v-0.5c0-1.3,0.1-3.1,0-5.4C56.8,41.1,56.8,39.2,55.8,37.1z M43.2,38l4,0c1,0.1,1.8,0.6,2.4,1.3
		c0,0,0,0.1,0.1,0.1c0.1,0.1,0.1,0.2,0.2,0.2c0.3,0.4,0.5,1,0.6,1.7c0,0.2,0,0.4,0,0.7V47c0,0.1,0,0.3,0,0.4c0,0.3-0.1,0.9-0.3,1.4
		c0,0,0,0.1-0.1,0.1c0,0-0.1,0.1-0.1,0.1c-0.3,0.5-0.7,1-1.3,1.3c-0.5,0.3-1.2,0.5-2.2,0.5h-3.3V38z"/>
	<path class="st0" d="M104,55.5c0.1-0.1,0.3-0.2,0.4-0.3c0.1-0.1,0.3-0.2,0.4-0.3c0.1,0,0.1-0.1,0.2-0.1c0.2-0.2,0.4-0.3,0.5-0.5
		c0,0,0.1-0.1,0.1-0.1c0.2-0.2,0.3-0.3,0.4-0.5c0.1-0.1,0.2-0.2,0.2-0.3c0.1-0.1,0.2-0.3,0.3-0.5c0.3-0.5,0.9-1.6,1.3-3
		c0-0.1,0.1-0.3,0.1-0.4c0-0.2,0.1-0.4,0.1-0.5c0-0.1,0-0.2,0-0.2c0-0.3,0.1-1.1,0.1-2.3V42c0-1.8-0.4-3.5-1-4.9
		c0-0.1-0.1-0.1-0.1-0.2c-0.1-0.2-0.2-0.4-0.3-0.6c-0.1-0.1-0.1-0.2-0.2-0.3c-0.1-0.1-0.2-0.2-0.3-0.4c-0.1-0.1-0.1-0.2-0.2-0.3
		c-1.1-1.4-2.7-2.4-4.6-3c0,0-0.1,0-0.1,0c-0.2-0.1-0.5-0.1-0.8-0.2c-0.1,0-0.2,0-0.3-0.1c-0.2,0-0.5-0.1-0.7-0.1
		c-0.1,0-0.2,0-0.3,0c-0.3,0-0.7,0-1,0h-10v42h6.4v-17h3.4l4.5,17l6.6,0L104,55.5C104,55.5,104,55.5,104,55.5z M94.8,38L94.8,38
		L94.8,38h3.4c0.2,0,0.5,0,0.7,0c0,0,1.4,0,2.4,1.3c0,0,0,0.1,0.1,0.1c0.1,0.1,0.1,0.1,0.2,0.2c0.3,0.5,0.5,1.1,0.6,1.7
		c0,0,0,0.1,0,0.1l0,5.7c0,0,0,0.2,0,0.4c0,0.1,0,0.2,0,0.3c0,0.4-0.2,0.8-0.3,1.1c0,0,0,0.1-0.1,0.1c0,0-0.1,0.1-0.1,0.1
		c-0.3,0.5-0.7,0.9-1.3,1.3c-0.5,0.3-1,0.5-1.6,0.5c-0.2,0-0.4,0-0.6,0h0h-3.3h0l0,0l-0.1,0L94.8,38L94.8,38z M91.4,71.2l0-0.1l0,0
		V71.2z"/>
	<path class="st0" d="M169.9,31.4c-3.1,0-5.6,1-7.4,2.8c-1.8,1.8-2.8,4.3-2.8,7.3v22.9c0,6.1,4.1,10.1,10.2,10.1
		c6.1,0,10.2-4.1,10.2-10.1V41.5c0-0.4,0-0.8,0-1.1C179.6,35,175.6,31.4,169.9,31.4z M169.9,68.6c-2,0-3.5-1.1-3.8-3.2
		c0-0.3-0.1-0.6-0.1-0.9V41.5c0-2.6,1.5-4.1,3.8-4.1s3.8,1.5,3.8,4.1v22.9C173.7,67.1,172.2,68.6,169.9,68.6z"/>
	<polygon class="st0" points="112.4,32 112.4,38 119.3,38 119.3,74 125.7,74 125.7,38 132.6,38 132.6,38 132.6,38 132.6,32
		132.6,32 	"/>
	<polygon class="st0" points="209.1,32 209.1,32 209.1,74 209.1,74 209.1,74 215.5,74 215.5,74 215.5,74 215.5,32 215.5,32 	"/>
	<polygon class="st0" points="204.2,68 204.2,68 204.2,68 192.9,68 192.9,32 192.9,32 192.9,32 186.5,32 186.5,32 186.5,74
		186.5,74 204.2,74 204.2,74 	"/>
	<polygon class="st0" points="155.3,32 155.3,32 137.6,32 137.6,74 137.6,74 137.6,74 143.9,74 143.9,56.3 152.9,56.3 152.9,56.3
		152.9,56.3 152.9,50.3 143.9,50.3 143.9,38 153.7,38 155.3,38 155.3,38 155.3,38 155.3,32 155.3,32 	"/>
</g>
<g>
	<path class="st0" d="M242.3,39.4c-0.5-5.4-4.4-9-10.2-9c-3.4,0-6.2,1.3-8,3.5c-1.4,1.7-2.2,4-2.2,6.6v22.9
		c0,6.1,4.1,10.1,10.2,10.1c6.1,0,10.2-4.1,10.2-10.1V40.5C242.3,40.1,242.3,39.8,242.3,39.4z M232.1,67.6c-2,0-3.5-1.1-3.8-3.2
		c0-0.3-0.1-0.6-0.1-0.9V40.5c0-2.6,1.5-4.1,3.8-4.1s3.8,1.5,3.8,4.1v22.9C236,66.1,234.5,67.6,232.1,67.6z"/>
	<path class="st0" d="M71.8,30.4c-6.1,0-10.2,4.1-10.2,10.1v22.9c0,6.1,4.1,10.1,10.2,10.1c6.1,0,10.2-4.1,10.2-10.1V40.5
		C82,34.5,77.9,30.4,71.8,30.4z M75.6,63.4c0,2.6-1.5,4.1-3.8,4.1c-2.3,0-3.8-1.5-3.8-4.1V40.5c0-2.6,1.5-4.1,3.8-4.1
		s3.8,1.5,3.8,4.1V63.4z"/>
	<path class="st0" d="M55.8,36.1c0-0.1-0.1-0.1-0.1-0.2c-0.1-0.2-0.2-0.4-0.3-0.6c-0.1-0.1-0.1-0.2-0.2-0.3
		c-0.1-0.1-0.2-0.2-0.3-0.4c-0.1-0.1-0.1-0.2-0.2-0.3c-0.1-0.2-0.3-0.3-0.4-0.5c0,0-0.9-1.1-2.7-1.9c0,0-0.1,0-0.1-0.1
		c-0.4-0.2-0.8-0.3-1.3-0.5c0,0-0.1,0-0.1,0c-0.2-0.1-0.5-0.1-0.8-0.2c-0.1,0-0.2,0-0.3-0.1c-0.2,0-0.5-0.1-0.7-0.1
		c-0.1,0-0.2,0-0.3,0c-0.3,0-0.7,0-1,0h-10v42h6.4v-17h3.6c0,0,0.4,0,1,0c0.1,0,0.2,0,0.3,0c0.1,0,0.1,0,0.2,0
		c1.6-0.2,3-0.6,4.2-1.4c0,0,0,0,0,0c0.1-0.1,0.3-0.2,0.4-0.3c0.1-0.1,0.3-0.2,0.4-0.3c0.1,0,0.1-0.1,0.2-0.1
		c0.2-0.2,0.4-0.3,0.5-0.5c0,0,0.1-0.1,0.1-0.1c0.2-0.2,0.3-0.3,0.4-0.5c0.1-0.1,0.2-0.2,0.2-0.3c0,0,0.1-0.1,0.1-0.1
		c0,0,0.1-0.1,0.2-0.3c0.6-0.9,1-1.9,1.3-3c0-0.1,0.1-0.3,0.1-0.4c0-0.2,0.1-0.4,0.1-0.5c0,0,0,0,0-0.1c0,0,0-0.1,0-0.2
		c0.1-0.6,0.1-1.2,0.1-1.8v-0.5c0-1.3,0.1-3.1,0-5.4C56.8,40.1,56.8,38.2,55.8,36.1z M43.2,37l4,0c1,0.1,1.8,0.6,2.4,1.3
		c0,0,0,0.1,0.1,0.1c0.1,0.1,0.1,0.2,0.2,0.2c0.3,0.4,0.5,1,0.6,1.7c0,0.2,0,0.4,0,0.7V46c0,0.1,0,0.3,0,0.4c0,0.3-0.1,0.9-0.3,1.4
		c0,0,0,0.1-0.1,0.1c0,0-0.1,0.1-0.1,0.1c-0.3,0.5-0.7,1-1.3,1.3c-0.5,0.3-1.2,0.5-2.2,0.5h-3.3V37z"/>
	<path class="st0" d="M104,54.5c0.1-0.1,0.3-0.2,0.4-0.3c0.1-0.1,0.3-0.2,0.4-0.3c0.1,0,0.1-0.1,0.2-0.1c0.2-0.2,0.4-0.3,0.5-0.5
		c0,0,0.1-0.1,0.1-0.1c0.2-0.2,0.3-0.3,0.4-0.5c0.1-0.1,0.2-0.2,0.2-0.3c0.1-0.1,0.2-0.3,0.3-0.5c0.3-0.5,0.9-1.6,1.3-3
		c0-0.1,0.1-0.3,0.1-0.4c0-0.2,0.1-0.4,0.1-0.5c0-0.1,0-0.2,0-0.2c0-0.3,0.1-1.1,0.1-2.3V41c0-1.8-0.4-3.5-1-4.9
		c0-0.1-0.1-0.1-0.1-0.2c-0.1-0.2-0.2-0.4-0.3-0.6c-0.1-0.1-0.1-0.2-0.2-0.3c-0.1-0.1-0.2-0.2-0.3-0.4c-0.1-0.1-0.1-0.2-0.2-0.3
		c-1.1-1.4-2.7-2.4-4.6-3c0,0-0.1,0-0.1,0c-0.2-0.1-0.5-0.1-0.8-0.2c-0.1,0-0.2,0-0.3-0.1c-0.2,0-0.5-0.1-0.7-0.1
		c-0.1,0-0.2,0-0.3,0c-0.3,0-0.7,0-1,0h-10v42h6.4v-17h3.4l4.5,17l6.6,0L104,54.5C104,54.5,104,54.5,104,54.5z M94.8,37L94.8,37
		L94.8,37h3.4c0.2,0,0.5,0,0.7,0c0,0,1.4,0,2.4,1.3c0,0,0,0.1,0.1,0.1c0.1,0.1,0.1,0.1,0.2,0.2c0.3,0.5,0.5,1.1,0.6,1.7
		c0,0,0,0.1,0,0.1l0,5.7c0,0,0,0.2,0,0.4c0,0.1,0,0.2,0,0.3c0,0.4-0.2,0.8-0.3,1.1c0,0,0,0.1-0.1,0.1c0,0-0.1,0.1-0.1,0.1
		c-0.3,0.5-0.7,0.9-1.3,1.3c-0.5,0.3-1,0.5-1.6,0.5c-0.2,0-0.4,0-0.6,0h0h-3.3h0l0,0l-0.1,0L94.8,37L94.8,37z M91.4,70.2l0-0.1l0,0
		V70.2z"/>
	<path class="st0" d="M169.9,30.4c-3.1,0-5.6,1-7.4,2.8c-1.8,1.8-2.8,4.3-2.8,7.3v22.9c0,6.1,4.1,10.1,10.2,10.1
		c6.1,0,10.2-4.1,10.2-10.1V40.5c0-0.4,0-0.8,0-1.1C179.6,34,175.6,30.4,169.9,30.4z M169.9,67.6c-2,0-3.5-1.1-3.8-3.2
		c0-0.3-0.1-0.6-0.1-0.9V40.5c0-2.6,1.5-4.1,3.8-4.1s3.8,1.5,3.8,4.1v22.9C173.7,66.1,172.2,67.6,169.9,67.6z"/>
	<polygon class="st0" points="112.4,31 112.4,37 119.3,37 119.3,73 125.7,73 125.7,37 132.6,37 132.6,37 132.6,37 132.6,31
		132.6,31 	"/>
	<polygon class="st0" points="209.1,31 209.1,31 209.1,73 209.1,73 209.1,73 215.5,73 215.5,73 215.5,73 215.5,31 215.5,31 	"/>
	<polygon class="st0" points="204.2,67 204.2,67 204.2,67 192.9,67 192.9,31 192.9,31 192.9,31 186.5,31 186.5,31 186.5,73
		186.5,73 204.2,73 204.2,73 	"/>
	<polygon class="st0" points="155.3,31 155.3,31 137.6,31 137.6,73 137.6,73 137.6,73 143.9,73 143.9,55.3 152.9,55.3 152.9,55.3
		152.9,55.3 152.9,49.3 143.9,49.3 143.9,37 153.7,37 155.3,37 155.3,37 155.3,37 155.3,31 155.3,31 	"/>
</g>
<g>
	<path class="st0" d="M244.3,39.4c-0.5-5.4-4.4-9-10.2-9c-3.4,0-6.2,1.3-8,3.5c-1.4,1.7-2.2,4-2.2,6.6v22.9
		c0,6.1,4.1,10.1,10.2,10.1c6.1,0,10.2-4.1,10.2-10.1V40.5C244.3,40.1,244.3,39.8,244.3,39.4z M234.1,67.6c-2,0-3.5-1.1-3.8-3.2
		c0-0.3-0.1-0.6-0.1-0.9V40.5c0-2.6,1.5-4.1,3.8-4.1s3.8,1.5,3.8,4.1v22.9C238,66.1,236.5,67.6,234.1,67.6z"/>
	<path class="st0" d="M73.8,30.4c-6.1,0-10.2,4.1-10.2,10.1v22.9c0,6.1,4.1,10.1,10.2,10.1c6.1,0,10.2-4.1,10.2-10.1V40.5
		C84,34.5,79.9,30.4,73.8,30.4z M77.6,63.4c0,2.6-1.5,4.1-3.8,4.1c-2.3,0-3.8-1.5-3.8-4.1V40.5c0-2.6,1.5-4.1,3.8-4.1
		s3.8,1.5,3.8,4.1V63.4z"/>
	<path class="st0" d="M57.8,36.1c0-0.1-0.1-0.1-0.1-0.2c-0.1-0.2-0.2-0.4-0.3-0.6c-0.1-0.1-0.1-0.2-0.2-0.3
		c-0.1-0.1-0.2-0.2-0.3-0.4c-0.1-0.1-0.1-0.2-0.2-0.3c-0.1-0.2-0.3-0.3-0.4-0.5c0,0-0.9-1.1-2.7-1.9c0,0-0.1,0-0.1-0.1
		c-0.4-0.2-0.8-0.3-1.3-0.5c0,0-0.1,0-0.1,0c-0.2-0.1-0.5-0.1-0.8-0.2c-0.1,0-0.2,0-0.3-0.1c-0.2,0-0.5-0.1-0.7-0.1
		c-0.1,0-0.2,0-0.3,0c-0.3,0-0.7,0-1,0h-10v42h6.4v-17h3.6c0,0,0.4,0,1,0c0.1,0,0.2,0,0.3,0c0.1,0,0.1,0,0.2,0
		c1.6-0.2,3-0.6,4.2-1.4c0,0,0,0,0,0c0.1-0.1,0.3-0.2,0.4-0.3c0.1-0.1,0.3-0.2,0.4-0.3c0.1,0,0.1-0.1,0.2-0.1
		c0.2-0.2,0.4-0.3,0.5-0.5c0,0,0.1-0.1,0.1-0.1c0.2-0.2,0.3-0.3,0.4-0.5c0.1-0.1,0.2-0.2,0.2-0.3c0,0,0.1-0.1,0.1-0.1
		c0,0,0.1-0.1,0.2-0.3c0.6-0.9,1-1.9,1.3-3c0-0.1,0.1-0.3,0.1-0.4c0-0.2,0.1-0.4,0.1-0.5c0,0,0,0,0-0.1c0,0,0-0.1,0-0.2
		c0.1-0.6,0.1-1.2,0.1-1.8v-0.5c0-1.3,0.1-3.1,0-5.4C58.8,40.1,58.8,38.2,57.8,36.1z M45.2,37l4,0c1,0.1,1.8,0.6,2.4,1.3
		c0,0,0,0.1,0.1,0.1c0.1,0.1,0.1,0.2,0.2,0.2c0.3,0.4,0.5,1,0.6,1.7c0,0.2,0,0.4,0,0.7V46c0,0.1,0,0.3,0,0.4c0,0.3-0.1,0.9-0.3,1.4
		c0,0,0,0.1-0.1,0.1c0,0-0.1,0.1-0.1,0.1c-0.3,0.5-0.7,1-1.3,1.3c-0.5,0.3-1.2,0.5-2.2,0.5h-3.3V37z"/>
	<path class="st0" d="M106,54.5c0.1-0.1,0.3-0.2,0.4-0.3c0.1-0.1,0.3-0.2,0.4-0.3c0.1,0,0.1-0.1,0.2-0.1c0.2-0.2,0.4-0.3,0.5-0.5
		c0,0,0.1-0.1,0.1-0.1c0.2-0.2,0.3-0.3,0.4-0.5c0.1-0.1,0.2-0.2,0.2-0.3c0.1-0.1,0.2-0.3,0.3-0.5c0.3-0.5,0.9-1.6,1.3-3
		c0-0.1,0.1-0.3,0.1-0.4c0-0.2,0.1-0.4,0.1-0.5c0-0.1,0-0.2,0-0.2c0-0.3,0.1-1.1,0.1-2.3V41c0-1.8-0.4-3.5-1-4.9
		c0-0.1-0.1-0.1-0.1-0.2c-0.1-0.2-0.2-0.4-0.3-0.6c-0.1-0.1-0.1-0.2-0.2-0.3c-0.1-0.1-0.2-0.2-0.3-0.4c-0.1-0.1-0.1-0.2-0.2-0.3
		c-1.1-1.4-2.7-2.4-4.6-3c0,0-0.1,0-0.1,0c-0.2-0.1-0.5-0.1-0.8-0.2c-0.1,0-0.2,0-0.3-0.1c-0.2,0-0.5-0.1-0.7-0.1
		c-0.1,0-0.2,0-0.3,0c-0.3,0-0.7,0-1,0h-10v42h6.4v-17h3.4l4.5,17l6.6,0L106,54.5C106,54.5,106,54.5,106,54.5z M96.8,37L96.8,37
		L96.8,37h3.4c0.2,0,0.5,0,0.7,0c0,0,1.4,0,2.4,1.3c0,0,0,0.1,0.1,0.1c0.1,0.1,0.1,0.1,0.2,0.2c0.3,0.5,0.5,1.1,0.6,1.7
		c0,0,0,0.1,0,0.1l0,5.7c0,0,0,0.2,0,0.4c0,0.1,0,0.2,0,0.3c0,0.4-0.2,0.8-0.3,1.1c0,0,0,0.1-0.1,0.1c0,0-0.1,0.1-0.1,0.1
		c-0.3,0.5-0.7,0.9-1.3,1.3c-0.5,0.3-1,0.5-1.6,0.5c-0.2,0-0.4,0-0.6,0h0h-3.3h0l0,0l-0.1,0L96.8,37L96.8,37z M93.4,70.2l0-0.1l0,0
		V70.2z"/>
	<path class="st0" d="M171.9,30.4c-3.1,0-5.6,1-7.4,2.8c-1.8,1.8-2.8,4.3-2.8,7.3v22.9c0,6.1,4.1,10.1,10.2,10.1
		c6.1,0,10.2-4.1,10.2-10.1V40.5c0-0.4,0-0.8,0-1.1C181.6,34,177.6,30.4,171.9,30.4z M171.9,67.6c-2,0-3.5-1.1-3.8-3.2
		c0-0.3-0.1-0.6-0.1-0.9V40.5c0-2.6,1.5-4.1,3.8-4.1s3.8,1.5,3.8,4.1v22.9C175.7,66.1,174.2,67.6,171.9,67.6z"/>
	<polygon class="st0" points="114.4,31 114.4,37 121.3,37 121.3,73 127.7,73 127.7,37 134.6,37 134.6,37 134.6,37 134.6,31
		134.6,31 	"/>
	<polygon class="st0" points="211.1,31 211.1,31 211.1,73 211.1,73 211.1,73 217.5,73 217.5,73 217.5,73 217.5,31 217.5,31 	"/>
	<polygon class="st0" points="206.2,67 206.2,67 206.2,67 194.9,67 194.9,31 194.9,31 194.9,31 188.5,31 188.5,31 188.5,73
		188.5,73 206.2,73 206.2,73 	"/>
	<polygon class="st0" points="157.3,31 157.3,31 139.6,31 139.6,73 139.6,73 139.6,73 145.9,73 145.9,55.3 154.9,55.3 154.9,55.3
		154.9,55.3 154.9,49.3 145.9,49.3 145.9,37 155.7,37 157.3,37 157.3,37 157.3,37 157.3,31 157.3,31 	"/>
</g>
<g>
	<path class="st0" d="M243.3,40.4c-0.5-5.4-4.4-9-10.2-9c-3.4,0-6.2,1.3-8,3.5c-1.4,1.7-2.2,4-2.2,6.6v22.9
		c0,6.1,4.1,10.1,10.2,10.1c6.1,0,10.2-4.1,10.2-10.1V41.5C243.3,41.1,243.3,40.8,243.3,40.4z M233.1,68.6c-2,0-3.5-1.1-3.8-3.2
		c0-0.3-0.1-0.6-0.1-0.9V41.5c0-2.6,1.5-4.1,3.8-4.1s3.8,1.5,3.8,4.1v22.9C237,67.1,235.5,68.6,233.1,68.6z"/>
	<path class="st0" d="M72.8,31.4c-6.1,0-10.2,4.1-10.2,10.1v22.9c0,6.1,4.1,10.1,10.2,10.1c6.1,0,10.2-4.1,10.2-10.1V41.5
		C83,35.5,78.9,31.4,72.8,31.4z M76.6,64.4c0,2.6-1.5,4.1-3.8,4.1c-2.3,0-3.8-1.5-3.8-4.1V41.5c0-2.6,1.5-4.1,3.8-4.1
		s3.8,1.5,3.8,4.1V64.4z"/>
	<path class="st0" d="M56.8,37.1c0-0.1-0.1-0.1-0.1-0.2c-0.1-0.2-0.2-0.4-0.3-0.6c-0.1-0.1-0.1-0.2-0.2-0.3
		c-0.1-0.1-0.2-0.2-0.3-0.4c-0.1-0.1-0.1-0.2-0.2-0.3c-0.1-0.2-0.3-0.3-0.4-0.5c0,0-0.9-1.1-2.7-1.9c0,0-0.1,0-0.1-0.1
		c-0.4-0.2-0.8-0.3-1.3-0.5c0,0-0.1,0-0.1,0c-0.2-0.1-0.5-0.1-0.8-0.2c-0.1,0-0.2,0-0.3-0.1c-0.2,0-0.5-0.1-0.7-0.1
		c-0.1,0-0.2,0-0.3,0c-0.3,0-0.7,0-1,0h-10v42h6.4v-17h3.6c0,0,0.4,0,1,0c0.1,0,0.2,0,0.3,0c0.1,0,0.1,0,0.2,0
		c1.6-0.2,3-0.6,4.2-1.4c0,0,0,0,0,0c0.1-0.1,0.3-0.2,0.4-0.3c0.1-0.1,0.3-0.2,0.4-0.3c0.1,0,0.1-0.1,0.2-0.1
		c0.2-0.2,0.4-0.3,0.5-0.5c0,0,0.1-0.1,0.1-0.1c0.2-0.2,0.3-0.3,0.4-0.5c0.1-0.1,0.2-0.2,0.2-0.3c0,0,0.1-0.1,0.1-0.1
		c0,0,0.1-0.1,0.2-0.3c0.6-0.9,1-1.9,1.3-3c0-0.1,0.1-0.3,0.1-0.4c0-0.2,0.1-0.4,0.1-0.5c0,0,0,0,0-0.1c0,0,0-0.1,0-0.2
		c0.1-0.6,0.1-1.2,0.1-1.8v-0.5c0-1.3,0.1-3.1,0-5.4C57.8,41.1,57.8,39.2,56.8,37.1z M44.2,38l4,0c1,0.1,1.8,0.6,2.4,1.3
		c0,0,0,0.1,0.1,0.1c0.1,0.1,0.1,0.2,0.2,0.2c0.3,0.4,0.5,1,0.6,1.7c0,0.2,0,0.4,0,0.7V47c0,0.1,0,0.3,0,0.4c0,0.3-0.1,0.9-0.3,1.4
		c0,0,0,0.1-0.1,0.1c0,0-0.1,0.1-0.1,0.1c-0.3,0.5-0.7,1-1.3,1.3c-0.5,0.3-1.2,0.5-2.2,0.5h-3.3V38z"/>
	<path class="st0" d="M105,55.5c0.1-0.1,0.3-0.2,0.4-0.3c0.1-0.1,0.3-0.2,0.4-0.3c0.1,0,0.1-0.1,0.2-0.1c0.2-0.2,0.4-0.3,0.5-0.5
		c0,0,0.1-0.1,0.1-0.1c0.2-0.2,0.3-0.3,0.4-0.5c0.1-0.1,0.2-0.2,0.2-0.3c0.1-0.1,0.2-0.3,0.3-0.5c0.3-0.5,0.9-1.6,1.3-3
		c0-0.1,0.1-0.3,0.1-0.4c0-0.2,0.1-0.4,0.1-0.5c0-0.1,0-0.2,0-0.2c0-0.3,0.1-1.1,0.1-2.3V42c0-1.8-0.4-3.5-1-4.9
		c0-0.1-0.1-0.1-0.1-0.2c-0.1-0.2-0.2-0.4-0.3-0.6c-0.1-0.1-0.1-0.2-0.2-0.3c-0.1-0.1-0.2-0.2-0.3-0.4c-0.1-0.1-0.1-0.2-0.2-0.3
		c-1.1-1.4-2.7-2.4-4.6-3c0,0-0.1,0-0.1,0c-0.2-0.1-0.5-0.1-0.8-0.2c-0.1,0-0.2,0-0.3-0.1c-0.2,0-0.5-0.1-0.7-0.1
		c-0.1,0-0.2,0-0.3,0c-0.3,0-0.7,0-1,0h-10v42h6.4v-17h3.4l4.5,17l6.6,0L105,55.5C105,55.5,105,55.5,105,55.5z M95.8,38L95.8,38
		L95.8,38h3.4c0.2,0,0.5,0,0.7,0c0,0,1.4,0,2.4,1.3c0,0,0,0.1,0.1,0.1c0.1,0.1,0.1,0.1,0.2,0.2c0.3,0.5,0.5,1.1,0.6,1.7
		c0,0,0,0.1,0,0.1l0,5.7c0,0,0,0.2,0,0.4c0,0.1,0,0.2,0,0.3c0,0.4-0.2,0.8-0.3,1.1c0,0,0,0.1-0.1,0.1c0,0-0.1,0.1-0.1,0.1
		c-0.3,0.5-0.7,0.9-1.3,1.3c-0.5,0.3-1,0.5-1.6,0.5c-0.2,0-0.4,0-0.6,0h0h-3.3h0l0,0l-0.1,0L95.8,38L95.8,38z M92.4,71.2l0-0.1l0,0
		V71.2z"/>
	<path class="st0" d="M170.9,31.4c-3.1,0-5.6,1-7.4,2.8c-1.8,1.8-2.8,4.3-2.8,7.3v22.9c0,6.1,4.1,10.1,10.2,10.1
		c6.1,0,10.2-4.1,10.2-10.1V41.5c0-0.4,0-0.8,0-1.1C180.6,35,176.6,31.4,170.9,31.4z M170.9,68.6c-2,0-3.5-1.1-3.8-3.2
		c0-0.3-0.1-0.6-0.1-0.9V41.5c0-2.6,1.5-4.1,3.8-4.1s3.8,1.5,3.8,4.1v22.9C174.7,67.1,173.2,68.6,170.9,68.6z"/>
	<polygon class="st0" points="113.4,32 113.4,38 120.3,38 120.3,74 126.7,74 126.7,38 133.6,38 133.6,38 133.6,38 133.6,32
		133.6,32 	"/>
	<polygon class="st0" points="210.1,32 210.1,32 210.1,74 210.1,74 210.1,74 216.5,74 216.5,74 216.5,74 216.5,32 216.5,32 	"/>
	<polygon class="st0" points="205.2,68 205.2,68 205.2,68 193.9,68 193.9,32 193.9,32 193.9,32 187.5,32 187.5,32 187.5,74
		187.5,74 205.2,74 205.2,74 	"/>
	<polygon class="st0" points="156.3,32 156.3,32 138.6,32 138.6,74 138.6,74 138.6,74 144.9,74 144.9,56.3 153.9,56.3 153.9,56.3
		153.9,56.3 153.9,50.3 144.9,50.3 144.9,38 154.7,38 156.3,38 156.3,38 156.3,38 156.3,32 156.3,32 	"/>
</g>
<g>
	<path class="st0" d="M266.2,66.2c-0.5-5.4-4.4-9-10.2-9c-3.4,0-6.2,1.3-8,3.5c-1.4,1.7-2.2,4-2.2,6.6v22.9
		c0,6.1,4.1,10.1,10.2,10.1c6.1,0,10.2-4.1,10.2-10.1V67.3C266.3,66.9,266.3,66.6,266.2,66.2z M256.1,94.4c-2,0-3.5-1.1-3.8-3.2
		c0-0.3-0.1-0.6-0.1-0.9V67.3c0-2.6,1.5-4.1,3.8-4.1s3.8,1.5,3.8,4.1v22.9C259.9,92.9,258.4,94.4,256.1,94.4z"/>
	<path class="st0" d="M95.8,57.2c-6.1,0-10.2,4.1-10.2,10.1v22.9c0,6.1,4.1,10.1,10.2,10.1c6.1,0,10.2-4.1,10.2-10.1V67.3
		C106,61.2,101.9,57.2,95.8,57.2z M99.6,90.2c0,2.6-1.5,4.1-3.8,4.1c-2.3,0-3.8-1.5-3.8-4.1V67.3c0-2.6,1.5-4.1,3.8-4.1
		s3.8,1.5,3.8,4.1V90.2z"/>
	<path class="st0" d="M79.7,62.9c0-0.1-0.1-0.1-0.1-0.2c-0.1-0.2-0.2-0.4-0.3-0.6c-0.1-0.1-0.1-0.2-0.2-0.3
		c-0.1-0.1-0.2-0.2-0.3-0.4c-0.1-0.1-0.1-0.2-0.2-0.3c-0.1-0.2-0.3-0.3-0.4-0.5c0,0-0.9-1.1-2.7-1.9c0,0-0.1,0-0.1-0.1
		c-0.4-0.2-0.8-0.3-1.3-0.5c0,0-0.1,0-0.1,0c-0.2-0.1-0.5-0.1-0.8-0.2c-0.1,0-0.2,0-0.3-0.1c-0.2,0-0.5-0.1-0.7-0.1
		c-0.1,0-0.2,0-0.3,0c-0.3,0-0.7,0-1,0h-10v42h6.4v-17h3.6c0,0,0.4,0,1,0c0.1,0,0.2,0,0.3,0c0.1,0,0.1,0,0.2,0
		c1.6-0.2,3-0.6,4.2-1.4c0,0,0,0,0,0c0.1-0.1,0.3-0.2,0.4-0.3c0.1-0.1,0.3-0.2,0.4-0.3c0.1,0,0.1-0.1,0.2-0.1
		c0.2-0.2,0.4-0.3,0.5-0.5c0,0,0.1-0.1,0.1-0.1c0.2-0.2,0.3-0.3,0.4-0.5c0.1-0.1,0.2-0.2,0.2-0.3c0,0,0.1-0.1,0.1-0.1
		c0,0,0.1-0.1,0.2-0.3c0.6-0.9,1-1.9,1.3-3c0-0.1,0.1-0.3,0.1-0.4c0-0.2,0.1-0.4,0.1-0.5c0,0,0,0,0-0.1c0,0,0-0.1,0-0.2
		c0.1-0.6,0.1-1.2,0.1-1.8v-0.5c0-1.3,0.1-3.1,0-5.4C80.8,66.8,80.7,65,79.7,62.9z M67.2,63.8l4,0c1,0.1,1.8,0.6,2.4,1.3
		c0,0,0,0.1,0.1,0.1c0.1,0.1,0.1,0.2,0.2,0.2c0.3,0.4,0.5,1,0.6,1.7c0,0.2,0,0.4,0,0.7v5.2c0,0.1,0,0.3,0,0.4c0,0.3-0.1,0.9-0.3,1.4
		c0,0,0,0.1-0.1,0.1c0,0-0.1,0.1-0.1,0.1c-0.3,0.5-0.7,1-1.3,1.3c-0.5,0.3-1.2,0.5-2.2,0.5h-3.3V63.8z"/>
	<path class="st0" d="M128,81.2c0.1-0.1,0.3-0.2,0.4-0.3c0.1-0.1,0.3-0.2,0.4-0.3c0.1,0,0.1-0.1,0.2-0.1c0.2-0.2,0.4-0.3,0.5-0.5
		c0,0,0.1-0.1,0.1-0.1c0.2-0.2,0.3-0.3,0.4-0.5c0.1-0.1,0.2-0.2,0.2-0.3c0.1-0.1,0.2-0.3,0.3-0.5c0.3-0.5,0.9-1.6,1.3-3
		c0-0.1,0.1-0.3,0.1-0.4c0-0.2,0.1-0.4,0.1-0.5c0-0.1,0-0.2,0-0.2c0-0.3,0.1-1.1,0.1-2.3v-4.4c0-1.8-0.4-3.5-1-4.9
		c0-0.1-0.1-0.1-0.1-0.2c-0.1-0.2-0.2-0.4-0.3-0.6c-0.1-0.1-0.1-0.2-0.2-0.3c-0.1-0.1-0.2-0.2-0.3-0.4c-0.1-0.1-0.1-0.2-0.2-0.3
		c-1.1-1.4-2.7-2.4-4.6-3c0,0-0.1,0-0.1,0c-0.2-0.1-0.5-0.1-0.8-0.2c-0.1,0-0.2,0-0.3-0.1c-0.2,0-0.5-0.1-0.7-0.1
		c-0.1,0-0.2,0-0.3,0c-0.3,0-0.7,0-1,0h-10v42h6.4v-17h3.4l4.5,17l6.6,0L128,81.2C128,81.3,128,81.3,128,81.2z M118.7,63.8
		L118.7,63.8L118.7,63.8h3.4c0.2,0,0.5,0,0.7,0c0,0,1.4,0,2.4,1.3c0,0,0,0.1,0.1,0.1c0.1,0.1,0.1,0.1,0.2,0.2
		c0.3,0.5,0.5,1.1,0.6,1.7c0,0,0,0.1,0,0.1l0,5.7c0,0,0,0.2,0,0.4c0,0.1,0,0.2,0,0.3c0,0.4-0.2,0.8-0.3,1.1c0,0,0,0.1-0.1,0.1
		c0,0-0.1,0.1-0.1,0.1c-0.3,0.5-0.7,0.9-1.3,1.3c-0.5,0.3-1,0.5-1.6,0.5c-0.2,0-0.4,0-0.6,0h0h-3.3h0l0,0l-0.1,0L118.7,63.8
		L118.7,63.8z M115.4,97l0-0.1l0,0V97z"/>
	<path class="st0" d="M193.9,57.2c-3.1,0-5.6,1-7.4,2.8c-1.8,1.8-2.8,4.3-2.8,7.3v22.9c0,6.1,4.1,10.1,10.2,10.1
		c6.1,0,10.2-4.1,10.2-10.1V67.3c0-0.4,0-0.8,0-1.1C203.5,60.8,199.6,57.2,193.9,57.2z M193.9,94.4c-2,0-3.5-1.1-3.8-3.2
		c0-0.3-0.1-0.6-0.1-0.9V67.3c0-2.6,1.5-4.1,3.8-4.1s3.8,1.5,3.8,4.1v22.9C197.7,92.9,196.2,94.4,193.9,94.4z"/>
	<polygon class="st0" points="136.3,57.8 136.3,63.8 143.3,63.8 143.3,99.8 149.6,99.8 149.6,63.8 156.6,63.8 156.6,63.8
		156.6,63.8 156.6,57.8 156.6,57.8 	"/>
	<polygon class="st0" points="233.1,57.8 233.1,57.8 233.1,99.8 233.1,99.8 233.1,99.8 239.5,99.8 239.5,99.8 239.5,99.8
		239.5,57.8 239.5,57.8 	"/>
	<polygon class="st0" points="228.2,93.8 228.2,93.8 228.2,93.8 216.8,93.8 216.8,57.8 216.8,57.8 216.8,57.8 210.5,57.8
		210.5,57.8 210.5,99.8 210.5,99.8 228.2,99.8 228.2,99.8 	"/>
	<polygon class="st0" points="179.2,57.8 179.2,57.8 161.5,57.8 161.5,99.8 161.5,99.8 161.5,99.8 167.9,99.8 167.9,82.1
		176.9,82.1 176.9,82 176.9,82 176.9,76 167.9,76.1 167.9,63.8 177.6,63.8 179.2,63.8 179.2,63.8 179.3,63.8 179.3,57.8 179.2,57.8
			"/>
</g>
<g>
	<path class="st0" d="M243.3,39.4c-0.5-5.4-4.4-9-10.2-9c-3.4,0-6.2,1.3-8,3.5c-1.4,1.7-2.2,4-2.2,6.6v22.9
		c0,6.1,4.1,10.1,10.2,10.1c6.1,0,10.2-4.1,10.2-10.1V40.5C243.3,40.1,243.3,39.8,243.3,39.4z M233.1,67.6c-2,0-3.5-1.1-3.8-3.2
		c0-0.3-0.1-0.6-0.1-0.9V40.5c0-2.6,1.5-4.1,3.8-4.1s3.8,1.5,3.8,4.1v22.9C237,66.1,235.5,67.6,233.1,67.6z"/>
	<path class="st0" d="M72.8,30.4c-6.1,0-10.2,4.1-10.2,10.1v22.9c0,6.1,4.1,10.1,10.2,10.1c6.1,0,10.2-4.1,10.2-10.1V40.5
		C83,34.5,78.9,30.4,72.8,30.4z M76.6,63.4c0,2.6-1.5,4.1-3.8,4.1c-2.3,0-3.8-1.5-3.8-4.1V40.5c0-2.6,1.5-4.1,3.8-4.1
		s3.8,1.5,3.8,4.1V63.4z"/>
	<path class="st0" d="M56.8,36.1c0-0.1-0.1-0.1-0.1-0.2c-0.1-0.2-0.2-0.4-0.3-0.6c-0.1-0.1-0.1-0.2-0.2-0.3
		c-0.1-0.1-0.2-0.2-0.3-0.4c-0.1-0.1-0.1-0.2-0.2-0.3c-0.1-0.2-0.3-0.3-0.4-0.5c0,0-0.9-1.1-2.7-1.9c0,0-0.1,0-0.1-0.1
		c-0.4-0.2-0.8-0.3-1.3-0.5c0,0-0.1,0-0.1,0c-0.2-0.1-0.5-0.1-0.8-0.2c-0.1,0-0.2,0-0.3-0.1c-0.2,0-0.5-0.1-0.7-0.1
		c-0.1,0-0.2,0-0.3,0c-0.3,0-0.7,0-1,0h-10v42h6.4v-17h3.6c0,0,0.4,0,1,0c0.1,0,0.2,0,0.3,0c0.1,0,0.1,0,0.2,0
		c1.6-0.2,3-0.6,4.2-1.4c0,0,0,0,0,0c0.1-0.1,0.3-0.2,0.4-0.3c0.1-0.1,0.3-0.2,0.4-0.3c0.1,0,0.1-0.1,0.2-0.1
		c0.2-0.2,0.4-0.3,0.5-0.5c0,0,0.1-0.1,0.1-0.1c0.2-0.2,0.3-0.3,0.4-0.5c0.1-0.1,0.2-0.2,0.2-0.3c0,0,0.1-0.1,0.1-0.1
		c0,0,0.1-0.1,0.2-0.3c0.6-0.9,1-1.9,1.3-3c0-0.1,0.1-0.3,0.1-0.4c0-0.2,0.1-0.4,0.1-0.5c0,0,0,0,0-0.1c0,0,0-0.1,0-0.2
		c0.1-0.6,0.1-1.2,0.1-1.8v-0.5c0-1.3,0.1-3.1,0-5.4C57.8,40.1,57.8,38.2,56.8,36.1z M44.2,37l4,0c1,0.1,1.8,0.6,2.4,1.3
		c0,0,0,0.1,0.1,0.1c0.1,0.1,0.1,0.2,0.2,0.2c0.3,0.4,0.5,1,0.6,1.7c0,0.2,0,0.4,0,0.7V46c0,0.1,0,0.3,0,0.4c0,0.3-0.1,0.9-0.3,1.4
		c0,0,0,0.1-0.1,0.1c0,0-0.1,0.1-0.1,0.1c-0.3,0.5-0.7,1-1.3,1.3c-0.5,0.3-1.2,0.5-2.2,0.5h-3.3V37z"/>
	<path class="st0" d="M105,54.5c0.1-0.1,0.3-0.2,0.4-0.3c0.1-0.1,0.3-0.2,0.4-0.3c0.1,0,0.1-0.1,0.2-0.1c0.2-0.2,0.4-0.3,0.5-0.5
		c0,0,0.1-0.1,0.1-0.1c0.2-0.2,0.3-0.3,0.4-0.5c0.1-0.1,0.2-0.2,0.2-0.3c0.1-0.1,0.2-0.3,0.3-0.5c0.3-0.5,0.9-1.6,1.3-3
		c0-0.1,0.1-0.3,0.1-0.4c0-0.2,0.1-0.4,0.1-0.5c0-0.1,0-0.2,0-0.2c0-0.3,0.1-1.1,0.1-2.3V41c0-1.8-0.4-3.5-1-4.9
		c0-0.1-0.1-0.1-0.1-0.2c-0.1-0.2-0.2-0.4-0.3-0.6c-0.1-0.1-0.1-0.2-0.2-0.3c-0.1-0.1-0.2-0.2-0.3-0.4c-0.1-0.1-0.1-0.2-0.2-0.3
		c-1.1-1.4-2.7-2.4-4.6-3c0,0-0.1,0-0.1,0c-0.2-0.1-0.5-0.1-0.8-0.2c-0.1,0-0.2,0-0.3-0.1c-0.2,0-0.5-0.1-0.7-0.1
		c-0.1,0-0.2,0-0.3,0c-0.3,0-0.7,0-1,0h-10v42h6.4v-17h3.4l4.5,17l6.6,0L105,54.5C105,54.5,105,54.5,105,54.5z M95.8,37L95.8,37
		L95.8,37h3.4c0.2,0,0.5,0,0.7,0c0,0,1.4,0,2.4,1.3c0,0,0,0.1,0.1,0.1c0.1,0.1,0.1,0.1,0.2,0.2c0.3,0.5,0.5,1.1,0.6,1.7
		c0,0,0,0.1,0,0.1l0,5.7c0,0,0,0.2,0,0.4c0,0.1,0,0.2,0,0.3c0,0.4-0.2,0.8-0.3,1.1c0,0,0,0.1-0.1,0.1c0,0-0.1,0.1-0.1,0.1
		c-0.3,0.5-0.7,0.9-1.3,1.3c-0.5,0.3-1,0.5-1.6,0.5c-0.2,0-0.4,0-0.6,0h0h-3.3h0l0,0l-0.1,0L95.8,37L95.8,37z M92.4,70.2l0-0.1l0,0
		V70.2z"/>
	<path class="st0" d="M170.9,30.4c-3.1,0-5.6,1-7.4,2.8c-1.8,1.8-2.8,4.3-2.8,7.3v22.9c0,6.1,4.1,10.1,10.2,10.1
		c6.1,0,10.2-4.1,10.2-10.1V40.5c0-0.4,0-0.8,0-1.1C180.6,34,176.6,30.4,170.9,30.4z M170.9,67.6c-2,0-3.5-1.1-3.8-3.2
		c0-0.3-0.1-0.6-0.1-0.9V40.5c0-2.6,1.5-4.1,3.8-4.1s3.8,1.5,3.8,4.1v22.9C174.7,66.1,173.2,67.6,170.9,67.6z"/>
	<polygon class="st0" points="113.4,31 113.4,37 120.3,37 120.3,73 126.7,73 126.7,37 133.6,37 133.6,37 133.6,37 133.6,31
		133.6,31 	"/>
	<polygon class="st0" points="210.1,31 210.1,31 210.1,73 210.1,73 210.1,73 216.5,73 216.5,73 216.5,73 216.5,31 216.5,31 	"/>
	<polygon class="st0" points="205.2,67 205.2,67 205.2,67 193.9,67 193.9,31 193.9,31 193.9,31 187.5,31 187.5,31 187.5,73
		187.5,73 205.2,73 205.2,73 	"/>
	<polygon class="st0" points="156.3,31 156.3,31 138.6,31 138.6,73 138.6,73 138.6,73 144.9,73 144.9,55.3 153.9,55.3 153.9,55.3
		153.9,55.3 153.9,49.3 144.9,49.3 144.9,37 154.7,37 156.3,37 156.3,37 156.3,37 156.3,31 156.3,31 	"/>
</g>
<path class="st1" d="M105,54.5C105,54.5,105,54.5,105,54.5c0.2-0.1,0.3-0.2,0.4-0.3c0.1-0.1,0.3-0.2,0.4-0.3c0.1,0,0.1-0.1,0.2-0.1
	c0.2-0.2,0.4-0.3,0.5-0.5c0,0,0.1-0.1,0.1-0.1c0.2-0.2,0.3-0.3,0.4-0.5c0.1-0.1,0.2-0.2,0.2-0.3c0.1-0.1,0.2-0.3,0.3-0.5
	c0.3-0.5,0.9-1.6,1.3-3c0-0.1,0.1-0.3,0.1-0.4c0-0.2,0.1-0.4,0.1-0.5c0-0.1,0-0.2,0-0.2c0-0.3,0.1-1.1,0.1-2.3V41
	c0-1.8-0.4-3.5-1-4.9c0-0.1-0.1-0.1-0.1-0.2c-0.1-0.2-0.2-0.4-0.3-0.6c-0.1-0.1-0.1-0.2-0.2-0.3c-0.1-0.1-0.2-0.2-0.3-0.4
	c-0.1-0.1-0.1-0.2-0.2-0.3c-1.1-1.4-2.7-2.4-4.6-3c0,0-0.1,0-0.1,0c-0.2-0.1-0.5-0.1-0.8-0.2c-0.1,0-0.2,0-0.3-0.1
	c-0.2,0-0.5-0.1-0.7-0.1c-0.1,0-0.2,0-0.3,0c-0.3,0-0.7,0-1,0h-10v42h6.4v-17h3.4l4.5,17l6.6,0L105,54.5z M92.4,70.2l0-0.1l0,0V70.2
	z M103.1,46.4c0,0.1,0,0.2,0,0.3c0,0.4-0.2,0.8-0.3,1.1c0,0,0,0.1-0.1,0.1c0,0-0.1,0.1-0.1,0.1c-0.3,0.5-0.7,0.9-1.3,1.3
	c-0.6,0.4-1.4,0.6-2.2,0.5h-3.3l-0.1,0V37l0,0h0.1h3.3c0.2,0,0.5,0,0.7,0c0,0,1.4,0,2.4,1.3c0,0,0,0.1,0.1,0.1
	c0.1,0.1,0.1,0.1,0.2,0.2c0.3,0.5,0.5,1.1,0.6,1.7c0,0,0,0.1,0,0.1l0,5.7C103.1,46,103.1,46.2,103.1,46.4z"/>
<title>port</title>
<path class="st1" d="M113.4,31h20.3v6h-7v36h-6.4V37h-7L113.4,31z"/>
<path class="st1" d="M138.6,31h17.8v6h-11.4v12.3h9v6h-9V73h-6.4V31z"/>
<path class="st1" d="M160.7,63.4V40.5c0-6.1,4.1-10.1,10.2-10.1c6.1,0,10.2,4.1,10.2,10.1v22.9c0,6.1-4.1,10.1-10.2,10.1
	C164.8,73.6,160.7,69.5,160.7,63.4z M174.7,63.4V40.5c0-2.6-1.5-4.1-3.8-4.1s-3.8,1.5-3.8,4.1v22.9c0,2.6,1.5,4.1,3.8,4.1
	S174.7,66.1,174.7,63.4L174.7,63.4z"/>
<path class="st1" d="M187.5,31h6.4v36h11.3v6h-17.7V31z"/>
<path class="st1" d="M210.1,31h6.4v42h-6.4V31z"/>
<path class="st1" d="M222.9,63.4V40.5c0-6.1,4.1-10.1,10.2-10.1c6.1,0,10.2,4.1,10.2,10.1v22.9c0,6.1-4.1,10.1-10.2,10.1
	C227,73.6,222.9,69.5,222.9,63.4z M237,63.4V40.5c0-2.6-1.5-4.1-3.8-4.1s-3.8,1.5-3.8,4.1v22.9c0,2.6,1.5,4.1,3.8,4.1
	S237,66.1,237,63.4L237,63.4z"/>
<path class="st2" d="M-185.9,277.5h10c6.1,0,10,4,10,10v4.9c0,6.1-3.9,10-10,10h-3.6v17h-6.4V277.5z M-176.3,296.5
	c2,0.2,3.7-1.2,3.9-3.2c0-0.2,0-0.5,0-0.7v-5.2c0.2-2-1.2-3.7-3.2-3.9c-0.2,0-0.5,0-0.7,0h-3.3v13H-176.3z"/>
<path class="st2" d="M-161.2,310v-22.9c0-6.1,4.1-10.1,10.2-10.1s10.2,4.1,10.2,10.1V310c0,6.1-4.1,10.1-10.2,10.1
	C-157.1,320.1-161.2,316.1-161.2,310z M-147.2,310v-22.9c0-2.6-1.5-4.1-3.8-4.1s-3.8,1.5-3.8,4.1V310c0,2.6,1.5,4.1,3.8,4.1
	C-148.7,314.1-147.2,312.6-147.2,310z"/>
<path class="st2" d="M-120.1,319.5l-4.6-17.3h-3.3v17.3h-6.4v-42h10c6.1,0,10,4,10,10v4.6c0,3.9-1.6,6.9-4.4,8.6l5.3,18.8
	L-120.1,319.5z M-128,296.2h3.3c2,0.2,3.7-1.2,3.9-3.2c0-0.2,0-0.5,0-0.7v-4.9c0.2-2-1.2-3.7-3.2-3.9c-0.2,0-0.5,0-0.7,0h-3.3V296.2
	z"/>
<path class="st2" d="M-110.5,277.5h20.3v6h-7v36h-6.4v-36h-7L-110.5,277.5z"/>
<path class="st2" d="M-85.3,277.5h17.8v6h-11.4v12.3h9v6h-9v17.7h-6.4V277.5z"/>
<path class="st2" d="M-63.1,310v-22.9c0-6.1,4.1-10.1,10.2-10.1c6.1,0,10.2,4.1,10.2,10.1V310c0,6.1-4.1,10.1-10.2,10.1
	C-59,320.1-63.1,316.1-63.1,310z M-49.1,310v-22.9c0-2.6-1.5-4.1-3.8-4.1s-3.8,1.5-3.8,4.1V310c0,2.6,1.5,4.1,3.8,4.1
	S-49.1,312.6-49.1,310L-49.1,310z"/>
<path class="st2" d="M-36.3,277.5h6.4v36h11.3v6h-17.7V277.5z"/>
<path class="st2" d="M-13.7,277.5h6.4v42h-6.4V277.5z"/>
<path class="st2" d="M-0.9,310v-22.9c0-6.1,4.1-10.1,10.2-10.1c6.1,0,10.2,4.1,10.2,10.1V310c0,6.1-4.1,10.1-10.2,10.1
	C3.2,320.1-0.9,316.1-0.9,310z M13.1,310v-22.9c0-2.6-1.5-4.1-3.8-4.1s-3.8,1.5-3.8,4.1V310c0,2.6,1.5,4.1,3.8,4.1
	S13.1,312.6,13.1,310L13.1,310z"/>
<path class="st3" d="M-186.9,276.5h10c6.1,0,10,4,10,10v4.9c0,6.1-3.9,10-10,10h-3.6v17h-6.4V276.5z M-177.3,295.5
	c2,0.2,3.7-1.2,3.9-3.2c0-0.2,0-0.5,0-0.7v-5.2c0.2-2-1.2-3.7-3.2-3.9c-0.2,0-0.5,0-0.7,0h-3.3v13H-177.3z"/>
<path class="st3" d="M-162.2,309v-22.9c0-6.1,4.1-10.1,10.2-10.1s10.2,4.1,10.2,10.1V309c0,6.1-4.1,10.1-10.2,10.1
	C-158.1,319.1-162.2,315.1-162.2,309z M-148.2,309v-22.9c0-2.6-1.5-4.1-3.8-4.1s-3.8,1.5-3.8,4.1V309c0,2.6,1.5,4.1,3.8,4.1
	C-149.7,313.1-148.2,311.6-148.2,309z"/>
<path class="st3" d="M-121.1,318.5l-4.6-17.3h-3.3v17.3h-6.4v-42h10c6.1,0,10,4,10,10v4.6c0,3.9-1.6,6.9-4.4,8.6l5.3,18.8
	L-121.1,318.5z M-129,295.2h3.3c2,0.2,3.7-1.2,3.9-3.2c0-0.2,0-0.5,0-0.7v-4.9c0.2-2-1.2-3.7-3.2-3.9c-0.2,0-0.5,0-0.7,0h-3.3V295.2
	z"/>
<path class="st3" d="M-111.5,276.5h20.3v6h-7v36h-6.4v-36h-7L-111.5,276.5z"/>
<path class="st3" d="M-86.3,276.5h17.8v6h-11.4v12.3h9v6h-9v17.7h-6.4V276.5z"/>
<path class="st3" d="M-64.1,309v-22.9c0-6.1,4.1-10.1,10.2-10.1c6.1,0,10.2,4.1,10.2,10.1V309c0,6.1-4.1,10.1-10.2,10.1
	C-60,319.1-64.1,315.1-64.1,309z M-50.1,309v-22.9c0-2.6-1.5-4.1-3.8-4.1s-3.8,1.5-3.8,4.1V309c0,2.6,1.5,4.1,3.8,4.1
	S-50.1,311.6-50.1,309L-50.1,309z"/>
<path class="st3" d="M-37.3,276.5h6.4v36h11.3v6h-17.7V276.5z"/>
<path class="st3" d="M-14.7,276.5h6.4v42h-6.4V276.5z"/>
<path class="st3" d="M-1.9,309v-22.9c0-6.1,4.1-10.1,10.2-10.1c6.1,0,10.2,4.1,10.2,10.1V309c0,6.1-4.1,10.1-10.2,10.1
	C2.2,319.1-1.9,315.1-1.9,309z M12.1,309v-22.9c0-2.6-1.5-4.1-3.8-4.1s-3.8,1.5-3.8,4.1V309c0,2.6,1.5,4.1,3.8,4.1
	S12.1,311.6,12.1,309L12.1,309z"/>
<path class="st1" d="M72.8,30.4c-6.1,0-10.2,4.1-10.2,10.1v22.9c0,6.1,4.1,10.1,10.2,10.1c6.1,0,10.2-4.1,10.2-10.1V40.5
	C83,34.5,78.9,30.4,72.8,30.4z M72.8,70.6c0,0-6.6,0.4-6.8-5.8l-0.5-21.5c0,0-0.7-10.2,7.3-9.8c0,0,7.4-0.6,6.8,8.8l0,18.4
	C79.6,60.7,80.4,70.6,72.8,70.6z"/>
<path class="st1" d="M79.6,42.3c0.6-9.4-6.8-8.8-6.8-8.8c-8.1-0.4-7.3,9.8-7.3,9.8L66,64.8c0.2,6.2,6.8,5.8,6.8,5.8
	c7.6,0,6.8-9.9,6.8-9.9L79.6,42.3z M76.6,63.4c0,2.6-1.5,4.1-3.8,4.1c-2.3,0-3.8-1.5-3.8-4.1V40.5c0-2.6,1.5-4.1,3.8-4.1
	s3.8,1.5,3.8,4.1V63.4z"/>
<linearGradient id="SVGID_1_" gradientUnits="userSpaceOnUse" x1="62.597" y1="51.9812" x2="82.9954" y2="51.9812">
	<stop  offset="0" style="stop-color:#80008B"/>
	<stop  offset="1" style="stop-color:#FFFFFF"/>
</linearGradient>
<path class="st4" d="M72.8,30.4c-6.1,0-10.2,4.1-10.2,10.1v22.9c0,6.1,4.1,10.1,10.2,10.1c6.1,0,10.2-4.1,10.2-10.1V40.5
	C83,34.5,78.9,30.4,72.8,30.4z M72.8,70.6c0,0-6.6,0.4-6.8-5.8l-0.5-21.5c0,0-0.7-10.2,7.3-9.8c0,0,7.4-0.6,6.8,8.8l0,18.4
	C79.6,60.7,80.4,70.6,72.8,70.6z"/>
<linearGradient id="SVGID_2_" gradientUnits="userSpaceOnUse" x1="65.4529" y1="52.0362" x2="79.6594" y2="52.0362">
	<stop  offset="0" style="stop-color:#FFFFFF"/>
	<stop  offset="1" style="stop-color:#80008B"/>
</linearGradient>
<path class="st5" d="M79.6,42.3c0.6-9.4-6.8-8.8-6.8-8.8c-8.1-0.4-7.3,9.8-7.3,9.8L66,64.8c0.2,6.2,6.8,5.8,6.8,5.8
	c7.6,0,6.8-9.9,6.8-9.9L79.6,42.3z M76.6,63.4c0,2.6-1.5,4.1-3.8,4.1c-2.3,0-3.8-1.5-3.8-4.1V40.5c0-2.6,1.5-4.1,3.8-4.1
	s3.8,1.5,3.8,4.1V63.4z"/>
<path class="st1" d="M53.5,54.5c-1.5,0.9-3.1,1.2-4.2,1.4C50.9,55.7,52.3,55.2,53.5,54.5z"/>
<path class="st1" d="M49.1,55.9c-0.1,0-0.2,0-0.3,0C48.9,55.9,49,55.9,49.1,55.9z"/>
<path class="st1" d="M56.7,35.9c0,0.1,0.1,0.1,0.1,0.2C56.7,36.1,56.7,36,56.7,35.9z"/>
<path class="st1" d="M54.5,53.7c-0.1,0-0.1,0.1-0.2,0.1C54.4,53.8,54.4,53.8,54.5,53.7z"/>
<path class="st1" d="M53.9,54.2c-0.1,0.1-0.3,0.2-0.4,0.3C53.6,54.4,53.8,54.3,53.9,54.2z"/>
<path class="st1" d="M57.8,45.4c0,1.2-0.1,2-0.1,2.3c0.1-0.6,0.1-1.2,0.1-1.8V45.4z"/>
<path class="st1" d="M49.9,31.1c0.1,0,0.2,0,0.3,0.1C50.1,31.2,50,31.2,49.9,31.1z"/>
<path class="st1" d="M55.1,53.2C55.1,53.2,55.1,53.2,55.1,53.2C55.1,53.2,55.1,53.2,55.1,53.2z"/>
<path class="st1" d="M50.9,31.4c0,0,0.1,0,0.1,0C51,31.4,51,31.4,50.9,31.4z"/>
<path class="st1" d="M56.1,35c0.1,0.1,0.1,0.2,0.2,0.3C56.3,35.2,56.2,35.1,56.1,35z"/>
<path class="st1" d="M55.7,34.4c0.1,0.1,0.1,0.2,0.2,0.3C55.8,34.5,55.7,34.4,55.7,34.4z"/>
<path class="st1" d="M48.9,31c0.1,0,0.2,0,0.3,0C49.1,31,49,31,48.9,31z"/>
<polygon class="st1" points="40.9,52.8 40.9,70 44.2,73 44.2,55.9 40.9,52.8 "/>
<path class="st1" d="M57.4,48.9c-0.4,1.4-1,2.5-1.3,3C56.7,51,57.2,50,57.4,48.9z"/>
<path class="st1" d="M57.6,48c0,0.2-0.1,0.4-0.1,0.5C57.6,48.3,57.6,48.2,57.6,48z"/>
<path class="st1" d="M55.8,52.4c-0.1,0.1-0.2,0.2-0.2,0.3C55.7,52.6,55.7,52.5,55.8,52.4z"/>
<linearGradient id="SVGID_3_" gradientUnits="userSpaceOnUse" x1="37.8772" y1="35.6286" x2="57.8409" y2="35.6286">
	<stop  offset="0" style="stop-color:#80008B"/>
	<stop  offset="1" style="stop-color:#FFFFFF"/>
</linearGradient>
<path class="st6" d="M56.3,35.3c0.1,0.2,0.2,0.4,0.3,0.6C56.6,35.7,56.5,35.5,56.3,35.3z"/>
<linearGradient id="SVGID_4_" gradientUnits="userSpaceOnUse" x1="37.8772" y1="52.9041" x2="57.8409" y2="52.9041">
	<stop  offset="0" style="stop-color:#80008B"/>
	<stop  offset="1" style="stop-color:#FFFFFF"/>
</linearGradient>
<path class="st7" d="M55.6,52.7c-0.1,0.2-0.3,0.3-0.4,0.5C55.3,53,55.4,52.8,55.6,52.7z"/>
<linearGradient id="SVGID_5_" gradientUnits="userSpaceOnUse" x1="37.8772" y1="34.8149" x2="57.8409" y2="34.8149">
	<stop  offset="0" style="stop-color:#80008B"/>
	<stop  offset="1" style="stop-color:#FFFFFF"/>
</linearGradient>
<path class="st8" d="M55.9,34.6c0.1,0.1,0.2,0.2,0.3,0.4C56,34.9,56,34.8,55.9,34.6z"/>
<linearGradient id="SVGID_6_" gradientUnits="userSpaceOnUse" x1="37.8772" y1="47.8438" x2="57.8409" y2="47.8438">
	<stop  offset="0" style="stop-color:#80008B"/>
	<stop  offset="1" style="stop-color:#FFFFFF"/>
</linearGradient>
<path class="st9" d="M57.6,47.9c0,0,0-0.1,0-0.2C57.7,47.8,57.6,47.9,57.6,47.9C57.6,47.9,57.6,47.9,57.6,47.9z"/>
<linearGradient id="SVGID_7_" gradientUnits="userSpaceOnUse" x1="37.8772" y1="31.1003" x2="57.8409" y2="31.1003">
	<stop  offset="0" style="stop-color:#80008B"/>
	<stop  offset="1" style="stop-color:#FFFFFF"/>
</linearGradient>
<path class="st10" d="M49.2,31.1c0.2,0,0.5,0.1,0.7,0.1C49.6,31.1,49.4,31.1,49.2,31.1z"/>
<linearGradient id="SVGID_8_" gradientUnits="userSpaceOnUse" x1="37.8772" y1="40.7712" x2="57.8409" y2="40.7712">
	<stop  offset="0" style="stop-color:#80008B"/>
	<stop  offset="1" style="stop-color:#FFFFFF"/>
</linearGradient>
<path class="st11" d="M57.8,45.4c0-1.3,0.1-3.1,0-5.4c0,0,0-1.9-1-3.9c0.7,1.4,1,3,1,4.9V45.4z"/>
<linearGradient id="SVGID_9_" gradientUnits="userSpaceOnUse" x1="37.8772" y1="31.2808" x2="57.8409" y2="31.2808">
	<stop  offset="0" style="stop-color:#80008B"/>
	<stop  offset="1" style="stop-color:#FFFFFF"/>
</linearGradient>
<path class="st12" d="M50.1,31.2c0.3,0,0.5,0.1,0.8,0.2C50.7,31.3,50.4,31.2,50.1,31.2z"/>
<linearGradient id="SVGID_10_" gradientUnits="userSpaceOnUse" x1="37.8772" y1="48.7019" x2="57.8409" y2="48.7019">
	<stop  offset="0" style="stop-color:#80008B"/>
	<stop  offset="1" style="stop-color:#FFFFFF"/>
</linearGradient>
<path class="st13" d="M57.5,48.5c0,0.1-0.1,0.3-0.1,0.4C57.5,48.8,57.5,48.6,57.5,48.5z"/>
<linearGradient id="SVGID_11_" gradientUnits="userSpaceOnUse" x1="37.8772" y1="52.1346" x2="57.8409" y2="52.1346">
	<stop  offset="0" style="stop-color:#80008B"/>
	<stop  offset="1" style="stop-color:#FFFFFF"/>
</linearGradient>
<path class="st14" d="M55.9,52.2c0,0,0.1-0.1,0.2-0.3c-0.1,0.2-0.2,0.3-0.3,0.5C55.8,52.3,55.9,52.3,55.9,52.2z"/>
<linearGradient id="SVGID_12_" gradientUnits="userSpaceOnUse" x1="37.8772" y1="54.0419" x2="57.8409" y2="54.0419">
	<stop  offset="0" style="stop-color:#80008B"/>
	<stop  offset="1" style="stop-color:#FFFFFF"/>
</linearGradient>
<path class="st15" d="M54.3,53.9c-0.1,0.1-0.3,0.2-0.4,0.3C54,54.1,54.2,54,54.3,53.9z"/>
<linearGradient id="SVGID_13_" gradientUnits="userSpaceOnUse" x1="37.8772" y1="54.468" x2="57.8409" y2="54.468">
	<stop  offset="0" style="stop-color:#80008B"/>
	<stop  offset="1" style="stop-color:#FFFFFF"/>
</linearGradient>
<path class="st16" d="M53.5,54.5C53.5,54.5,53.5,54.5,53.5,54.5C53.5,54.5,53.5,54.5,53.5,54.5z"/>
<linearGradient id="SVGID_14_" gradientUnits="userSpaceOnUse" x1="37.8772" y1="53.4995" x2="57.8409" y2="53.4995">
	<stop  offset="0" style="stop-color:#80008B"/>
	<stop  offset="1" style="stop-color:#FFFFFF"/>
</linearGradient>
<path class="st17" d="M55,53.3c-0.2,0.2-0.4,0.3-0.5,0.5C54.7,53.6,54.9,53.4,55,53.3z"/>
<linearGradient id="SVGID_15_" gradientUnits="userSpaceOnUse" x1="37.8772" y1="55.9205" x2="57.8409" y2="55.9205">
	<stop  offset="0" style="stop-color:#80008B"/>
	<stop  offset="1" style="stop-color:#FFFFFF"/>
</linearGradient>
<path class="st18" d="M48.8,55.9c-0.3,0-0.7,0-1,0C47.8,55.9,48.2,56,48.8,55.9z"/>
<linearGradient id="SVGID_16_" gradientUnits="userSpaceOnUse" x1="37.8772" y1="31.0031" x2="57.8409" y2="31.0031">
	<stop  offset="0" style="stop-color:#80008B"/>
	<stop  offset="1" style="stop-color:#FFFFFF"/>
</linearGradient>
<path class="st19" d="M47.8,31c0.4,0,0.7,0,1,0C48.5,31,48.2,31,47.8,31z"/>
<linearGradient id="SVGID_17_" gradientUnits="userSpaceOnUse" x1="37.8772" y1="32.8746" x2="57.8409" y2="32.8746">
	<stop  offset="0" style="stop-color:#80008B"/>
	<stop  offset="1" style="stop-color:#FFFFFF"/>
</linearGradient>
<path class="st20" d="M55.7,34.4c-0.1-0.2-0.3-0.3-0.4-0.5c0,0-1.3-1.7-4.2-2.4C52.9,31.9,54.5,32.9,55.7,34.4z"/>
<linearGradient id="SVGID_18_" gradientUnits="userSpaceOnUse" x1="37.8772" y1="55.862" x2="57.8409" y2="55.862">
	<stop  offset="0" style="stop-color:#80008B"/>
	<stop  offset="1" style="stop-color:#FFFFFF"/>
</linearGradient>
<path class="st21" d="M49.3,55.9c-0.1,0-0.1,0-0.2,0C49.2,55.9,49.2,55.9,49.3,55.9z"/>
<path class="st1" d="M57.8,41c0-1.8-0.4-3.5-1-4.9c0-0.1-0.1-0.1-0.1-0.2c-0.1-0.2-0.2-0.4-0.3-0.6c-0.1-0.1-0.1-0.2-0.2-0.3
	c-0.1-0.1-0.2-0.2-0.3-0.4c-0.1-0.1-0.1-0.2-0.2-0.3c-1.1-1.4-2.7-2.4-4.6-3c0,0-0.1,0-0.1,0c-0.2-0.1-0.5-0.1-0.8-0.2
	c-0.1,0-0.2,0-0.3-0.1c-0.2,0-0.5-0.1-0.7-0.1c-0.1,0-0.2,0-0.3,0c-0.3,0-0.7,0-1,0h-10l3,2.8v0h7.8c0,0,5.8,0.7,6,6.5v6.3
	c0,0-0.7,6.6-6,6.2l-7.7,0l3.3,3.1h3.6c0.3,0,0.7,0,1,0c0.1,0,0.2,0,0.3,0c0.1,0,0.1,0,0.2,0c1.1-0.1,2.7-0.5,4.2-1.4c0,0,0,0,0,0
	c0.1-0.1,0.3-0.2,0.4-0.3c0.1-0.1,0.3-0.2,0.4-0.3c0.1,0,0.1-0.1,0.2-0.1c0.2-0.2,0.4-0.3,0.5-0.5c0,0,0.1-0.1,0.1-0.1
	c0.2-0.2,0.3-0.3,0.4-0.5c0.1-0.1,0.2-0.2,0.2-0.3c0.1-0.1,0.2-0.3,0.3-0.5c0.3-0.5,0.9-1.6,1.3-3c0-0.1,0.1-0.3,0.1-0.4
	c0-0.2,0.1-0.4,0.1-0.5c0-0.1,0-0.2,0-0.2c0-0.3,0.1-1.1,0.1-2.3V41z"/>
<linearGradient id="SVGID_19_" gradientUnits="userSpaceOnUse" x1="37.8772" y1="43.4612" x2="57.8408" y2="43.4612">
	<stop  offset="0" style="stop-color:#80008B"/>
	<stop  offset="1" style="stop-color:#FFFFFF"/>
</linearGradient>
<path class="st22" d="M57.8,41c0-1.8-0.4-3.5-1-4.9c0-0.1-0.1-0.1-0.1-0.2c-0.1-0.2-0.2-0.4-0.3-0.6c-0.1-0.1-0.1-0.2-0.2-0.3
	c-0.1-0.1-0.2-0.2-0.3-0.4c-0.1-0.1-0.1-0.2-0.2-0.3c-1.1-1.4-2.7-2.4-4.6-3c0,0-0.1,0-0.1,0c-0.2-0.1-0.5-0.1-0.8-0.2
	c-0.1,0-0.2,0-0.3-0.1c-0.2,0-0.5-0.1-0.7-0.1c-0.1,0-0.2,0-0.3,0c-0.3,0-0.7,0-1,0h-10l3,2.8v0h7.8c0,0,5.8,0.7,6,6.5v6.3
	c0,0-0.7,6.6-6,6.2l-7.7,0l3.3,3.1h3.6c0.3,0,0.7,0,1,0c0.1,0,0.2,0,0.3,0c0.1,0,0.1,0,0.2,0c1.1-0.1,2.7-0.5,4.2-1.4c0,0,0,0,0,0
	c0.1-0.1,0.3-0.2,0.4-0.3c0.1-0.1,0.3-0.2,0.4-0.3c0.1,0,0.1-0.1,0.2-0.1c0.2-0.2,0.4-0.3,0.5-0.5c0,0,0.1-0.1,0.1-0.1
	c0.2-0.2,0.3-0.3,0.4-0.5c0.1-0.1,0.2-0.2,0.2-0.3c0.1-0.1,0.2-0.3,0.3-0.5c0.3-0.5,0.9-1.6,1.3-3c0-0.1,0.1-0.3,0.1-0.4
	c0-0.2,0.1-0.4,0.1-0.5c0-0.1,0-0.2,0-0.2c0-0.3,0.1-1.1,0.1-2.3V41z"/>
<path class="st1" d="M50.6,38.2c-1-1.2-2.4-1.3-2.4-1.3C49.2,37.1,50,37.6,50.6,38.2z"/>
<linearGradient id="SVGID_20_" gradientUnits="userSpaceOnUse" x1="40.1276" y1="37.6092" x2="54.655" y2="37.6092">
	<stop  offset="0" style="stop-color:#80008B"/>
	<stop  offset="1" style="stop-color:#FFFFFF"/>
</linearGradient>
<path class="st23" d="M50.6,38.2c-1-1.2-2.4-1.3-2.4-1.3C49.2,37.1,50,37.6,50.6,38.2z"/>
<path class="st1" d="M49.7,49.4c0.6-0.3,1-0.8,1.3-1.3C50.7,48.7,50.2,49.1,49.7,49.4z"/>
<linearGradient id="SVGID_21_" gradientUnits="userSpaceOnUse" x1="40.1276" y1="48.8016" x2="54.655" y2="48.8016">
	<stop  offset="0" style="stop-color:#80008B"/>
	<stop  offset="1" style="stop-color:#FFFFFF"/>
</linearGradient>
<path class="st24" d="M49.7,49.4c0.6-0.3,1-0.8,1.3-1.3C50.7,48.7,50.2,49.1,49.7,49.4z"/>
<path class="st1" d="M51.1,47.9c0,0,0,0.1-0.1,0.1C51.1,48,51.1,47.9,51.1,47.9z"/>
<linearGradient id="SVGID_22_" gradientUnits="userSpaceOnUse" x1="40.1276" y1="47.94" x2="54.655" y2="47.94">
	<stop  offset="0" style="stop-color:#80008B"/>
	<stop  offset="1" style="stop-color:#FFFFFF"/>
</linearGradient>
<path class="st25" d="M51.1,47.9c0,0,0,0.1-0.1,0.1C51.1,48,51.1,47.9,51.1,47.9z"/>
<polygon class="st1" points="44.2,49.9 44.2,37 40.9,33.8 40.9,52.8 "/>
<polygon class="st26" points="44.2,49.9 44.2,37 40.9,33.8 40.9,52.8 "/>
<path class="st1" d="M51.4,46c0,0.1,0,0.3,0,0.4C51.4,46.2,51.4,46,51.4,46z"/>
<linearGradient id="SVGID_23_" gradientUnits="userSpaceOnUse" x1="40.1276" y1="46.2353" x2="54.655" y2="46.2353">
	<stop  offset="0" style="stop-color:#80008B"/>
	<stop  offset="1" style="stop-color:#FFFFFF"/>
</linearGradient>
<path class="st27" d="M51.4,46c0,0.1,0,0.3,0,0.4C51.4,46.2,51.4,46,51.4,46z"/>
<path class="st1" d="M51.4,46l0-5.7c0,0,0-0.1,0-0.1c0,0.2,0,0.4,0,0.7V46z"/>
<linearGradient id="SVGID_24_" gradientUnits="userSpaceOnUse" x1="40.1276" y1="43.1276" x2="54.655" y2="43.1276">
	<stop  offset="0" style="stop-color:#80008B"/>
	<stop  offset="1" style="stop-color:#FFFFFF"/>
</linearGradient>
<path class="st28" d="M51.4,46l0-5.7c0,0,0-0.1,0-0.1c0,0.2,0,0.4,0,0.7V46z"/>
<path class="st1" d="M50.7,38.3c0.1,0.1,0.1,0.2,0.2,0.2C50.8,38.5,50.7,38.4,50.7,38.3z"/>
<linearGradient id="SVGID_25_" gradientUnits="userSpaceOnUse" x1="40.1276" y1="38.4404" x2="54.655" y2="38.4404">
	<stop  offset="0" style="stop-color:#80008B"/>
	<stop  offset="1" style="stop-color:#FFFFFF"/>
</linearGradient>
<path class="st29" d="M50.7,38.3c0.1,0.1,0.1,0.2,0.2,0.2C50.8,38.5,50.7,38.4,50.7,38.3z"/>
<polygon class="st1" points="40.9,52.8 40.9,52.8 40.9,52.8 "/>
<linearGradient id="SVGID_26_" gradientUnits="userSpaceOnUse" x1="40.1276" y1="52.7998" x2="54.655" y2="52.7998">
	<stop  offset="0" style="stop-color:#80008B"/>
	<stop  offset="1" style="stop-color:#FFFFFF"/>
</linearGradient>
<polygon class="st30" points="40.9,52.8 40.9,52.8 40.9,52.8 "/>
<polygon class="st1" points="37.9,31 37.9,73 40.9,70 40.9,70 40.9,52.8 40.9,52.8 40.9,33.8 "/>
<linearGradient id="SVGID_27_" gradientUnits="userSpaceOnUse" x1="37.8772" y1="36.9731" x2="57.8409" y2="36.9731">
	<stop  offset="0" style="stop-color:#80008B"/>
	<stop  offset="1" style="stop-color:#FFFFFF"/>
</linearGradient>
<path class="st31" d="M47.5,37h-3.3l4,0C48,37,47.8,37,47.5,37z"/>
<linearGradient id="SVGID_28_" gradientUnits="userSpaceOnUse" x1="40.1276" y1="36.9731" x2="54.655" y2="36.9731">
	<stop  offset="0" style="stop-color:#80008B"/>
	<stop  offset="1" style="stop-color:#FFFFFF"/>
</linearGradient>
<path class="st32" d="M47.5,37h-3.3l4,0C48,37,47.8,37,47.5,37z"/>
<linearGradient id="SVGID_29_" gradientUnits="userSpaceOnUse" x1="37.8772" y1="49.7011" x2="57.8409" y2="49.7011">
	<stop  offset="0" style="stop-color:#80008B"/>
	<stop  offset="1" style="stop-color:#FFFFFF"/>
</linearGradient>
<path class="st33" d="M49.7,49.4c-0.5,0.3-1.2,0.5-2.2,0.5C48.3,50,49.1,49.8,49.7,49.4z"/>
<linearGradient id="SVGID_30_" gradientUnits="userSpaceOnUse" x1="40.1276" y1="49.7011" x2="54.655" y2="49.7011">
	<stop  offset="0" style="stop-color:#80008B"/>
	<stop  offset="1" style="stop-color:#FFFFFF"/>
</linearGradient>
<path class="st34" d="M49.7,49.4c-0.5,0.3-1.2,0.5-2.2,0.5C48.3,50,49.1,49.8,49.7,49.4z"/>
<linearGradient id="SVGID_31_" gradientUnits="userSpaceOnUse" x1="37.8772" y1="38.2811" x2="57.8409" y2="38.2811">
	<stop  offset="0" style="stop-color:#80008B"/>
	<stop  offset="1" style="stop-color:#FFFFFF"/>
</linearGradient>
<path class="st35" d="M50.6,38.2C50.6,38.3,50.7,38.3,50.6,38.2C50.7,38.3,50.6,38.3,50.6,38.2z"/>
<linearGradient id="SVGID_32_" gradientUnits="userSpaceOnUse" x1="40.1276" y1="38.2811" x2="54.655" y2="38.2811">
	<stop  offset="0" style="stop-color:#80008B"/>
	<stop  offset="1" style="stop-color:#FFFFFF"/>
</linearGradient>
<path class="st36" d="M50.6,38.2C50.6,38.3,50.7,38.3,50.6,38.2C50.7,38.3,50.6,38.3,50.6,38.2z"/>
<linearGradient id="SVGID_33_" gradientUnits="userSpaceOnUse" x1="37.8772" y1="48.0865" x2="57.8409" y2="48.0865">
	<stop  offset="0" style="stop-color:#80008B"/>
	<stop  offset="1" style="stop-color:#FFFFFF"/>
</linearGradient>
<path class="st37" d="M51.1,48c0,0-0.1,0.1-0.1,0.1C51,48.1,51,48.1,51.1,48z"/>
<linearGradient id="SVGID_34_" gradientUnits="userSpaceOnUse" x1="40.1276" y1="48.0865" x2="54.655" y2="48.0865">
	<stop  offset="0" style="stop-color:#80008B"/>
	<stop  offset="1" style="stop-color:#FFFFFF"/>
</linearGradient>
<path class="st38" d="M51.1,48c0,0-0.1,0.1-0.1,0.1C51,48.1,51,48.1,51.1,48z"/>
<linearGradient id="SVGID_35_" gradientUnits="userSpaceOnUse" x1="37.8772" y1="47.1477" x2="57.8409" y2="47.1477">
	<stop  offset="0" style="stop-color:#80008B"/>
	<stop  offset="1" style="stop-color:#FFFFFF"/>
</linearGradient>
<path class="st39" d="M51.4,46.7c0-0.1,0-0.2,0-0.3c0,0.3-0.1,0.9-0.3,1.4C51.3,47.5,51.4,47.1,51.4,46.7z"/>
<linearGradient id="SVGID_36_" gradientUnits="userSpaceOnUse" x1="40.1276" y1="47.1477" x2="54.655" y2="47.1477">
	<stop  offset="0" style="stop-color:#80008B"/>
	<stop  offset="1" style="stop-color:#FFFFFF"/>
</linearGradient>
<path class="st40" d="M51.4,46.7c0-0.1,0-0.2,0-0.3c0,0.3-0.1,0.9-0.3,1.4C51.3,47.5,51.4,47.1,51.4,46.7z"/>
<linearGradient id="SVGID_37_" gradientUnits="userSpaceOnUse" x1="37.8772" y1="39.3846" x2="57.8409" y2="39.3846">
	<stop  offset="0" style="stop-color:#80008B"/>
	<stop  offset="1" style="stop-color:#FFFFFF"/>
</linearGradient>
<path class="st41" d="M50.8,38.6c0.3,0.4,0.5,1,0.6,1.7C51.4,39.6,51.2,39,50.8,38.6z"/>
<linearGradient id="SVGID_38_" gradientUnits="userSpaceOnUse" x1="40.1276" y1="39.3846" x2="54.655" y2="39.3846">
	<stop  offset="0" style="stop-color:#80008B"/>
	<stop  offset="1" style="stop-color:#FFFFFF"/>
</linearGradient>
<path class="st42" d="M50.8,38.6c0.3,0.4,0.5,1,0.6,1.7C51.4,39.6,51.2,39,50.8,38.6z"/>
<path class="st1" d="M47.5,37c0.2,0,0.5,0,0.7,0c0,0,1.4,0,2.4,1.3c0,0,0,0.1,0.1,0.1c0.1,0.1,0.1,0.1,0.2,0.2
	c0.3,0.5,0.5,1.1,0.6,1.7c0,0,0,0.1,0,0.1l0,5.7c0,0,0,0.2,0,0.4c0,0.1,0,0.2,0,0.3c0,0.4-0.2,0.8-0.3,1.1c0,0,0,0.1-0.1,0.1
	c0,0-0.1,0.1-0.1,0.1c-0.3,0.5-0.7,0.9-1.3,1.3c-0.6,0.4-1.4,0.6-2.2,0.5h-3.3l-3.4,2.8l0,0l7.7,0c5.3,0.5,6-6.2,6-6.2v-6.3
	c-0.2-5.8-6-6.5-6-6.5h-7.8v0l3.4,3.2H47.5z"/>
<linearGradient id="SVGID_39_" gradientUnits="userSpaceOnUse" x1="37.8772" y1="43.3117" x2="57.8409" y2="43.3117">
	<stop  offset="0" style="stop-color:#80008B"/>
	<stop  offset="1" style="stop-color:#FFFFFF"/>
</linearGradient>
<path class="st43" d="M47.5,37c0.2,0,0.5,0,0.7,0c0,0,1.4,0,2.4,1.3c0,0,0,0.1,0.1,0.1c0.1,0.1,0.1,0.1,0.2,0.2
	c0.3,0.5,0.5,1.1,0.6,1.7c0,0,0,0.1,0,0.1l0,5.7c0,0,0,0.2,0,0.4c0,0.1,0,0.2,0,0.3c0,0.4-0.2,0.8-0.3,1.1c0,0,0,0.1-0.1,0.1
	c0,0-0.1,0.1-0.1,0.1c-0.3,0.5-0.7,0.9-1.3,1.3c-0.6,0.4-1.4,0.6-2.2,0.5h-3.3l-3.4,2.8l0,0l7.7,0c5.3,0.5,6-6.2,6-6.2v-6.3
	c-0.2-5.8-6-6.5-6-6.5h-7.8v0l3.4,3.2H47.5z"/>
<linearGradient id="SVGID_40_" gradientUnits="userSpaceOnUse" x1="40.1276" y1="43.3117" x2="54.655" y2="43.3117">
	<stop  offset="0" style="stop-color:#FFFFFF"/>
	<stop  offset="1" style="stop-color:#80008B"/>
</linearGradient>
<path class="st44" d="M47.5,37c0.2,0,0.5,0,0.7,0c0,0,1.4,0,2.4,1.3c0,0,0,0.1,0.1,0.1c0.1,0.1,0.1,0.1,0.2,0.2
	c0.3,0.5,0.5,1.1,0.6,1.7c0,0,0,0.1,0,0.1l0,5.7c0,0,0,0.2,0,0.4c0,0.1,0,0.2,0,0.3c0,0.4-0.2,0.8-0.3,1.1c0,0,0,0.1-0.1,0.1
	c0,0-0.1,0.1-0.1,0.1c-0.3,0.5-0.7,0.9-1.3,1.3c-0.6,0.4-1.4,0.6-2.2,0.5h-3.3l-3.4,2.8l0,0l7.7,0c5.3,0.5,6-6.2,6-6.2v-6.3
	c-0.2-5.8-6-6.5-6-6.5h-7.8v0l3.4,3.2H47.5z"/>
<polygon class="st1" points="40.9,70.2 40.9,70 37.9,73 44.2,73 40.9,70 "/>
<polygon class="st45" points="40.9,70.2 40.9,70 37.9,73 44.2,73 40.9,70 "/>
<polygon class="st1" points="40.9,70.2 40.9,70 40.9,70 "/>
<linearGradient id="SVGID_41_" gradientUnits="userSpaceOnUse" x1="40.1276" y1="70.1055" x2="54.655" y2="70.1055">
	<stop  offset="0" style="stop-color:#80008B"/>
	<stop  offset="1" style="stop-color:#FFFFFF"/>
</linearGradient>
<polygon class="st46" points="40.9,70.2 40.9,70 40.9,70 "/>
<linearGradient id="SVGID_42_" gradientUnits="userSpaceOnUse" x1="37.8772" y1="70.1055" x2="44.2376" y2="70.1055">
	<stop  offset="0" style="stop-color:#80008B"/>
	<stop  offset="1" style="stop-color:#FFFFFF"/>
</linearGradient>
<polygon class="st47" points="40.9,70.2 40.9,70 40.9,70 "/>
<polygon class="st48" points="40.9,52.8 40.9,70 44.2,73 44.2,55.9 40.9,52.8 "/>
<linearGradient id="SVGID_43_" gradientUnits="userSpaceOnUse" x1="60.4092" y1="51.8074" x2="33.8205" y2="52.0119">
	<stop  offset="0" style="stop-color:#FFFFFF"/>
	<stop  offset="1" style="stop-color:#80008B"/>
</linearGradient>
<polygon class="st49" points="37.9,31 37.9,73 40.9,70 40.9,70 40.9,52.8 40.9,52.8 40.9,33.8 "/>
<linearGradient id="SVGID_44_" gradientUnits="userSpaceOnUse" x1="89.425" y1="43.4612" x2="109.3886" y2="43.4612">
	<stop  offset="0" style="stop-color:#80008B"/>
	<stop  offset="1" style="stop-color:#FFFFFF"/>
</linearGradient>
<path class="st50" d="M109.3,41c0-1.8-0.4-3.5-1-4.9c0-0.1-0.1-0.1-0.1-0.2c-0.1-0.2-0.2-0.4-0.3-0.6c-0.1-0.1-0.1-0.2-0.2-0.3
	c-0.1-0.1-0.2-0.2-0.3-0.4c-0.1-0.1-0.1-0.2-0.2-0.3c-1.1-1.4-2.7-2.4-4.6-3c0,0-0.1,0-0.1,0c-0.2-0.1-0.5-0.1-0.8-0.2
	c-0.1,0-0.2,0-0.3-0.1c-0.2,0-0.5-0.1-0.7-0.1c-0.1,0-0.2,0-0.3,0c-0.3,0-0.7,0-1,0h-10l3,2.8v0h7.8c0,0,5.8,0.7,6,6.5v6.3
	c0,0-0.7,6.6-6,6.2l-7.7,0l3.3,3.1h3.6c0.3,0,0.7,0,1,0c0.1,0,0.2,0,0.3,0c0.1,0,0.1,0,0.2,0c1.1-0.1,2.7-0.5,4.2-1.4c0,0,0,0,0,0
	c0.1-0.1,0.3-0.2,0.4-0.3c0.1-0.1,0.3-0.2,0.4-0.3c0.1,0,0.1-0.1,0.2-0.1c0.2-0.2,0.4-0.3,0.5-0.5c0,0,0.1-0.1,0.1-0.1
	c0.2-0.2,0.3-0.3,0.4-0.5c0.1-0.1,0.2-0.2,0.2-0.3c0.1-0.1,0.2-0.3,0.3-0.5c0.3-0.5,0.9-1.6,1.3-3c0-0.1,0.1-0.3,0.1-0.4
	c0-0.2,0.1-0.4,0.1-0.5c0-0.1,0-0.2,0-0.2c0-0.3,0.1-1.1,0.1-2.3V41z"/>
<polygon class="st26" points="95.8,49.9 95.8,37 92.4,33.8 92.4,52.8 "/>
<linearGradient id="SVGID_45_" gradientUnits="userSpaceOnUse" x1="91.7473" y1="43.2974" x2="106.2747" y2="43.2974">
	<stop  offset="0" style="stop-color:#FFFFFF"/>
	<stop  offset="1" style="stop-color:#80008B"/>
</linearGradient>
<path class="st51" d="M99.2,37c0.2,0,0.5,0,0.7,0c0,0,1.4,0,2.4,1.3c0,0,0,0.1,0.1,0.1c0.1,0.1,0.1,0.1,0.2,0.2
	c0.3,0.5,0.5,1.1,0.6,1.7c0,0,0,0.1,0,0.1l0,5.7c0,0,0,0.2,0,0.4c0,0.1,0,0.2,0,0.3c0,0.4-0.2,0.8-0.3,1.1c0,0,0,0.1-0.1,0.1
	c0,0-0.1,0.1-0.1,0.1c-0.3,0.5-0.7,0.9-1.3,1.3c-0.6,0.4-1.4,0.6-2.2,0.5h-3.3l-3.4,2.8l0,0l7.7,0c5.3,0.5,6-6.2,6-6.2v-6.3
	c-0.2-5.8-6-6.5-6-6.5h-7.8v0l3.4,3.2H99.2z"/>
<polygon class="st45" points="92.4,70.2 92.4,70 89.4,73 95.8,73 92.4,70 "/>
<polygon class="st48" points="92.4,52.8 92.4,70 95.8,73 95.8,55.9 92.5,52.8 "/>
<linearGradient id="SVGID_46_" gradientUnits="userSpaceOnUse" x1="103.7374" y1="52.5044" x2="86.9661" y2="51.8908">
	<stop  offset="0" style="stop-color:#FFFFFF"/>
	<stop  offset="1" style="stop-color:#80008B"/>
</linearGradient>
<polygon class="st52" points="89.4,31 89.4,73 92.4,70 92.4,70 92.4,52.8 92.4,52.8 92.4,33.8 "/>
<polygon class="st45" points="103.7,73 106.2,70 110.3,73 "/>
<polygon class="st1" points="106.2,70 101.6,52.7 99.2,55.9 103.7,73 "/>
<polygon class="st26" points="101.6,52.7 105,54.5 110.3,73 106.2,70 "/>
<linearGradient id="SVGID_47_" gradientUnits="userSpaceOnUse" x1="160.6956" y1="51.9807" x2="181.094" y2="51.9807">
	<stop  offset="0" style="stop-color:#80008B"/>
	<stop  offset="1" style="stop-color:#FFFFFF"/>
</linearGradient>
<path class="st53" d="M170.9,30.4c-6.1,0-10.2,4.1-10.2,10.1v22.9c0,6.1,4.1,10.1,10.2,10.1c6.1,0,10.2-4.1,10.2-10.1V40.5
	C181.1,34.5,177,30.4,170.9,30.4z M170.9,70.6c0,0-6.6,0.4-6.8-5.8l-0.5-21.5c0,0-0.7-10.2,7.3-9.8c0,0,7.4-0.6,6.8,8.8l0,18.4
	C177.7,60.7,178.5,70.6,170.9,70.6z"/>
<linearGradient id="SVGID_48_" gradientUnits="userSpaceOnUse" x1="163.5515" y1="52.0357" x2="177.758" y2="52.0357">
	<stop  offset="0" style="stop-color:#FFFFFF"/>
	<stop  offset="1" style="stop-color:#80008B"/>
</linearGradient>
<path class="st54" d="M177.7,42.3c0.6-9.4-6.8-8.8-6.8-8.8c-8.1-0.4-7.3,9.8-7.3,9.8l0.5,21.5c0.2,6.2,6.8,5.8,6.8,5.8
	c7.6,0,6.8-9.9,6.8-9.9L177.7,42.3z M174.7,63.4c0,2.6-1.5,4.1-3.8,4.1c-2.3,0-3.8-1.5-3.8-4.1V40.5c0-2.6,1.5-4.1,3.8-4.1
	s3.8,1.5,3.8,4.1V63.4z"/>
<linearGradient id="SVGID_49_" gradientUnits="userSpaceOnUse" x1="222.9143" y1="51.9804" x2="243.3127" y2="51.9804">
	<stop  offset="0" style="stop-color:#80008B"/>
	<stop  offset="1" style="stop-color:#FFFFFF"/>
</linearGradient>
<path class="st55" d="M233.1,30.4c-6.1,0-10.2,4.1-10.2,10.1v22.9c0,6.1,4.1,10.1,10.2,10.1c6.1,0,10.2-4.1,10.2-10.1V40.5
	C243.3,34.5,239.2,30.4,233.1,30.4z M233.1,70.6c0,0-6.6,0.4-6.8-5.8l-0.5-21.5c0,0-0.7-10.2,7.3-9.8c0,0,7.4-0.6,6.8,8.8l0,18.4
	C240,60.7,240.7,70.6,233.1,70.6z"/>
<linearGradient id="SVGID_50_" gradientUnits="userSpaceOnUse" x1="225.7702" y1="52.0354" x2="239.9768" y2="52.0354">
	<stop  offset="0" style="stop-color:#FFFFFF"/>
	<stop  offset="1" style="stop-color:#80008B"/>
</linearGradient>
<path class="st56" d="M239.9,42.3c0.6-9.4-6.8-8.8-6.8-8.8c-8.1-0.4-7.3,9.8-7.3,9.8l0.5,21.5c0.2,6.2,6.8,5.8,6.8,5.8
	c7.6,0,6.8-9.9,6.8-9.9L239.9,42.3z M237,63.4c0,2.6-1.5,4.1-3.8,4.1c-2.3,0-3.8-1.5-3.8-4.1V40.5c0-2.6,1.5-4.1,3.8-4.1
	s3.8,1.5,3.8,4.1V63.4z"/>
<polygon class="st45" points="120.3,73 123.5,70 126.7,73 "/>
<linearGradient id="SVGID_51_" gradientUnits="userSpaceOnUse" x1="135.8731" y1="52.8135" x2="117.9555" y2="53.6805">
	<stop  offset="0" style="stop-color:#FFFFFF"/>
	<stop  offset="1" style="stop-color:#80008B"/>
</linearGradient>
<polygon class="st57" points="123.5,34 123.5,70 120.3,73 120.3,37 "/>
<linearGradient id="SVGID_52_" gradientUnits="userSpaceOnUse" x1="136.6312" y1="53.1894" x2="123.449" y2="53.5318">
	<stop  offset="0" style="stop-color:#80008B"/>
	<stop  offset="1" style="stop-color:#FFFFFF"/>
</linearGradient>
<polygon class="st58" points="126.7,37 126.7,73 123.5,70 123.5,34 "/>
<polygon class="st1" points="113.4,31 116,34 113.4,37 "/>
<polygon class="st26" points="133.6,37 133.6,31 131,34 "/>
<linearGradient id="SVGID_53_" gradientUnits="userSpaceOnUse" x1="120.5437" y1="25.5212" x2="127.5579" y2="38.4974">
	<stop  offset="0" style="stop-color:#80008B"/>
	<stop  offset="1" style="stop-color:#FFFFFF"/>
</linearGradient>
<polygon class="st59" points="116,34 131,34 133.6,31 113.4,31 "/>
<linearGradient id="SVGID_54_" gradientUnits="userSpaceOnUse" x1="137.0506" y1="38.8724" x2="106.8397" y2="26.4206">
	<stop  offset="0" style="stop-color:#80008B"/>
	<stop  offset="1" style="stop-color:#FFFFFF"/>
</linearGradient>
<polygon class="st60" points="123.5,34 126.7,37 133.6,37 131,34 "/>
<linearGradient id="SVGID_55_" gradientUnits="userSpaceOnUse" x1="135.5376" y1="42.5433" x2="105.3267" y2="30.0915">
	<stop  offset="0" style="stop-color:#80008B"/>
	<stop  offset="1" style="stop-color:#FFFFFF"/>
</linearGradient>
<polygon class="st61" points="123.5,34 116,34 113.4,37 120.3,37 "/>
<polygon class="st45" points="210.1,73 213.3,70 216.5,73 "/>
<polygon class="st1" points="213.3,33.9 213.3,70 210.1,73 210.1,31 "/>
<linearGradient id="SVGID_56_" gradientUnits="userSpaceOnUse" x1="231.4722" y1="51.1199" x2="213.6705" y2="52.143">
	<stop  offset="0" style="stop-color:#80008B"/>
	<stop  offset="8.746715e-02" style="stop-color:#84078E"/>
	<stop  offset="0.2166" style="stop-color:#8E1B97"/>
	<stop  offset="0.3717" style="stop-color:#9E3CA6"/>
	<stop  offset="0.5469" style="stop-color:#B469BB"/>
	<stop  offset="0.7388" style="stop-color:#D2A4D5"/>
	<stop  offset="0.9418" style="stop-color:#F4EAF5"/>
	<stop  offset="1" style="stop-color:#FFFFFF"/>
</linearGradient>
<polygon class="st62" points="216.5,31 216.5,73 213.3,70 213.3,33.9 "/>
<polygon class="st45" points="216.5,31 213.3,33.9 210.1,31 "/>
<linearGradient id="SVGID_57_" gradientUnits="userSpaceOnUse" x1="200.7568" y1="52.3034" x2="185.9261" y2="51.9417">
	<stop  offset="0" style="stop-color:#FFFFFF"/>
	<stop  offset="1" style="stop-color:#80008B"/>
</linearGradient>
<polygon class="st63" points="190.7,33.9 190.7,70 187.5,73 187.5,31 "/>
<linearGradient id="SVGID_58_" gradientUnits="userSpaceOnUse" x1="203.9674" y1="50.9224" x2="192.3042" y2="50.5132">
	<stop  offset="0" style="stop-color:#80008B"/>
	<stop  offset="8.505811e-02" style="stop-color:#84098F"/>
	<stop  offset="0.2214" style="stop-color:#90209A"/>
	<stop  offset="0.3921" style="stop-color:#A346AB"/>
	<stop  offset="0.5903" style="stop-color:#BE7BC3"/>
	<stop  offset="0.8089" style="stop-color:#DFBEE2"/>
	<stop  offset="1" style="stop-color:#FFFFFF"/>
</linearGradient>
<polygon class="st64" points="193.9,31 193.9,67 190.7,70 190.7,33.9 "/>
<polygon class="st45" points="193.9,31 190.7,33.9 187.5,31 "/>
<polygon class="st26" points="205.2,73 205.2,67 202.6,70 "/>
<linearGradient id="SVGID_59_" gradientUnits="userSpaceOnUse" x1="188.5478" y1="58.6878" x2="205.9382" y2="76.8512">
	<stop  offset="0" style="stop-color:#80008B"/>
	<stop  offset="1" style="stop-color:#FFFFFF"/>
</linearGradient>
<polygon class="st65" points="190.7,70 202.6,70 205.2,67 193.9,67 "/>
<polygon class="st45" points="190.7,70 187.5,73 205.2,73 202.6,70 "/>
<linearGradient id="SVGID_60_" gradientUnits="userSpaceOnUse" x1="151.8281" y1="144.3043" x2="136.9974" y2="143.9426" gradientTransform="matrix(1 0 0 -1 0 195.9622)">
	<stop  offset="0" style="stop-color:#FFFFFF"/>
	<stop  offset="1" style="stop-color:#80008B"/>
</linearGradient>
<polygon class="st66" points="141.8,70 141.8,33.9 138.6,31 138.6,73 "/>
<polygon class="st45" points="144.9,73 141.8,70 138.6,73 "/>
<polygon class="st26" points="156.3,31 156.3,37 153.7,34 "/>
<linearGradient id="SVGID_61_" gradientUnits="userSpaceOnUse" x1="139.619" y1="150.6887" x2="157.0095" y2="168.8521" gradientTransform="matrix(1 0 0 -1 0 195.9622)">
	<stop  offset="0" style="stop-color:#80008B"/>
	<stop  offset="1" style="stop-color:#FFFFFF"/>
</linearGradient>
<polygon class="st67" points="141.8,33.9 153.7,34 156.3,37 144.9,37 "/>
<polygon class="st45" points="141.8,33.9 138.6,31 156.3,31 153.7,34 "/>
<polygon class="st26" points="153.9,49.3 153.9,55.3 151.3,52.2 "/>
<polygon class="st45" points="151.3,52.2 141.8,52.3 144.9,49.3 153.9,49.3 "/>
<linearGradient id="SVGID_62_" gradientUnits="userSpaceOnUse" x1="157.7342" y1="42.9687" x2="142.3371" y2="43.0811">
	<stop  offset="0" style="stop-color:#80008B"/>
	<stop  offset="1" style="stop-color:#FFFFFF"/>
</linearGradient>
<polygon class="st68" points="141.8,33.9 144.9,37 144.9,49.3 141.8,52.3 "/>
<linearGradient id="SVGID_63_" gradientUnits="userSpaceOnUse" x1="138.4913" y1="67.3499" x2="151.8654" y2="47.9069">
	<stop  offset="0" style="stop-color:#80008B"/>
	<stop  offset="1" style="stop-color:#FFFFFF"/>
</linearGradient>
<polygon class="st69" points="153.9,55.3 151.3,52.2 141.8,52.3 144.9,55.3 "/>
<linearGradient id="SVGID_64_" gradientUnits="userSpaceOnUse" x1="157.8768" y1="62.5103" x2="142.4797" y2="62.6227">
	<stop  offset="0" style="stop-color:#80008B"/>
	<stop  offset="1" style="stop-color:#FFFFFF"/>
</linearGradient>
<polygon class="st70" points="144.9,73 141.8,70 141.8,52.3 144.9,55.3 "/>
<g class="st71">
	<path class="st0" d="M247.6,142.1c-0.5-5.4-4.4-9-10.2-9c-3.4,0-6.2,1.3-8,3.5c-1.4,1.7-2.2,4-2.2,6.6v22.9
		c0,6.1,4.1,10.1,10.2,10.1c6.1,0,10.2-4.1,10.2-10.1v-22.9C247.7,142.8,247.6,142.5,247.6,142.1z M237.5,170.3
		c-2,0-3.5-1.1-3.8-3.2c0-0.3-0.1-0.6-0.1-0.9v-22.9c0-2.6,1.5-4.1,3.8-4.1s3.8,1.5,3.8,4.1v22.9
		C241.3,168.8,239.8,170.3,237.5,170.3z"/>
	<path class="st0" d="M77.1,133.1c-6.1,0-10.2,4.1-10.2,10.1v22.9c0,6.1,4.1,10.1,10.2,10.1c6.1,0,10.2-4.1,10.2-10.1v-22.9
		C87.3,137.2,83.3,133.1,77.1,133.1z M81,166.1c0,2.6-1.5,4.1-3.8,4.1c-2.3,0-3.8-1.5-3.8-4.1v-22.9c0-2.6,1.5-4.1,3.8-4.1
		s3.8,1.5,3.8,4.1V166.1z"/>
	<path class="st0" d="M61.1,138.8c0-0.1-0.1-0.1-0.1-0.2c-0.1-0.2-0.2-0.4-0.3-0.6c-0.1-0.1-0.1-0.2-0.2-0.3
		c-0.1-0.1-0.2-0.2-0.3-0.4c-0.1-0.1-0.1-0.2-0.2-0.3c-0.1-0.2-0.3-0.3-0.4-0.5c0,0-0.9-1.1-2.7-1.9c0,0-0.1,0-0.1-0.1
		c-0.4-0.2-0.8-0.3-1.3-0.5c0,0-0.1,0-0.1,0c-0.2-0.1-0.5-0.1-0.8-0.2c-0.1,0-0.2,0-0.3-0.1c-0.2,0-0.5-0.1-0.7-0.1
		c-0.1,0-0.2,0-0.3,0c-0.3,0-0.7,0-1,0h-10v42h6.4v-17h3.6c0,0,0.4,0,1,0c0.1,0,0.2,0,0.3,0c0.1,0,0.1,0,0.2,0
		c1.6-0.2,3-0.6,4.2-1.4c0,0,0,0,0,0c0.1-0.1,0.3-0.2,0.4-0.3c0.1-0.1,0.3-0.2,0.4-0.3c0.1,0,0.1-0.1,0.2-0.1
		c0.2-0.2,0.4-0.3,0.5-0.5c0,0,0.1-0.1,0.1-0.1c0.2-0.2,0.3-0.3,0.4-0.5c0.1-0.1,0.2-0.2,0.2-0.3c0,0,0.1-0.1,0.1-0.1
		c0,0,0.1-0.1,0.2-0.3c0.6-0.9,1-1.9,1.3-3c0-0.1,0.1-0.3,0.1-0.4c0-0.2,0.1-0.4,0.1-0.5c0,0,0,0,0-0.1c0,0,0-0.1,0-0.2
		c0.1-0.6,0.1-1.2,0.1-1.8v-0.5c0-1.3,0.1-3.1,0-5.4C62.1,142.8,62.1,140.9,61.1,138.8z M48.6,139.7l4,0c1,0.1,1.8,0.6,2.4,1.3
		c0,0,0,0.1,0.1,0.1c0.1,0.1,0.1,0.2,0.2,0.2c0.3,0.4,0.5,1,0.6,1.7c0,0.2,0,0.4,0,0.7v5.2c0,0.1,0,0.3,0,0.4c0,0.3-0.1,0.9-0.3,1.4
		c0,0,0,0.1-0.1,0.1c0,0-0.1,0.1-0.1,0.1c-0.3,0.5-0.7,1-1.3,1.3c-0.5,0.3-1.2,0.5-2.2,0.5h-3.3V139.7z"/>
	<path class="st0" d="M109.4,157.2c0.1-0.1,0.3-0.2,0.4-0.3c0.1-0.1,0.3-0.2,0.4-0.3c0.1,0,0.1-0.1,0.2-0.1c0.2-0.2,0.4-0.3,0.5-0.5
		c0,0,0.1-0.1,0.1-0.1c0.2-0.2,0.3-0.3,0.4-0.5c0.1-0.1,0.2-0.2,0.2-0.3c0.1-0.1,0.2-0.3,0.3-0.5c0.3-0.5,0.9-1.6,1.3-3
		c0-0.1,0.1-0.3,0.1-0.4c0-0.2,0.1-0.4,0.1-0.5c0-0.1,0-0.2,0-0.2c0-0.3,0.1-1.1,0.1-2.3v-4.4c0-1.8-0.4-3.5-1-4.9
		c0-0.1-0.1-0.1-0.1-0.2c-0.1-0.2-0.2-0.4-0.3-0.6c-0.1-0.1-0.1-0.2-0.2-0.3c-0.1-0.1-0.2-0.2-0.3-0.4c-0.1-0.1-0.1-0.2-0.2-0.3
		c-1.1-1.4-2.7-2.4-4.6-3c0,0-0.1,0-0.1,0c-0.2-0.1-0.5-0.1-0.8-0.2c-0.1,0-0.2,0-0.3-0.1c-0.2,0-0.5-0.1-0.7-0.1
		c-0.1,0-0.2,0-0.3,0c-0.3,0-0.7,0-1,0h-10v42h6.4v-17h3.4l4.5,17l6.6,0L109.4,157.2C109.4,157.2,109.4,157.2,109.4,157.2z
		 M100.1,139.7L100.1,139.7L100.1,139.7h3.4c0.2,0,0.5,0,0.7,0c0,0,1.4,0,2.4,1.3c0,0,0,0.1,0.1,0.1c0.1,0.1,0.1,0.1,0.2,0.2
		c0.3,0.5,0.5,1.1,0.6,1.7c0,0,0,0.1,0,0.1l0,5.7c0,0,0,0.2,0,0.4c0,0.1,0,0.2,0,0.3c0,0.4-0.2,0.8-0.3,1.1c0,0,0,0.1-0.1,0.1
		c0,0-0.1,0.1-0.1,0.1c-0.3,0.5-0.7,0.9-1.3,1.3c-0.5,0.3-1,0.5-1.6,0.5c-0.2,0-0.4,0-0.6,0h0h-3.3h0l0,0l-0.1,0L100.1,139.7
		L100.1,139.7z M96.8,172.9l0-0.1l0,0V172.9z"/>
	<path class="st0" d="M175.2,133.1c-3.1,0-5.6,1-7.4,2.8c-1.8,1.8-2.8,4.3-2.8,7.3v22.9c0,6.1,4.1,10.1,10.2,10.1
		c6.1,0,10.2-4.1,10.2-10.1v-22.9c0-0.4,0-0.8,0-1.1C184.9,136.7,181,133.1,175.2,133.1z M175.2,170.3c-2,0-3.5-1.1-3.8-3.2
		c0-0.3-0.1-0.6-0.1-0.9v-22.9c0-2.6,1.5-4.1,3.8-4.1s3.8,1.5,3.8,4.1v22.9C179.1,168.8,177.6,170.3,175.2,170.3z"/>
	<polygon class="st0" points="117.7,133.7 117.7,139.7 124.7,139.7 124.7,175.7 131,175.7 131,139.7 138,139.7 138,139.7 138,139.7
		138,133.7 138,133.7 	"/>
	<polygon class="st0" points="214.5,133.7 214.5,133.7 214.5,175.7 214.5,175.7 214.5,175.7 220.8,175.7 220.8,175.7 220.8,175.7
		220.8,133.7 220.8,133.7 	"/>
	<polygon class="st0" points="209.6,169.7 209.6,169.7 209.6,169.7 198.2,169.7 198.2,133.7 198.2,133.7 198.2,133.7 191.9,133.7
		191.9,133.7 191.9,175.7 191.9,175.7 209.6,175.7 209.6,175.7 	"/>
	<polygon class="st0" points="160.6,133.7 160.6,133.7 142.9,133.7 142.9,175.7 142.9,175.7 142.9,175.7 149.3,175.7 149.3,158
		158.3,158 158.3,158 158.3,158 158.3,152 149.3,152 149.3,139.7 159,139.7 160.6,139.7 160.6,139.7 160.7,139.7 160.7,133.7
		160.6,133.7 	"/>
</g>
</svg>
