<svg id="Lag_1" data-name="Lag 1" xmlns="http://www.w3.org/2000/svg" xmlns:xlink="http://www.w3.org/1999/xlink" width="50mm" height="20mm" viewBox="0 0 141.73 56.69"><defs><style>.cls-1{fill:#8ac058;}.cls-2{fill:#7b7b7b;}.cls-3{fill:url(#Ikke-navngivet_forløb_82);}.cls-4{fill:url(#Ikke-navngivet_forløb_47);}.cls-5{fill:#2a1000;opacity:0.07;}.cls-6{fill:#9b9a9a;}.cls-10,.cls-11,.cls-12,.cls-7,.cls-8,.cls-9{opacity:0.5;}.cls-7{fill:url(#Ikke-navngivet_forløb_21);}.cls-8{fill:url(#Ikke-navngivet_forløb_21-2);}.cls-9{fill:url(#Ikke-navngivet_forløb_21-3);}.cls-10{fill:url(#Ikke-navngivet_forløb_21-4);}.cls-11{fill:url(#Ikke-navngivet_forløb_21-5);}.cls-12{fill:url(#Ikke-navngivet_forløb_21-6);}.cls-13{fill:url(#Ikke-navngivet_forløb_47-2);}.cls-14{fill:url(#Ikke-navngivet_forløb_77);}.cls-15{fill:url(#Ikke-navngivet_forløb_21-7);}.cls-16{fill:url(#Ikke-navngivet_forløb_52);}.cls-17{opacity:0.63;fill:url(#Ikke-navngivet_forløb_75);}.cls-18{opacity:0.09;}</style><linearGradient id="Ikke-navngivet_forløb_82" x1="69.98" y1="51.94" x2="70.07" y2="46.19" gradientUnits="userSpaceOnUse"><stop offset="0" stop-opacity="0"/><stop offset="1" stop-color="#2a1000" stop-opacity="0.6"/></linearGradient><radialGradient id="Ikke-navngivet_forløb_47" cx="70.28" cy="31.05" fx="47.892654692846406" r="44.76" gradientUnits="userSpaceOnUse"><stop offset="0" stop-color="#fff" stop-opacity="0.5"/><stop offset="0.12" stop-color="#fff" stop-opacity="0.43"/><stop offset="0.72" stop-color="#fff" stop-opacity="0.12"/><stop offset="1" stop-color="#fff" stop-opacity="0"/></radialGradient><linearGradient id="Ikke-navngivet_forløb_21" x1="83.02" y1="18.77" x2="83.02" y2="36.25" gradientUnits="userSpaceOnUse"><stop offset="0" stop-opacity="0"/><stop offset="1" stop-color="#2a1000"/></linearGradient><linearGradient id="Ikke-navngivet_forløb_21-2" x1="98.66" y1="17.69" x2="98.66" y2="32.14" xlink:href="#Ikke-navngivet_forløb_21"/><linearGradient id="Ikke-navngivet_forløb_21-3" x1="58.46" y1="18.46" x2="58.46" y2="38.87" xlink:href="#Ikke-navngivet_forløb_21"/><linearGradient id="Ikke-navngivet_forløb_21-4" x1="41.78" y1="17.74" x2="41.78" y2="34.88" xlink:href="#Ikke-navngivet_forløb_21"/><linearGradient id="Ikke-navngivet_forløb_21-5" x1="69.73" y1="18.24" x2="69.73" y2="43.1" xlink:href="#Ikke-navngivet_forløb_21"/><linearGradient id="Ikke-navngivet_forløb_21-6" x1="69.98" y1="14.68" x2="69.79" y2="27.04" xlink:href="#Ikke-navngivet_forløb_21"/><radialGradient id="Ikke-navngivet_forløb_47-2" cx="71.93" cy="-14.21" fx="71.92783848087674" r="47.09" gradientTransform="translate(-0.69) scale(1.01 1)" xlink:href="#Ikke-navngivet_forløb_47"/><radialGradient id="Ikke-navngivet_forløb_77" cx="156.27" cy="14.32" r="6.61" gradientTransform="translate(-135.24 -1.53) scale(1.27 1.1)" gradientUnits="userSpaceOnUse"><stop offset="0" stop-color="#fff" stop-opacity="0.4"/><stop offset="0.66" stop-color="#fff" stop-opacity="0.12"/><stop offset="1" stop-color="#fff" stop-opacity="0"/></radialGradient><linearGradient id="Ikke-navngivet_forløb_21-7" x1="70.36" y1="25.32" x2="70.36" y2="68.37" xlink:href="#Ikke-navngivet_forløb_21"/><radialGradient id="Ikke-navngivet_forløb_52" cx="86.1" cy="39.74" r="51.81" gradientUnits="userSpaceOnUse"><stop offset="0" stop-color="#fff" stop-opacity="0.1"/><stop offset="1" stop-color="#fff" stop-opacity="0"/></radialGradient><radialGradient id="Ikke-navngivet_forløb_75" cx="69.89" cy="21.17" r="15.41" gradientUnits="userSpaceOnUse"><stop offset="0" stop-color="#fff" stop-opacity="0.5"/><stop offset="0.31" stop-color="#fff" stop-opacity="0.2"/><stop offset="0.72" stop-color="#79736e" stop-opacity="0.32"/><stop offset="0.77" stop-color="#938f8b" stop-opacity="0.26"/><stop offset="1" stop-color="#fff" stop-opacity="0"/></radialGradient></defs><title>ufo</title><path class="cls-1" d="M131.05,32.46A41.07,41.07,0,0,0,123,28a90.68,90.68,0,0,0-11-4.24h0l-.64-.34s-2.52-.71-6-1.51q-2.53-.62-5.28-1.13a59.69,59.69,0,0,0-8.6-1.11,3.28,3.28,0,0,0-.13-.41C85.77,6.13,72.5,5.46,69.59,5.47c-.49,0-.76,0-.76,0C51.32,6.58,48,19.76,48,19.76a3.1,3.1,0,0,0,0,.53l-.5.07A84.87,84.87,0,0,0,28,24.83l-.13,0-.46.17-.11,0h0a99.18,99.18,0,0,0-15.56,6.86s-.82.41-1.78,1h0l-.05,0-.79.48h0a12.62,12.62,0,0,0-1.2.83C8,37.64,16,40,16,40a203.21,203.21,0,0,0,32.08,4.66h0s19.78,7.35,43.77,0A205.5,205.5,0,0,0,124.57,40s8-2.31,8.05-5.69"/><path class="cls-2" d="M48.15,44.59S68,52,92.06,44.59l-9-3.23-26.26.53-8.61.58Z"/><path class="cls-3" d="M48.15,44.59S68,52,92.06,44.59l-9-3.23-26.26.53-8.61.58Z"/><path class="cls-2" d="M132.54,34.12s.16-1.78-9.46-6.15a96.3,96.3,0,0,0-31.6-8.34l-21.2,3L48.22,20.25s-10.6,1.34-16.95,3.49c0,0-12.09,3.83-19.42,8.17A26.56,26.56,0,0,0,8,34.24L13.54,39,42.4,42.47,97.89,41,130,35.53"/><path class="cls-4" d="M132.54,34.12s.16-1.78-9.46-6.15a96.3,96.3,0,0,0-31.6-8.34l-21.2,3L48.22,20.25s-10.6,1.34-16.95,3.49c0,0-12.09,3.83-19.42,8.17A26.56,26.56,0,0,0,8,34.24L13.54,39,42.4,42.47,97.89,41,130,35.53"/><path class="cls-5" d="M28.12,24.8s-1.66,4.68,41.28,4.37c0,0,42-.24,42-5.78,0,0-12.65-3.56-19.93-3.76l-21.2,2.45L48,20.29S37.12,21.31,28.12,24.8Z"/><path class="cls-6" d="M91.44,19.22C85.14,4.45,69.08,5.46,69.08,5.46,51.58,6.55,48.23,19.74,48.23,19.74a2,2,0,0,0,.16,1.2C52.28,23.11,71,22.65,71,22.65c13.8,0,20.45-2,20.45-2C91.86,20.18,91.44,19.22,91.44,19.22Z"/><path class="cls-7" d="M79.92,22.39s5.33,2.19,7,4.53h-.75a34.86,34.86,0,0,0-7.07-4.53Z"/><path class="cls-8" d="M91.44,20.68s9.06.88,15.57,3.3l-.87.44S95.57,21.12,90.32,21Z"/><path class="cls-9" d="M54.37,27.59s3.55-3.9,7.12-4.9h1.07s-5,1.62-7.38,5.23C55.18,27.92,54.5,28.17,54.37,27.59Z"/><path class="cls-10" d="M33.64,25.33a50.71,50.71,0,0,1,15.57-4l.8.23s-10.66,1.62-15.95,4.2C34.06,25.72,33.29,25.78,33.64,25.33Z"/><path class="cls-11" d="M28.12,24.8s-1,2.62,17.19,3.85a220.51,220.51,0,0,0,27.41.47s37.85-.34,38.69-5.73l.64.34s.46,2.75-12.25,4.24c0,0-18,2-27.11,1.7,0,0-20.93.58-27.41-.48,0,0-17.35-1-17.87-4.14Z"/><path class="cls-12" d="M48.23,19.74s4.35,2.5,21,1.91c0,0,15.72,0,22.27-2,0,0,.38.21,0,1.05,0,0-6.78,2.16-22.3,2,0,0-16.84.34-20.75-1.75A1.27,1.27,0,0,1,48.23,19.74Z"/><path class="cls-13" d="M91.87,19.22C85.48,4.45,69.2,5.46,69.2,5.46,51.44,6.55,48,19.74,48,19.74a2,2,0,0,0,.17,1.2c3.94,2.17,22.92,1.71,22.92,1.71,14,0,20.74-2,20.74-2C92.3,20.18,91.87,19.22,91.87,19.22Z"/><ellipse class="cls-14" cx="63.6" cy="14.28" rx="8.74" ry="7.01"/><path class="cls-2" d="M132.69,34.24s-29.77,3.13-62.33,3.83C37.79,37.37,8,34.24,8,34.24c.06,3.38,8.05,5.69,8.05,5.69C33.41,44.05,53,45.34,70.36,45.39s36.94-1.34,54.28-5.46c0,0,8-2.31,8-5.69"/><path class="cls-15" d="M132.69,34.24s-29.77,3.13-62.33,3.83C37.79,37.37,8,34.24,8,34.24c.06,3.38,8.05,5.69,8.05,5.69C33.41,44.05,53,45.34,70.36,45.39s36.94-1.34,54.28-5.46c0,0,8-2.31,8-5.69"/><path class="cls-16" d="M132.62,34.26S120,35.58,102.09,36.7c-9.49.59-20.45,1.13-31.73,1.37-10.86-.23-21.41-.74-30.65-1.3C21.25,35.63,8,34.24,8,34.24c.06,3.38,8.05,5.69,8.05,5.69C33.41,44.05,53,45.34,70.36,45.39s36.94-1.34,54.28-5.46c0,0,7.92-2.29,8-5.67"/><path class="cls-17" d="M48.23,19.74s4.35,2.5,21,1.91c0,0,15.72,0,22.27-2,0,0,.38.21,0,1.05,0,0-6.78,2.16-22.3,2,0,0-16.84.34-20.75-1.75A1.27,1.27,0,0,1,48.23,19.74Z"/><path class="cls-18" d="M131.12,32.44s-39.58,4.29-61,3.67c0,0-5.76,1.69-60-3.23l-.84.52S40.8,37.17,70.11,37c0,0,45.67-1.58,61.59-4.08"/></svg>
